<svg width="16" height="17" viewBox="0 0 16 17" fill="none" xmlns="http://www.w3.org/2000/svg">
<path d="M12.0315 14.166H11.9648" stroke="#09212F" stroke-width="2" stroke-linecap="round" stroke-linejoin="round"/>
<path d="M12 9.16602V11.166" stroke="#09212F" stroke-linecap="round" stroke-linejoin="round"/>
<path d="M8.66536 14.5002H3.9987C3.82189 14.5002 3.65232 14.43 3.52729 14.305C3.40227 14.1799 3.33203 14.0104 3.33203 13.8336C3.33375 13.0748 3.52044 12.328 3.87591 11.6577C4.23138 10.9874 4.74492 10.4139 5.37203 9.98689L5.42536 9.95356C5.4954 9.90103 5.55441 9.83522 5.59901 9.75989C5.64362 9.68455 5.67295 9.60117 5.68533 9.5145C5.69771 9.42784 5.6929 9.33958 5.67117 9.25477C5.64945 9.16996 5.61123 9.09026 5.5587 9.02022C4.97729 8.30947 4.66144 7.41848 4.66536 6.50022C4.66138 5.49452 5.03639 4.52422 5.7157 3.7826C6.395 3.04098 7.32875 2.58246 8.33094 2.49839C9.33313 2.41431 10.3302 2.71084 11.1236 3.32892C11.917 3.94699 12.4484 4.84125 12.612 5.83356C12.6507 6.05361 12.6686 6.27682 12.6654 6.50022" stroke="#09212F" stroke-linecap="round" stroke-linejoin="round"/>
</svg>
