<svg width="16" height="17" viewBox="0 0 16 17" fill="none" xmlns="http://www.w3.org/2000/svg">
<path d="M10.668 9.16602H12.3346C12.5999 9.16602 12.8542 9.06066 13.0417 8.87312C13.2293 8.68559 13.3346 8.43123 13.3346 8.16602C13.3346 7.9008 13.2293 7.64645 13.0417 7.45891C12.8542 7.27137 12.5999 7.16602 12.3346 7.16602H11.668C11.4028 7.16602 11.1484 7.06066 10.9609 6.87312C10.7733 6.68559 10.668 6.43123 10.668 6.16602C10.668 5.9008 10.7733 5.64645 10.9609 5.45891C11.1484 5.27137 11.4028 5.16602 11.668 5.16602H13.3346" stroke="#09212F" stroke-linecap="round" stroke-linejoin="round"/>
<path d="M9.33464 2.5H3.33464C3.15782 2.5 2.98826 2.57024 2.86323 2.69526C2.73821 2.82029 2.66797 2.98986 2.66797 3.16667V14.5L4.22797 13.8333L5.7813 14.5L7.33464 13.8333L8.88797 14.5L10.4413 13.8333L12.0013 14.5V12.5" stroke="#09212F" stroke-linecap="round" stroke-linejoin="round"/>
<path d="M7.9987 7.83333H5.33203M11.9987 5.16667V4.5V5.16667ZM11.9987 9.83333V9.16667V9.83333ZM7.9987 10.5H5.33203H7.9987Z" stroke="#09212F" stroke-linecap="round" stroke-linejoin="round"/>
</svg>
