<svg width="16" height="17" viewBox="0 0 16 17" fill="none" xmlns="http://www.w3.org/2000/svg">
<path d="M10.668 7.5L9.39464 9.16667L8.66797 8.33333" stroke="#09212F" stroke-linecap="round" stroke-linejoin="round"/>
<path d="M4 12.5V13.8333C4 14.0101 4.07024 14.1797 4.19526 14.3047C4.32029 14.4298 4.48986 14.5 4.66667 14.5H12.6667C12.8435 14.5 13.013 14.4298 13.1381 14.3047C13.2631 14.1797 13.3333 14.0101 13.3333 13.8333V3.16667C13.3333 2.98986 13.2631 2.82029 13.1381 2.69526C13.013 2.57024 12.8435 2.5 12.6667 2.5H6" stroke="#09212F" stroke-linecap="round" stroke-linejoin="round"/>
<path d="M5.33464 5.16602H3.66797C3.40275 5.16602 3.1484 5.27137 2.96086 5.45891C2.77333 5.64645 2.66797 5.9008 2.66797 6.16602C2.66797 6.43123 2.77333 6.68559 2.96086 6.87312C3.1484 7.06066 3.40275 7.16602 3.66797 7.16602H4.33464C4.59985 7.16602 4.85421 7.27137 5.04174 7.45891C5.22928 7.64645 5.33464 7.9008 5.33464 8.16602C5.33464 8.43123 5.22928 8.68559 5.04174 8.87312C4.85421 9.06066 4.59985 9.16602 4.33464 9.16602H2.66797" stroke="#09212F" stroke-linecap="round" stroke-linejoin="round"/>
<path d="M4 9.83333V9.16667M6.66667 11.8333H10.6667H6.66667ZM4 5.16667V4.5V5.16667Z" stroke="#09212F" stroke-linecap="round" stroke-linejoin="round"/>
</svg>
