<svg width="16" height="17" viewBox="0 0 16 17" fill="none" xmlns="http://www.w3.org/2000/svg">
<path d="M12.0013 9.16667V3.16667C12.0013 2.98986 11.9311 2.82029 11.806 2.69526C11.681 2.57024 11.5114 2.5 11.3346 2.5H3.33464C3.15782 2.5 2.98826 2.57024 2.86323 2.69526C2.73821 2.82029 2.66797 2.98986 2.66797 3.16667V13.8333C2.66797 14.0101 2.73821 14.1797 2.86323 14.3047C2.98826 14.4298 3.15782 14.5 3.33464 14.5H8.0013" stroke="#09212F" stroke-linecap="round" stroke-linejoin="round"/>
<path d="M11.9987 11.8333V14.5M5.33203 2.5H9.33203V4.5C9.33203 4.67681 9.26179 4.84638 9.13677 4.9714C9.01174 5.09643 8.84218 5.16667 8.66536 5.16667H5.9987C5.82189 5.16667 5.65232 5.09643 5.52729 4.9714C5.40227 4.84638 5.33203 4.67681 5.33203 4.5V2.5ZM5.33203 11.8333H7.9987H5.33203ZM5.33203 9.16667H9.33203H5.33203ZM10.6654 13.1667H13.332H10.6654Z" stroke="#09212F" stroke-linecap="round" stroke-linejoin="round"/>
</svg>
