<svg width="32" height="32" viewBox="0 0 32 32" fill="none" xmlns="http://www.w3.org/2000/svg">
<path d="M12 14.6667H14.6667M25.3333 6.66667V26.6667C25.3333 27.0203 25.1929 27.3594 24.9428 27.6095C24.6928 27.8595 24.3536 28 24 28H8C7.64638 28 7.30724 27.8595 7.05719 27.6095C6.80714 27.3594 6.66667 27.0203 6.66667 26.6667V5.33333C6.66667 4.97971 6.80714 4.64057 7.05719 4.39052C7.30724 4.14048 7.64638 4 8 4H22.6667L25.3333 6.66667ZM22.6667 4V6.66667H25.3333L22.6667 4ZM13.3333 4V17.3333V4ZM12 9.33333H14.6667H12Z" stroke="#299E58" stroke-width="2" stroke-linecap="round" stroke-linejoin="round"/>
</svg>
