<svg width="32" height="32" viewBox="0 0 32 32" fill="none" xmlns="http://www.w3.org/2000/svg">
<path d="M21.3334 12.0001H24.4401C24.7597 11.996 25.0701 12.1068 25.3149 12.3124C25.5596 12.518 25.7223 12.8046 25.7734 13.1201L28.0001 26.4534C28.0313 26.6455 28.02 26.8421 27.9671 27.0294C27.9142 27.2167 27.8209 27.3901 27.6938 27.5375C27.5668 27.6849 27.409 27.8027 27.2316 27.8826C27.0541 27.9625 26.8614 28.0026 26.6668 28.0001H5.33344C5.13885 28.0026 4.94608 27.9625 4.76865 27.8826C4.59121 27.8027 4.43343 27.6849 4.30636 27.5375C4.1793 27.3901 4.08604 27.2167 4.03313 27.0294C3.98023 26.8421 3.96895 26.6455 4.00011 26.4534L6.22677 13.1201C6.27788 12.8046 6.44063 12.518 6.68536 12.3124C6.93009 12.1068 7.24052 11.996 7.56011 12.0001H10.6668" stroke="#E0990C" stroke-width="2" stroke-linecap="round" stroke-linejoin="round"/>
<path d="M21.3332 9.33333C21.3332 7.91885 20.7713 6.56229 19.7711 5.5621C18.7709 4.5619 17.4143 4 15.9998 4C14.5853 4 13.2288 4.5619 12.2286 5.5621C11.2284 6.56229 10.6665 7.91885 10.6665 9.33333C10.6665 14.6667 15.9998 20 15.9998 20C15.9998 20 21.3332 14.6667 21.3332 9.33333Z" stroke="#E0990C" stroke-width="2" stroke-linecap="round" stroke-linejoin="round"/>
</svg>
