<svg xmlns="http://www.w3.org/2000/svg" width="16" height="17" viewBox="0 0 16 17" fill="none">
  <path d="M10.666 9.63281H12.3327C12.5979 9.63281 12.8523 9.52746 13.0398 9.33992C13.2273 9.15238 13.3327 8.89803 13.3327 8.63281C13.3327 8.3676 13.2273 8.11324 13.0398 7.92571C12.8523 7.73817 12.5979 7.63281 12.3327 7.63281H11.666C11.4008 7.63281 11.1464 7.52746 10.9589 7.33992C10.7714 7.15238 10.666 6.89803 10.666 6.63281C10.666 6.3676 10.7714 6.11324 10.9589 5.92571C11.1464 5.73817 11.4008 5.63281 11.666 5.63281H13.3327" stroke="white" stroke-linecap="round" stroke-linejoin="round"/>
  <path d="M8.00065 8.29818H5.33398M12.0007 5.63151V4.96484V5.63151ZM12.0007 10.2982V9.63151V10.2982ZM8.00065 10.9648H5.33398H8.00065Z" stroke="white" stroke-linecap="round" stroke-linejoin="round"/>
  <path d="M9.33268 2.96484H3.33268C3.15587 2.96484 2.9863 3.03508 2.86128 3.16011C2.73625 3.28513 2.66602 3.4547 2.66602 3.63151V14.9648L4.22602 14.2982L5.77935 14.9648L7.33268 14.2982L8.88602 14.9648L10.4393 14.2982L11.9993 14.9648V12.9648" stroke="white" stroke-opacity="0.5" stroke-linecap="round" stroke-linejoin="round"/>
</svg>