<svg width="24" height="25" viewBox="0 0 24 25" fill="none" xmlns="http://www.w3.org/2000/svg">
<path d="M2.5 7.96667V4.46667C2.5 4.06884 2.65804 3.68731 2.93934 3.40601C3.22064 3.1247 3.60218 2.96667 4 2.96667H20C20.3978 2.96667 20.7794 3.1247 21.0607 3.40601C21.342 3.68731 21.5 4.06884 21.5 4.46667V7.96667H2.5ZM20 21.9667H16.5V10.9667H21.5V20.4667C21.5 20.8645 21.342 21.246 21.0607 21.5273C20.7794 21.8086 20.3978 21.9667 20 21.9667Z" fill="white" stroke="white"/>
<path d="M14 10.4667H2V20.4667C2 20.9971 2.21071 21.5058 2.58579 21.8809C2.96086 22.256 3.46957 22.4667 4 22.4667H14V10.4667Z" fill="white" fill-opacity="0.5"/>
</svg>
