<svg xmlns="http://www.w3.org/2000/svg" width="16" height="17" viewBox="0 0 16 17" fill="none">
<path d="M10.666 7.96484L9.39268 9.63151L8.66602 8.79818" stroke="white" stroke-linecap="round" stroke-linejoin="round"/>
<path d="M5.33268 5.63281H3.66602C3.4008 5.63281 3.14645 5.73817 2.95891 5.92571C2.77137 6.11324 2.66602 6.3676 2.66602 6.63281C2.66602 6.89803 2.77137 7.15238 2.95891 7.33992C3.14645 7.52746 3.4008 7.63281 3.66602 7.63281H4.33268C4.5979 7.63281 4.85225 7.73817 5.03979 7.92571C5.22733 8.11324 5.33268 8.3676 5.33268 8.63281C5.33268 8.89803 5.22733 9.15238 5.03979 9.33992C4.85225 9.52746 4.5979 9.63281 4.33268 9.63281H2.66602" stroke="white" stroke-linecap="round" stroke-linejoin="round"/>
<path d="M4 10.2982V9.63151M6.66667 12.2982H10.6667H6.66667ZM4 5.63151V4.96484V5.63151Z" stroke="white" stroke-linecap="round" stroke-linejoin="round"/>
<path d="M4 12.9648V14.2982C4 14.475 4.07024 14.6446 4.19526 14.7696C4.32029 14.8946 4.48986 14.9648 4.66667 14.9648H12.6667C12.8435 14.9648 13.013 14.8946 13.1381 14.7696C13.2631 14.6446 13.3333 14.475 13.3333 14.2982V3.63151C13.3333 3.4547 13.2631 3.28513 13.1381 3.16011C13.013 3.03508 12.8435 2.96484 12.6667 2.96484H6" stroke="white" stroke-opacity="0.5" stroke-linecap="round" stroke-linejoin="round"/>
</svg>