<svg xmlns="http://www.w3.org/2000/svg" width="21" height="20" viewBox="0 0 21 20" fill="none">
<path d="M7.00065 2.5V5.83333M17.0007 17.5H3.66732C3.4463 17.5 3.23434 17.4122 3.07806 17.2559C2.92178 17.0996 2.83398 16.8877 2.83398 16.6667V8.33333H17.834V16.6667C17.834 16.8877 17.7462 17.0996 17.5899 17.2559C17.4336 17.4122 17.2217 17.5 17.0007 17.5ZM17.834 5C17.834 4.77899 17.7462 4.56702 17.5899 4.41074C17.4336 4.25446 17.2217 4.16667 17.0007 4.16667H3.66732C3.4463 4.16667 3.23434 4.25446 3.07806 4.41074C2.92178 4.56702 2.83398 4.77899 2.83398 5V8.33333H17.834V5ZM13.6673 2.5V5.83333V2.5Z" stroke="#8F9096" stroke-width="1.4" stroke-linecap="round" stroke-linejoin="round"/>
</svg>