<svg xmlns="http://www.w3.org/2000/svg" width="40" height="40" viewBox="0 0 40 40" fill="none">
<path d="M26.666 17.5L23.4827 21.6667L21.666 19.5833" stroke="#099CBC" stroke-width="2" stroke-linecap="round" stroke-linejoin="round"/>
<path d="M10 30V33.3333C10 33.7754 10.1756 34.1993 10.4882 34.5118C10.8007 34.8244 11.2246 35 11.6667 35H31.6667C32.1087 35 32.5326 34.8244 32.8452 34.5118C33.1577 34.1993 33.3333 33.7754 33.3333 33.3333V6.66667C33.3333 6.22464 33.1577 5.80072 32.8452 5.48816C32.5326 5.17559 32.1087 5 31.6667 5H15" stroke="#099CBC" stroke-width="2" stroke-linecap="round" stroke-linejoin="round"/>
<path d="M13.3327 11.668H9.16602C8.50297 11.668 7.86709 11.9314 7.39825 12.4002C6.92941 12.869 6.66602 13.5049 6.66602 14.168C6.66602 14.831 6.92941 15.4669 7.39825 15.9357C7.86709 16.4046 8.50297 16.668 9.16602 16.668H10.8327C11.4957 16.668 12.1316 16.9314 12.6004 17.4002C13.0693 17.869 13.3327 18.5049 13.3327 19.168C13.3327 19.831 13.0693 20.4669 12.6004 20.9357C12.1316 21.4046 11.4957 21.668 10.8327 21.668H6.66602" stroke="#099CBC" stroke-width="2" stroke-linecap="round" stroke-linejoin="round"/>
<path d="M10 23.3333V21.6667M16.6667 28.3333H26.6667H16.6667ZM10 11.6667V10V11.6667Z" stroke="#099CBC" stroke-width="2" stroke-linecap="round" stroke-linejoin="round"/>
</svg>
