<svg xmlns="http://www.w3.org/2000/svg" width="20" height="20" viewBox="0 0 20 20" fill="none">
<path d="M17.5 17.5L13.8833 13.8833M15.8333 9.16667C15.8333 10.4852 15.4423 11.7741 14.7098 12.8705C13.9773 13.9668 12.9361 14.8213 11.7179 15.3259C10.4997 15.8304 9.15927 15.9625 7.86607 15.7052C6.57286 15.448 5.38497 14.8131 4.45262 13.8807C3.52027 12.9484 2.88534 11.7605 2.6281 10.4673C2.37087 9.17406 2.50289 7.83362 3.00747 6.61544C3.51206 5.39727 4.36654 4.35608 5.46287 3.62354C6.5592 2.89099 7.84813 2.5 9.16667 2.5C10.9348 2.5 12.6305 3.20238 13.8807 4.45262C15.131 5.70286 15.8333 7.39856 15.8333 9.16667Z" stroke="#8F9096" stroke-width="1.4" stroke-linecap="round" stroke-linejoin="round"/>
</svg>