<svg width="20" height="20" viewBox="0 0 20 20" fill="none" xmlns="http://www.w3.org/2000/svg">
<path d="M14.4166 7.66602C14.1968 7.66288 13.9872 7.57303 13.8333 7.41602C13.6781 7.25988 13.591 7.04867 13.591 6.82852C13.591 6.60836 13.6781 6.39715 13.8333 6.24102L15.075 4.99935C15.1527 4.92165 15.2449 4.86002 15.3464 4.81797C15.448 4.77592 15.5568 4.75427 15.6666 4.75427C15.7765 4.75427 15.8853 4.77592 15.9869 4.81797C16.0884 4.86002 16.1806 4.92165 16.2583 4.99935C16.336 5.07705 16.3976 5.16929 16.4397 5.27081C16.4817 5.37233 16.5034 5.48113 16.5034 5.59102C16.5034 5.7009 16.4817 5.80971 16.4397 5.91122C16.3976 6.01274 16.336 6.10498 16.2583 6.18268L15 7.41602C14.8461 7.57303 14.6365 7.66288 14.4166 7.66602ZM6.16665 7.41602C6.32186 7.25988 6.40897 7.04867 6.40897 6.82852C6.40897 6.60836 6.32186 6.39715 6.16665 6.24102L4.92498 4.99935C4.76917 4.84243 4.5574 4.75383 4.33626 4.75305C4.11512 4.75227 3.90273 4.83937 3.74581 4.99518C3.58889 5.151 3.5003 5.36277 3.49952 5.5839C3.49874 5.80504 3.58583 6.01743 3.74165 6.17435L4.99998 7.41602C5.07716 7.49476 5.1692 7.5574 5.27076 7.60031C5.37232 7.64323 5.48139 7.66556 5.59165 7.66602C5.80855 7.66071 6.01483 7.57103 6.16665 7.41602ZM10.8333 4.99935V3.33268H12.5C12.721 3.33268 12.933 3.24489 13.0892 3.0886C13.2455 2.93232 13.3333 2.72036 13.3333 2.49935C13.3333 2.27834 13.2455 2.06637 13.0892 1.91009C12.933 1.75381 12.721 1.66602 12.5 1.66602H7.49998C7.27897 1.66602 7.06701 1.75381 6.91073 1.91009C6.75444 2.06637 6.66665 2.27834 6.66665 2.49935C6.66665 2.72036 6.75444 2.93232 6.91073 3.0886C7.06701 3.24489 7.27897 3.33268 7.49998 3.33268H9.16665V4.99935C9.16665 5.22036 9.25445 5.43232 9.41073 5.5886C9.56701 5.74488 9.77897 5.83268 9.99998 5.83268C10.221 5.83268 10.433 5.74488 10.5892 5.5886C10.7455 5.43232 10.8333 5.22036 10.8333 4.99935Z" fill="#E0990C"/>
<path d="M16.5832 11.2493C16.5832 14.8852 13.6357 17.8327 9.99984 17.8327C6.36396 17.8327 3.4165 14.8852 3.4165 11.2493C3.4165 7.61347 6.36396 4.66602 9.99984 4.66602C13.6357 4.66602 16.5832 7.61347 16.5832 11.2493Z" fill="white" stroke="#E0990C"/>
<path d="M10 12.9173C9.75277 12.9173 9.5111 12.9906 9.30554 13.128C9.09998 13.2653 8.93976 13.4606 8.84515 13.689C8.75054 13.9174 8.72579 14.1687 8.77402 14.4112C8.82225 14.6537 8.9413 14.8764 9.11612 15.0512C9.29093 15.226 9.51366 15.3451 9.75614 15.3933C9.99861 15.4415 10.2499 15.4168 10.4784 15.3222C10.7068 15.2276 10.902 15.0673 11.0393 14.8618C11.1767 14.6562 11.25 14.4145 11.25 14.1673C11.25 13.8358 11.1183 13.5179 10.8839 13.2834C10.6495 13.049 10.3315 12.9173 10 12.9173ZM10.8333 10.4173V7.91732C10.8333 7.6963 10.7455 7.48434 10.5893 7.32806C10.433 7.17178 10.221 7.08398 10 7.08398C9.77899 7.08398 9.56703 7.17178 9.41075 7.32806C9.25446 7.48434 9.16667 7.6963 9.16667 7.91732V10.4173C9.16667 10.6383 9.25446 10.8503 9.41075 11.0066C9.56703 11.1629 9.77899 11.2507 10 11.2507C10.221 11.2507 10.433 11.1629 10.5893 11.0066C10.7455 10.8503 10.8333 10.6383 10.8333 10.4173Z" fill="#E0990C"/>
</svg>
