<svg width="20" height="20" viewBox="0 0 20 20" fill="none" xmlns="http://www.w3.org/2000/svg">
<path d="M17.5 10C17.5 11.4834 17.0601 12.9334 16.236 14.1668C15.4119 15.4001 14.2406 16.3614 12.8701 16.9291C11.4997 17.4968 9.99168 17.6453 8.53682 17.3559C7.08197 17.0665 5.74559 16.3522 4.6967 15.3033C3.6478 14.2544 2.9335 12.918 2.64411 11.4632C2.35472 10.0083 2.50325 8.50032 3.0709 7.12987C3.63856 5.75943 4.59985 4.58809 5.83322 3.76398C7.06659 2.93987 8.51664 2.5 10 2.5" fill="white"/>
<path d="M17.5 10C17.5 11.4834 17.0601 12.9334 16.236 14.1668C15.4119 15.4001 14.2406 16.3614 12.8701 16.9291C11.4997 17.4968 9.99168 17.6453 8.53682 17.3559C7.08197 17.0665 5.74559 16.3522 4.6967 15.3033C3.6478 14.2544 2.9335 12.918 2.64411 11.4632C2.35472 10.0083 2.50325 8.50032 3.0709 7.12987C3.63856 5.75943 4.59985 4.58809 5.83322 3.76398C7.06659 2.93987 8.51664 2.5 10 2.5" stroke="#299E58" stroke-width="2" stroke-linecap="round" stroke-linejoin="round"/>
<path d="M11.4833 10.875L9.16667 10.8333V8.51667L14.525 3.15834C14.6811 3.00313 14.8923 2.91601 15.1125 2.91601C15.3327 2.91601 15.5439 3.00313 15.7 3.15834L16.8833 4.34167C17.0385 4.4978 17.1257 4.70901 17.1257 4.92917C17.1257 5.14932 17.0385 5.36053 16.8833 5.51667L11.4833 10.875Z" stroke="#299E58" stroke-width="2" stroke-linecap="round" stroke-linejoin="round"/>
</svg>
