<svg width="25" height="24" viewBox="0 0 25 24" fill="none" xmlns="http://www.w3.org/2000/svg">
<g clip-path="url(#clip0_10_374)">
<path d="M12.875 0C6.245 0 0.875 5.37 0.875 12C0.875 17.31 4.31 21.795 9.08 23.385C9.68 23.49 9.905 23.13 9.905 22.815C9.905 22.53 9.89 21.585 9.89 20.58C6.875 21.135 6.095 19.845 5.855 19.17C5.72 18.825 5.135 17.76 4.625 17.475C4.205 17.25 3.605 16.695 4.61 16.68C5.555 16.665 6.23 17.55 6.455 17.91C7.535 19.725 9.26 19.215 9.95 18.9C10.055 18.12 10.37 17.595 10.715 17.295C8.045 16.995 5.255 15.96 5.255 11.37C5.255 10.065 5.72 8.985 6.485 8.145C6.365 7.845 5.945 6.615 6.605 4.965C6.605 4.965 7.61 4.65 9.905 6.195C10.865 5.925 11.885 5.79 12.905 5.79C13.925 5.79 14.945 5.925 15.905 6.195C18.2 4.635 19.205 4.965 19.205 4.965C19.865 6.615 19.445 7.845 19.325 8.145C20.09 8.985 20.555 10.05 20.555 11.37C20.555 15.975 17.75 16.995 15.08 17.295C15.515 17.67 15.89 18.39 15.89 19.515C15.89 21.12 15.875 22.41 15.875 22.815C15.875 23.13 16.1 23.505 16.7 23.385C19.0823 22.581 21.1525 21.05 22.619 19.0076C24.0856 16.9653 24.8746 14.5144 24.875 12C24.875 5.37 19.505 0 12.875 0Z" fill="#099CBC"/>
</g>
<defs>
<clipPath id="clip0_10_374">
<rect width="24" height="24" fill="white" transform="translate(0.875)"/>
</clipPath>
</defs>
</svg>
