<svg width="20" height="20" viewBox="0 0 20 20" fill="none" xmlns="http://www.w3.org/2000/svg">
<path d="M12.5 9.16667V10.8333M13.3333 5.83333H6.66667V3.33333C6.66667 3.11232 6.75446 2.90036 6.91074 2.74408C7.06702 2.5878 7.27899 2.5 7.5 2.5H12.5C12.721 2.5 12.933 2.5878 13.0893 2.74408C13.2455 2.90036 13.3333 3.11232 13.3333 3.33333V5.83333ZM17.5 16.6667V6.66667C17.5 6.44565 17.4122 6.23369 17.2559 6.07741C17.0996 5.92113 16.8877 5.83333 16.6667 5.83333H3.33333C3.11232 5.83333 2.90036 5.92113 2.74408 6.07741C2.5878 6.23369 2.5 6.44565 2.5 6.66667V16.6667C2.5 16.8877 2.5878 17.0996 2.74408 17.2559C2.90036 17.4122 3.11232 17.5 3.33333 17.5H16.6667C16.8877 17.5 17.0996 17.4122 17.2559 17.2559C17.4122 17.0996 17.5 16.8877 17.5 16.6667ZM14.1667 9.16667H5.83333H14.1667Z" stroke="#8F9096" stroke-linecap="round" stroke-linejoin="round"/>
</svg>
