<svg width="20" height="20" viewBox="0 0 20 20" fill="none" xmlns="http://www.w3.org/2000/svg">
<path d="M13.3333 7.5V5.83333C13.3333 4.94928 12.9821 4.10143 12.357 3.47631C11.7319 2.85119 10.8841 2.5 10 2.5C9.11595 2.5 8.2681 2.85119 7.64298 3.47631C7.01786 4.10143 6.66667 4.94928 6.66667 5.83333V7.5M11.25 12.0833C11.25 12.3306 11.1767 12.5722 11.0393 12.7778C10.902 12.9834 10.7068 13.1436 10.4784 13.2382C10.25 13.3328 9.99862 13.3575 9.75614 13.3093C9.51367 13.2611 9.29094 13.142 9.11612 12.9672C8.94131 12.7924 8.82225 12.5697 8.77402 12.3272C8.72579 12.0847 8.75055 11.8334 8.84516 11.605C8.93976 11.3766 9.09998 11.1813 9.30554 11.044C9.5111 10.9066 9.75278 10.8333 10 10.8333C10.3315 10.8333 10.6495 10.965 10.8839 11.1994C11.1183 11.4339 11.25 11.7518 11.25 12.0833ZM10 14.1667V13.3333V14.1667ZM15.8333 16.6667V8.33333C15.8333 8.11232 15.7455 7.90036 15.5893 7.74408C15.433 7.5878 15.221 7.5 15 7.5H5.00001C4.77899 7.5 4.56703 7.5878 4.41075 7.74408C4.25447 7.90036 4.16667 8.11232 4.16667 8.33333V16.6667C4.16667 16.8877 4.25447 17.0996 4.41075 17.2559C4.56703 17.4122 4.77899 17.5 5.00001 17.5H15C15.221 17.5 15.433 17.4122 15.5893 17.2559C15.7455 17.0996 15.8333 16.8877 15.8333 16.6667Z" stroke="#8F9096" stroke-linecap="round" stroke-linejoin="round"/>
</svg>
