<svg width="30" height="30" viewBox="0 0 24 24" fill="none" xmlns="http://www.w3.org/2000/svg">
<path d="M15.9998 12C15.9998 17 14.2098 21 11.9998 21C9.78978 21 7.99978 17 7.99978 12C7.99978 7 9.78978 3 11.9998 3C14.2098 3 15.9998 7 15.9998 12ZM4.24978 16.75C5.34978 18.75 9.70978 18.29 13.9898 15.66C18.2698 13.03 20.8398 9.27 19.7498 7.25C18.6598 5.23 14.2898 5.71 9.99978 8.34C5.70978 10.97 3.15978 14.73 4.24978 16.75ZM19.7498 16.75C20.8398 14.75 18.2698 10.97 13.9898 8.34C9.70978 5.71 5.34978 5.22 4.24978 7.25C3.14978 9.28 5.72978 13 9.99978 15.66C14.2698 18.32 18.6498 18.78 19.7498 16.75Z" stroke="#099CBC" stroke-width="2" stroke-linecap="round" stroke-linejoin="round"/>
<path d="M11.9502 12H12.0502" stroke="#099CBC" stroke-width="3" stroke-linecap="round" stroke-linejoin="round"/>
</svg>
