<svg width="24" height="24" viewBox="0 0 24 24" fill="none" xmlns="http://www.w3.org/2000/svg">
<path d="M12 15C15.3137 15 18 12.3137 18 9C18 5.68629 15.3137 3 12 3C8.68629 3 6 5.68629 6 9C6 12.3137 8.68629 15 12 15Z" stroke="#09212F" stroke-width="2" stroke-linecap="round" stroke-linejoin="round"/>
<path d="M8 13.6999C6.80693 14.2658 5.79826 15.1577 5.09047 16.2724C4.38268 17.3872 4.00464 18.6794 4 19.9999C4 20.2651 4.10536 20.5195 4.29289 20.707C4.48043 20.8946 4.73478 20.9999 5 20.9999H19C19.2652 20.9999 19.5196 20.8946 19.7071 20.707C19.8946 20.5195 20 20.2651 20 19.9999C20.001 18.6743 19.6257 17.3757 18.9175 16.2551C18.2094 15.1345 17.1977 14.238 16 13.6699" stroke="black" stroke-width="2" stroke-linecap="round" stroke-linejoin="round"/>
</svg>
