<svg width="16" height="17" viewBox="0 0 16 17" fill="none" xmlns="http://www.w3.org/2000/svg">
<path fill-rule="evenodd" clip-rule="evenodd" d="M12 8.5C12 8.36739 11.9473 8.24021 11.8536 8.14645C11.7598 8.05268 11.6326 8 11.5 8H5.707L7.854 5.854C7.94789 5.76011 8.00063 5.63278 8.00063 5.5C8.00063 5.36722 7.94789 5.23989 7.854 5.146C7.76011 5.05211 7.63278 4.99937 7.5 4.99937C7.36722 4.99937 7.23989 5.05211 7.146 5.146L4.146 8.146C4.09944 8.19245 4.06249 8.24762 4.03729 8.30837C4.01208 8.36911 3.99911 8.43423 3.99911 8.5C3.99911 8.56577 4.01208 8.63089 4.03729 8.69163C4.06249 8.75238 4.09944 8.80755 4.146 8.854L7.146 11.854C7.23989 11.9479 7.36722 12.0006 7.5 12.0006C7.63278 12.0006 7.76011 11.9479 7.854 11.854C7.94789 11.7601 8.00063 11.6328 8.00063 11.5C8.00063 11.3672 7.94789 11.2399 7.854 11.146L5.707 9H11.5C11.6326 9 11.7598 8.94732 11.8536 8.85355C11.9473 8.75979 12 8.63261 12 8.5Z" fill="#09212F"/>
</svg>
