<svg width="16" height="16" viewBox="0 0 16 16" fill="none" xmlns="http://www.w3.org/2000/svg">
<path d="M8.66699 8.66667H7.33366C7.15685 8.66667 6.98728 8.59643 6.86226 8.4714C6.73723 8.34638 6.66699 8.17681 6.66699 8V2.66667C6.66699 2.48986 6.73723 2.32029 6.86226 2.19526C6.98728 2.07024 7.15685 2 7.33366 2H8.66699C8.8438 2 9.01337 2.07024 9.1384 2.19526C9.26342 2.32029 9.33366 2.48986 9.33366 2.66667V8C9.33366 8.17681 9.26342 8.34638 9.1384 8.4714C9.01337 8.59643 8.8438 8.66667 8.66699 8.66667ZM9.33366 12.6667C9.33366 12.403 9.25546 12.1452 9.10895 11.9259C8.96244 11.7066 8.75421 11.5357 8.51057 11.4348C8.26694 11.3339 7.99885 11.3075 7.74021 11.359C7.48156 11.4104 7.24399 11.5374 7.05752 11.7239C6.87105 11.9103 6.74406 12.1479 6.69261 12.4065C6.64117 12.6652 6.66757 12.9333 6.76849 13.1769C6.8694 13.4205 7.0403 13.6288 7.25957 13.7753C7.47883 13.9218 7.73662 14 8.00033 14C8.35395 14 8.69309 13.8595 8.94313 13.6095C9.19318 13.3594 9.33366 13.0203 9.33366 12.6667Z" stroke="#8F9096" stroke-linecap="round" stroke-linejoin="round"/>
</svg>
