<svg width="828" height="936" viewBox="0 0 828 936" fill="none" xmlns="http://www.w3.org/2000/svg">
<mask id="mask0_10_295" style="mask-type:alpha" maskUnits="userSpaceOnUse" x="0" y="0" width="828" height="936">
<rect width="828" height="936" fill="#3B656B"/>
</mask>
<g mask="url(#mask0_10_295)">
<rect width="828" height="936" fill="#3B656B"/>
<path d="M753.269 505.79L685.254 140.344L1032.44 260.551L1097.01 625.175L753.269 505.79Z" fill="url(#paint0_radial_10_295)" fill-opacity="0.2" style="mix-blend-mode:screen"/>
<path d="M675.879 149.011L406.758 380.476L475.257 738.588L738.475 510.44L675.879 149.011Z" fill="url(#paint1_radial_10_295)" fill-opacity="0.2" style="mix-blend-mode:screen"/>
<path d="M1087.78 635.512L820.699 864.556L486.409 743.79L748.656 517.409L1087.78 635.512Z" fill="url(#paint2_radial_10_295)" fill-opacity="0.2" style="mix-blend-mode:screen"/>
<path d="M197.799 744.725L220.738 568.433L361.044 673.92L336.657 849.333L197.799 744.725Z" fill="url(#paint3_radial_10_295)" fill-opacity="0.2" style="mix-blend-mode:screen"/>
<path d="M215.192 571.007L58.5549 637.013L36.9184 810.036L190.379 744.678L215.192 571.007Z" fill="url(#paint4_radial_10_295)" fill-opacity="0.2" style="mix-blend-mode:screen"/>
<path d="M330.931 852.688L175.58 917.89L41.2274 814.035L193.986 749.339L330.931 852.688Z" fill="url(#paint5_radial_10_295)" fill-opacity="0.2" style="mix-blend-mode:screen"/>
<path d="M318.071 103.035L298.885 9.91763L388.255 38.9657L406.555 131.89L318.071 103.035Z" fill="url(#paint6_radial_10_295)" fill-opacity="0.2" style="mix-blend-mode:screen"/>
<path d="M296.53 12.1795L228.849 72.6779L248.123 163.918L314.311 104.296L296.53 12.1795Z" fill="url(#paint7_radial_10_295)" fill-opacity="0.2" style="mix-blend-mode:screen"/>
<path d="M404.246 134.578L337.075 194.448L251.001 165.194L316.949 106.029L404.246 134.578Z" fill="url(#paint8_radial_10_295)" fill-opacity="0.2" style="mix-blend-mode:screen"/>
<path d="M231.594 594.729L348.837 680.129L329.885 829.063" stroke="white" stroke-opacity="0.2"/>
<ellipse cx="4.24227" cy="4.22441" rx="4.24227" ry="4.22441" transform="matrix(-0.997415 0.0718578 0.0724701 0.997371 352.301 675.42)" fill="white" fill-opacity="0.2"/>
<ellipse cx="2.23277" cy="2.22337" rx="2.23277" ry="2.22337" transform="matrix(-0.997415 0.0718578 0.0724701 0.997371 233.454 592.59)" fill="white" fill-opacity="0.2"/>
<ellipse cx="2.23277" cy="2.22337" rx="2.23277" ry="2.22337" transform="matrix(-0.997415 0.0718578 0.0724701 0.997371 233.454 592.59)" fill="white" fill-opacity="0.2"/>
<ellipse cx="2.23277" cy="2.22337" rx="2.23277" ry="2.22337" transform="matrix(-0.997415 0.0718578 0.0724701 0.997371 331.951 826.683)" fill="white" fill-opacity="0.2"/>
<ellipse cx="2.45605" cy="2.44571" rx="2.45605" ry="2.44571" transform="matrix(-0.997415 0.0718578 0.0724701 0.997371 350.648 677.323)" fill="white" fill-opacity="0.8"/>
<ellipse cx="1.33967" cy="1.33402" rx="1.33967" ry="1.33402" transform="matrix(-0.997415 0.0718578 0.0724701 0.997371 232.627 593.54)" fill="white" fill-opacity="0.8"/>
<ellipse cx="1.33967" cy="1.33402" rx="1.33967" ry="1.33402" transform="matrix(-0.997415 0.0718578 0.0724701 0.997371 232.627 593.54)" fill="white" fill-opacity="0.8"/>
<ellipse cx="1.33967" cy="1.33402" rx="1.33967" ry="1.33402" transform="matrix(-0.997415 0.0718578 0.0724701 0.997371 331.125 827.636)" fill="white" fill-opacity="0.8"/>
<path d="M376.076 150.457L335.742 186.61L282.5 168.311" stroke="white" stroke-opacity="0.2"/>
<ellipse cx="1.57827" cy="1.58477" rx="1.57827" ry="1.58477" transform="matrix(0.134257 -0.990947 -0.991098 -0.133137 337.206 188.231)" fill="white" fill-opacity="0.2"/>
<ellipse cx="0.830667" cy="0.834089" rx="0.830667" ry="0.834089" transform="matrix(0.134257 -0.990947 -0.991098 -0.133137 376.719 151.297)" fill="white" fill-opacity="0.2"/>
<ellipse cx="0.830667" cy="0.834089" rx="0.830667" ry="0.834089" transform="matrix(0.134257 -0.990947 -0.991098 -0.133137 376.719 151.297)" fill="white" fill-opacity="0.2"/>
<ellipse cx="0.830667" cy="0.834089" rx="0.830667" ry="0.834089" transform="matrix(0.134257 -0.990947 -0.991098 -0.133137 283.215 169.244)" fill="white" fill-opacity="0.2"/>
<ellipse cx="0.913733" cy="0.917498" rx="0.913733" ry="0.917498" transform="matrix(0.134257 -0.990947 -0.991098 -0.133137 336.633 187.484)" fill="white" fill-opacity="0.8"/>
<ellipse cx="0.4984" cy="0.500454" rx="0.4984" ry="0.500454" transform="matrix(0.134257 -0.990947 -0.991098 -0.133137 376.434 150.924)" fill="white" fill-opacity="0.8"/>
<ellipse cx="0.4984" cy="0.500454" rx="0.4984" ry="0.500454" transform="matrix(0.134257 -0.990947 -0.991098 -0.133137 376.434 150.924)" fill="white" fill-opacity="0.8"/>
<ellipse cx="0.4984" cy="0.500454" rx="0.4984" ry="0.500454" transform="matrix(0.134257 -0.990947 -0.991098 -0.133137 282.929 168.871)" fill="white" fill-opacity="0.8"/>
<path d="M664.5 173.5L416.5 384L483 715" stroke="white" stroke-opacity="0.2"/>
<circle cx="417.5" cy="383.5" r="17.5" fill="white" fill-opacity="0.2"/>
<circle cx="417.5" cy="383.5" r="30" stroke="white" stroke-opacity="0.2"/>
<circle cx="665" cy="174" r="5" fill="white" fill-opacity="0.2"/>
<circle cx="665" cy="174" r="5" fill="white" fill-opacity="0.2"/>
<circle cx="483" cy="715" r="5" fill="white" fill-opacity="0.2"/>
<circle cx="417.5" cy="383.5" r="5.5" fill="white" fill-opacity="0.8"/>
<circle cx="665" cy="174" r="3" fill="white" fill-opacity="0.8"/>
<circle cx="665" cy="174" r="3" fill="white" fill-opacity="0.8"/>
<circle cx="483" cy="715" r="3" fill="white" fill-opacity="0.8"/>
</g>
<defs>
<radialGradient id="paint0_radial_10_295" cx="0" cy="0" r="1" gradientUnits="userSpaceOnUse" gradientTransform="translate(837.295 969.957) rotate(-100.387) scale(475.346 542.57)">
<stop offset="0.0343576" stop-color="#113B41"/>
<stop offset="0.557265" stop-color="#113B41"/>
<stop offset="0.875" stop-color="#265056"/>
</radialGradient>
<radialGradient id="paint1_radial_10_295" cx="0" cy="0" r="1" gradientUnits="userSpaceOnUse" gradientTransform="translate(837.295 969.957) rotate(-100.387) scale(475.346 542.57)">
<stop offset="0.0343576" stop-color="#113B41"/>
<stop offset="0.557265" stop-color="#113B41"/>
<stop offset="0.875" stop-color="#265056"/>
</radialGradient>
<radialGradient id="paint2_radial_10_295" cx="0" cy="0" r="1" gradientUnits="userSpaceOnUse" gradientTransform="translate(837.295 969.957) rotate(-100.387) scale(475.346 542.57)">
<stop offset="0.0343576" stop-color="#113B41"/>
<stop offset="0.557265" stop-color="#113B41"/>
<stop offset="0.875" stop-color="#265056"/>
</radialGradient>
<radialGradient id="paint3_radial_10_295" cx="0" cy="0" r="1" gradientUnits="userSpaceOnUse" gradientTransform="translate(167.589 968.294) rotate(-82.4305) scale(227.338 259.522)">
<stop offset="0.0343576" stop-color="#113B41"/>
<stop offset="0.557265" stop-color="#113B41"/>
<stop offset="0.875" stop-color="#265056"/>
</radialGradient>
<radialGradient id="paint4_radial_10_295" cx="0" cy="0" r="1" gradientUnits="userSpaceOnUse" gradientTransform="translate(167.589 968.294) rotate(-82.4305) scale(227.338 259.522)">
<stop offset="0.0343576" stop-color="#113B41"/>
<stop offset="0.557265" stop-color="#113B41"/>
<stop offset="0.875" stop-color="#265056"/>
</radialGradient>
<radialGradient id="paint5_radial_10_295" cx="0" cy="0" r="1" gradientUnits="userSpaceOnUse" gradientTransform="translate(167.589 968.294) rotate(-82.4305) scale(227.338 259.522)">
<stop offset="0.0343576" stop-color="#113B41"/>
<stop offset="0.557265" stop-color="#113B41"/>
<stop offset="0.875" stop-color="#265056"/>
</radialGradient>
<radialGradient id="paint6_radial_10_295" cx="0" cy="0" r="1" gradientUnits="userSpaceOnUse" gradientTransform="translate(341.837 221.319) rotate(-101.487) scale(121.577 138.763)">
<stop offset="0.0343576" stop-color="#113B41"/>
<stop offset="0.557265" stop-color="#113B41"/>
<stop offset="0.875" stop-color="#265056"/>
</radialGradient>
<radialGradient id="paint7_radial_10_295" cx="0" cy="0" r="1" gradientUnits="userSpaceOnUse" gradientTransform="translate(341.837 221.319) rotate(-101.487) scale(121.577 138.763)">
<stop offset="0.0343576" stop-color="#113B41"/>
<stop offset="0.557265" stop-color="#113B41"/>
<stop offset="0.875" stop-color="#265056"/>
</radialGradient>
<radialGradient id="paint8_radial_10_295" cx="0" cy="0" r="1" gradientUnits="userSpaceOnUse" gradientTransform="translate(341.837 221.319) rotate(-101.487) scale(121.577 138.763)">
<stop offset="0.0343576" stop-color="#113B41"/>
<stop offset="0.557265" stop-color="#113B41"/>
<stop offset="0.875" stop-color="#265056"/>
</radialGradient>
</defs>
</svg>
