<svg width="24" height="24" viewBox="0 0 24 24" fill="none" xmlns="http://www.w3.org/2000/svg">
<path d="M21 19H3V5H21V19ZM21 5H17C17 6.06087 17.4214 7.07828 18.1716 7.82843C18.9217 8.57857 19.9391 9 21 9V5ZM3 9C4.06087 9 5.07828 8.57857 5.82843 7.82843C6.57857 7.07828 7 6.06087 7 5H3V9ZM21 15C19.9391 15 18.9217 15.4214 18.1716 16.1716C17.4214 16.9217 17 17.9391 17 19H21V15ZM3 19H7C7 17.9391 6.57857 16.9217 5.82843 16.1716C5.07828 15.4214 4.06087 15 3 15V15V19ZM12 10C11.6044 10 11.2178 10.1173 10.8889 10.3371C10.56 10.5568 10.3036 10.8692 10.1522 11.2346C10.0009 11.6001 9.96126 12.0022 10.0384 12.3902C10.1156 12.7781 10.3061 13.1345 10.5858 13.4142C10.8655 13.6939 11.2219 13.8844 11.6098 13.9616C11.9978 14.0387 12.3999 13.9991 12.7654 13.8478C13.1308 13.6964 13.4432 13.44 13.6629 13.1111C13.8827 12.7822 14 12.3956 14 12C14 11.4696 13.7893 10.9609 13.4142 10.5858C13.0391 10.2107 12.5304 10 12 10Z" stroke="#09212F" stroke-width="2" stroke-linecap="round" stroke-linejoin="round"/>
</svg>
