<svg width="41" height="40" viewBox="0 0 41 40" fill="none" xmlns="http://www.w3.org/2000/svg">
<path d="M27 21.668H31.1667C31.8297 21.668 32.4656 21.4046 32.9344 20.9357C33.4033 20.4669 33.6667 19.831 33.6667 19.168C33.6667 18.5049 33.4033 17.869 32.9344 17.4002C32.4656 16.9314 31.8297 16.668 31.1667 16.668H29.5C28.837 16.668 28.2011 16.4046 27.7322 15.9357C27.2634 15.4669 27 14.831 27 14.168C27 13.5049 27.2634 12.869 27.7322 12.4002C28.2011 11.9314 28.837 11.668 29.5 11.668H33.6667" stroke="#299E58" stroke-width="2" stroke-linecap="round" stroke-linejoin="round"/>
<path d="M23.6667 5H8.66667C8.22464 5 7.80072 5.17559 7.48816 5.48816C7.1756 5.80072 7 6.22464 7 6.66667V35L10.9 33.3333L14.7833 35L18.6667 33.3333L22.55 35L26.4333 33.3333L30.3333 35V30" stroke="#299E58" stroke-width="2" stroke-linecap="round" stroke-linejoin="round"/>
<path d="M20.3346 18.3333H13.668M30.3346 11.6667V10V11.6667ZM30.3346 23.3333V21.6667V23.3333ZM20.3346 25H13.668H20.3346Z" stroke="#299E58" stroke-width="2" stroke-linecap="round" stroke-linejoin="round"/>
</svg>
