<svg width="20" height="21" viewBox="0 0 20 21" fill="none" xmlns="http://www.w3.org/2000/svg">
<path d="M8.33398 12.1667V3C10.7611 3.01313 13.085 3.98312 14.8013 5.69936C16.5175 7.41561 17.4875 9.73956 17.5007 12.1667C17.4998 14.3144 16.7447 16.3937 15.3673 18.0417L8.33398 12.1667Z" stroke="#8F9096" stroke-linecap="round" stroke-linejoin="round"/>
<path d="M12.9414 16.0161C12.2767 16.7512 11.4399 17.3099 10.5062 17.6422C9.57242 17.9744 8.57084 18.0699 7.59115 17.9199C6.61146 17.77 5.68426 17.3794 4.89261 16.7831C4.10097 16.1868 3.4696 15.4034 3.05508 14.5032C2.64057 13.6029 2.45584 12.6139 2.51745 11.6247C2.57906 10.6356 2.88509 9.67712 3.40812 8.83527C3.93114 7.99342 4.65483 7.29445 5.51435 6.801C6.37387 6.30754 7.34238 6.03501 8.3331 6.00781" stroke="#8F9096" stroke-linecap="round" stroke-linejoin="round"/>
</svg>
