<svg width="25" height="24" viewBox="0 0 25 24" fill="none" xmlns="http://www.w3.org/2000/svg">
<path d="M10.97 9.28877L15.21 13.5288L7.74 20.9988H3.5V16.7588L10.97 9.28877ZM20.91 6.40877L18.09 3.58877C17.997 3.49504 17.8864 3.42064 17.7646 3.36988C17.6427 3.31911 17.512 3.29297 17.38 3.29297C17.248 3.29297 17.1173 3.31911 16.9954 3.36988C16.8736 3.42064 16.763 3.49504 16.67 3.58877L13.79 6.46877L18.03 10.7088L20.91 7.82877C21.0037 7.7358 21.0781 7.6252 21.1289 7.50334C21.1797 7.38148 21.2058 7.25078 21.2058 7.11877C21.2058 6.98676 21.1797 6.85605 21.1289 6.73419C21.0781 6.61233 21.0037 6.50173 20.91 6.40877V6.40877Z" stroke="#099CBC" stroke-width="2" stroke-linecap="round" stroke-linejoin="round"/>
</svg>
