<svg width="20" height="20" viewBox="0 0 20 20" fill="none" xmlns="http://www.w3.org/2000/svg">
<path d="M13.334 8.75L11.7423 10.8333L10.834 9.79167" stroke="#8F9096" stroke-linecap="round" stroke-linejoin="round"/>
<path d="M5 15V16.6667C5 16.8877 5.0878 17.0996 5.24408 17.2559C5.40036 17.4122 5.61232 17.5 5.83333 17.5H15.8333C16.0543 17.5 16.2663 17.4122 16.4226 17.2559C16.5789 17.0996 16.6667 16.8877 16.6667 16.6667V3.33333C16.6667 3.11232 16.5789 2.90036 16.4226 2.74408C16.2663 2.5878 16.0543 2.5 15.8333 2.5H7.5" stroke="#8F9096" stroke-linecap="round" stroke-linejoin="round"/>
<path d="M6.66732 5.83203H4.58398C4.25246 5.83203 3.93452 5.96373 3.7001 6.19815C3.46568 6.43257 3.33398 6.75051 3.33398 7.08203C3.33398 7.41355 3.46568 7.73149 3.7001 7.96591C3.93452 8.20034 4.25246 8.33203 4.58398 8.33203H5.41732C5.74884 8.33203 6.06678 8.46373 6.3012 8.69815C6.53562 8.93257 6.66732 9.25051 6.66732 9.58203C6.66732 9.91355 6.53562 10.2315 6.3012 10.4659C6.06678 10.7003 5.74884 10.832 5.41732 10.832H3.33398" stroke="#8F9096" stroke-linecap="round" stroke-linejoin="round"/>
<path d="M5 11.6667V10.8333M8.33333 14.1667H13.3333H8.33333ZM5 5.83333V5V5.83333Z" stroke="#8F9096" stroke-linecap="round" stroke-linejoin="round"/>
</svg>
