<svg width="20" height="20" viewBox="0 0 20 20" fill="none" xmlns="http://www.w3.org/2000/svg">
<path d="M16.6667 17.5013H3.33333C3.11232 17.5013 2.90036 17.4135 2.74408 17.2572C2.5878 17.1009 2.5 16.889 2.5 16.668V8.33464H17.5V16.668C17.5 16.889 17.4122 17.1009 17.2559 17.2572C17.0996 17.4135 16.8877 17.5013 16.6667 17.5013ZM17.5 5.0013C17.5 4.78029 17.4122 4.56833 17.2559 4.41205C17.0996 4.25577 16.8877 4.16797 16.6667 4.16797H3.33333C3.11232 4.16797 2.90036 4.25577 2.74408 4.41205C2.5878 4.56833 2.5 4.78029 2.5 5.0013V8.33464H17.5V5.0013Z" stroke="#8F9096" stroke-linecap="round" stroke-linejoin="round"/>
<path d="M13.334 2.5V5.83333" stroke="#8F9096" stroke-linecap="round" stroke-linejoin="round"/>
<path d="M6.66602 2.5V5.83333" stroke="#8F9096" stroke-linecap="round" stroke-linejoin="round"/>
</svg>
