<svg width="20" height="20" viewBox="0 0 20 20" fill="none" xmlns="http://www.w3.org/2000/svg">
<path d="M12.5 15H7.5C7.5 15.663 7.76339 16.2989 8.23223 16.7678C8.70107 17.2366 9.33696 17.5 10 17.5C10.663 17.5 11.2989 17.2366 11.7678 16.7678C12.2366 16.2989 12.5 15.663 12.5 15Z" stroke="#8F9096" stroke-linecap="round" stroke-linejoin="round"/>
<path d="M16.1507 11.9833C16.3147 12.1475 16.4447 12.3425 16.5333 12.5569C16.622 12.7714 16.6675 13.0013 16.6673 13.2333V13.2333C16.6673 13.7019 16.4812 14.1512 16.1499 14.4826C15.8186 14.8139 15.3692 15 14.9007 15H5.10065C4.6321 15 4.18274 14.8139 3.85143 14.4826C3.52012 14.1512 3.33399 13.7019 3.33399 13.2333V13.2333C3.33378 13.0013 3.3793 12.7714 3.46796 12.5569C3.55661 12.3425 3.68665 12.1475 3.85065 11.9833L5.00065 10.8333V7.5C5.00065 6.17392 5.52744 4.90215 6.46512 3.96447C7.4028 3.02678 8.67457 2.5 10.0007 2.5V2.5C11.3267 2.5 12.5985 3.02678 13.5362 3.96447C14.4739 4.90215 15.0007 6.17392 15.0007 7.5V10.8333L16.1507 11.9833Z" stroke="#8F9096" stroke-linecap="round" stroke-linejoin="round"/>
</svg>
