<svg width="20" height="21" viewBox="0 0 20 21" fill="none" xmlns="http://www.w3.org/2000/svg">
<path d="M7.49935 8H12.4993M15.8327 4.66667V17.1667C15.8327 17.3877 15.7449 17.5996 15.5886 17.7559C15.4323 17.9122 15.2204 18 14.9993 18H4.99935C4.77834 18 4.56637 17.9122 4.41009 17.7559C4.25381 17.5996 4.16602 17.3877 4.16602 17.1667V3.83333C4.16602 3.61232 4.25381 3.40036 4.41009 3.24408C4.56637 3.0878 4.77834 3 4.99935 3H14.166L15.8327 4.66667ZM14.166 3V4.66667H15.8327L14.166 3ZM12.4993 14.6667H7.49935H12.4993ZM7.49935 11.3333H12.4993H7.49935Z" stroke="#8F9096" stroke-linecap="round" stroke-linejoin="round"/>
</svg>
