<svg width="20" height="20" viewBox="0 0 20 20" fill="none" xmlns="http://www.w3.org/2000/svg">
<path d="M10 17.5C8.01088 17.5 6.10322 16.7098 4.6967 15.3033C3.29018 13.8968 2.5 11.9891 2.5 10V10C2.5 8.01088 3.29018 6.10322 4.6967 4.6967C6.10322 3.29018 8.01088 2.5 10 2.5V2.5C11.9891 2.5 13.8968 3.29018 15.3033 4.6967C16.7098 6.10322 17.5 8.01088 17.5 10V10C17.5 11.9891 16.7098 13.8968 15.3033 15.3033C13.8968 16.7098 11.9891 17.5 10 17.5V17.5ZM10 5.83333C9.34073 5.83333 8.69626 6.02883 8.1481 6.3951C7.59994 6.76137 7.17269 7.28197 6.9204 7.89105C6.66811 8.50014 6.6021 9.17036 6.73072 9.81697C6.85933 10.4636 7.1768 11.0575 7.64298 11.5237C8.10915 11.9899 8.7031 12.3073 9.3497 12.436C9.9963 12.5646 10.6665 12.4986 11.2756 12.2463C11.8847 11.994 12.4053 11.5667 12.7716 11.0186C13.1378 10.4704 13.3333 9.82594 13.3333 9.16667C13.3333 8.28261 12.9821 7.43477 12.357 6.80964C11.7319 6.18452 10.8841 5.83333 10 5.83333ZM11.8083 11.9583C11.2713 12.3114 10.6427 12.4995 10 12.4995C9.35731 12.4995 8.72868 12.3114 8.19167 11.9583C7.39813 12.2161 6.66911 12.6411 6.05383 13.2046C5.43854 13.7681 4.9513 14.4571 4.625 15.225C5.31768 15.9367 6.1448 16.5037 7.05836 16.8931C7.97192 17.2826 8.95374 17.4867 9.94682 17.4937C10.9399 17.5007 11.9245 17.3104 12.8434 16.9338C13.7624 16.5572 14.5974 16.0019 15.3 15.3L15.375 15.225C15.0487 14.4571 14.5615 13.7681 13.9462 13.2046C13.3309 12.6411 12.6019 12.2161 11.8083 11.9583V11.9583Z" stroke="#8F9096" stroke-linecap="round" stroke-linejoin="round"/>
</svg>
