<svg width="33" height="32" viewBox="0 0 33 32" fill="none" xmlns="http://www.w3.org/2000/svg">
<path d="M10.7913 4H26.7913C27.145 4 27.4841 4.14048 27.7342 4.39052C27.9842 4.64057 28.1247 4.97971 28.1247 5.33333V26.6667C28.1247 27.0203 27.9842 27.3594 27.7342 27.6095C27.4841 27.8595 27.145 28 26.7913 28H10.7913C10.4377 28 10.0986 27.8595 9.84853 27.6095C9.59848 27.3594 9.45801 27.0203 9.45801 26.6667V22.6667" stroke="#099CBC" stroke-width="2" stroke-linecap="round" stroke-linejoin="round"/>
<path d="M22.7917 15.9987V22.6654V15.9987ZM17.4583 22.6654V19.9987V22.6654ZM4.125 19.9987L7.89833 16.2254L4.125 19.9987ZM10.7917 9.33203C10.0005 9.33203 9.22718 9.56663 8.56939 10.0062C7.91159 10.4457 7.3989 11.0704 7.09615 11.8013C6.7934 12.5322 6.71418 13.3365 6.86853 14.1124C7.02287 14.8883 7.40383 15.601 7.96324 16.1605C8.52265 16.7199 9.23538 17.1008 10.0113 17.2552C10.7872 17.4095 11.5915 17.3303 12.3224 17.0275C13.0533 16.7248 13.678 16.2121 14.1175 15.5543C14.5571 14.8965 14.7917 14.1232 14.7917 13.332C14.7917 12.2712 14.3702 11.2537 13.6201 10.5036C12.8699 9.75346 11.8525 9.33203 10.7917 9.33203Z" stroke="#099CBC" stroke-width="2" stroke-linecap="round" stroke-linejoin="round"/>
</svg>
