<svg width="33" height="32" viewBox="0 0 33 32" fill="none" xmlns="http://www.w3.org/2000/svg">
<path d="M8.87533 6.66667H24.8753C25.2289 6.66667 25.5681 6.80714 25.8181 7.05719C26.0682 7.30724 26.2087 7.64638 26.2087 8V26.6667C26.2087 27.0203 26.0682 27.3594 25.8181 27.6095C25.5681 27.8595 25.2289 28 24.8753 28H8.87533C8.5217 28 8.18257 27.8595 7.93252 27.6095C7.68247 27.3594 7.54199 27.0203 7.54199 26.6667V8C7.54199 7.64638 7.68247 7.30724 7.93252 7.05719C8.18257 6.80714 8.5217 6.66667 8.87533 6.66667V6.66667ZM16.8753 12C16.3479 12 15.8323 12.1564 15.3938 12.4494C14.9553 12.7424 14.6135 13.1589 14.4116 13.6462C14.2098 14.1334 14.157 14.6696 14.2599 15.1869C14.3628 15.7042 14.6168 16.1793 14.9897 16.5523C15.3626 16.9252 15.8378 17.1792 16.3551 17.2821C16.8724 17.385 17.4085 17.3322 17.8958 17.1303C18.3831 16.9285 18.7996 16.5867 19.0926 16.1482C19.3856 15.7097 19.542 15.1941 19.542 14.6667C19.542 13.9594 19.261 13.2811 18.7609 12.781C18.2608 12.281 17.5826 12 16.8753 12ZM20.8753 21.3333C20.8753 20.2725 20.4539 19.2551 19.7038 18.5049C18.9536 17.7548 17.9362 17.3333 16.8753 17.3333C15.8145 17.3333 14.797 17.7548 14.0469 18.5049C13.2968 19.2551 12.8753 20.2725 12.8753 21.3333V22.6667H20.8753V21.3333ZM21.542 4H18.8753L17.542 6.66667H20.2087L21.542 4ZM13.542 6.66667H16.2087L14.8753 4H12.2087L13.542 6.66667Z" stroke="#099CBC" stroke-width="2" stroke-linecap="round" stroke-linejoin="round"/>
</svg>
