<svg width="33" height="32" viewBox="0 0 33 32" fill="none" xmlns="http://www.w3.org/2000/svg">
<path d="M16.875 22.6667V26.6667M27.5417 21.3333H6.20833C5.85471 21.3333 5.51557 21.1929 5.26552 20.9428C5.01548 20.6928 4.875 20.3536 4.875 20V6.66667C4.875 6.31304 5.01548 5.97391 5.26552 5.72386C5.51557 5.47381 5.85471 5.33333 6.20833 5.33333H27.5417C27.8953 5.33333 28.2344 5.47381 28.4845 5.72386C28.7345 5.97391 28.875 6.31304 28.875 6.66667V20C28.875 20.3536 28.7345 20.6928 28.4845 20.9428C28.2344 21.1929 27.8953 21.3333 27.5417 21.3333ZM24.875 28L23.9817 22.6667L23.755 21.3333L24.875 28ZM21.0883 5.33333L20.875 4L21.0883 5.33333ZM9.995 21.3333L9.76833 22.6667L8.875 28L9.995 21.3333ZM12.875 4L12.6483 5.33333L12.875 4Z" stroke="#09212F" stroke-width="2" stroke-linecap="round" stroke-linejoin="round"/>
</svg>
