<svg width="33" height="32" viewBox="0 0 33 32" fill="none" xmlns="http://www.w3.org/2000/svg">
<path d="M27.065 19.1867L26.105 26.8267C26.0657 27.1519 25.908 27.4512 25.6621 27.6677C25.4162 27.8841 25.0992 28.0024 24.7717 28H8.465C8.13742 28.0024 7.82045 27.8841 7.57453 27.6677C7.32861 27.4512 7.17096 27.1519 7.13166 26.8267L6.17166 19.1867" stroke="#09212F" stroke-width="2" stroke-linecap="round" stroke-linejoin="round"/>
<path d="M27.7183 18.9733L21.6783 20.9867C18.3979 22.0786 14.8521 22.0786 11.5717 20.9867L5.53168 18.9733C5.2557 18.8806 5.01768 18.7 4.85396 18.4592C4.69025 18.2185 4.60984 17.9308 4.62501 17.64V9.33333H28.625V17.7067C28.6257 17.9862 28.5386 18.2589 28.3759 18.4862C28.2132 18.7135 27.9832 18.8839 27.7183 18.9733ZM15.2917 16H17.9583H15.2917ZM23.2917 8C23.2917 6.93913 22.8703 5.92172 22.1201 5.17157C21.37 4.42143 20.3525 4 19.2917 4H13.9583C12.8975 4 11.8801 4.42143 11.1299 5.17157C10.3798 5.92172 9.95835 6.93913 9.95835 8V9.33333H23.2917V8Z" stroke="#09212F" stroke-width="2" stroke-linecap="round" stroke-linejoin="round"/>
</svg>
