<svg width="33" height="32" viewBox="0 0 33 32" fill="none" xmlns="http://www.w3.org/2000/svg">
<path d="M8.87502 6.66667H24.875C25.2286 6.66667 25.5678 6.80714 25.8178 7.05719C26.0679 7.30724 26.2084 7.64638 26.2084 8V26.6667C26.2084 27.0203 26.0679 27.3594 25.8178 27.6095C25.5678 27.8595 25.2286 28 24.875 28H8.87502C8.5214 28 8.18226 27.8595 7.93221 27.6095C7.68216 27.3594 7.54169 27.0203 7.54169 26.6667V8C7.54169 7.64638 7.68216 7.30724 7.93221 7.05719C8.18226 6.80714 8.5214 6.66667 8.87502 6.66667V6.66667ZM16.875 12C16.3476 12 15.832 12.1564 15.3935 12.4494C14.955 12.7424 14.6132 13.1589 14.4113 13.6462C14.2095 14.1334 14.1567 14.6696 14.2596 15.1869C14.3625 15.7042 14.6165 16.1793 14.9894 16.5523C15.3623 16.9252 15.8375 17.1792 16.3548 17.2821C16.8721 17.385 17.4082 17.3322 17.8955 17.1303C18.3828 16.9285 18.7993 16.5867 19.0923 16.1482C19.3853 15.7097 19.5417 15.1941 19.5417 14.6667C19.5417 13.9594 19.2607 13.2811 18.7606 12.781C18.2605 12.281 17.5823 12 16.875 12ZM20.875 21.3333C20.875 20.2725 20.4536 19.2551 19.7034 18.5049C18.9533 17.7548 17.9359 17.3333 16.875 17.3333C15.8142 17.3333 14.7967 17.7548 14.0466 18.5049C13.2964 19.2551 12.875 20.2725 12.875 21.3333V22.6667H20.875V21.3333ZM21.5417 4H18.875L17.5417 6.66667H20.2084L21.5417 4ZM13.5417 6.66667H16.2084L14.875 4H12.2084L13.5417 6.66667Z" stroke="#09212F" stroke-width="2" stroke-linecap="round" stroke-linejoin="round"/>
</svg>
