<svg width="33" height="32" viewBox="0 0 33 32" fill="none" xmlns="http://www.w3.org/2000/svg">
<path d="M11.2916 4H27.2916C27.6453 4 27.9844 4.14048 28.2345 4.39052C28.4845 4.64057 28.625 4.97971 28.625 5.33333V26.6667C28.625 27.0203 28.4845 27.3594 28.2345 27.6095C27.9844 27.8595 27.6453 28 27.2916 28H11.2916C10.938 28 10.5989 27.8595 10.3488 27.6095C10.0988 27.3594 9.95831 27.0203 9.95831 26.6667V22.6667" stroke="#09212F" stroke-width="2" stroke-linecap="round" stroke-linejoin="round"/>
<path d="M23.2917 16V22.6667V16ZM17.9583 22.6667V20V22.6667ZM4.625 20L8.39833 16.2267L4.625 20ZM11.2917 9.33333C10.5005 9.33333 9.72718 9.56793 9.06939 10.0075C8.41159 10.447 7.8989 11.0717 7.59615 11.8026C7.2934 12.5335 7.21418 13.3378 7.36853 14.1137C7.52287 14.8896 7.90383 15.6023 8.46324 16.1618C9.02265 16.7212 9.73538 17.1021 10.5113 17.2565C11.2872 17.4108 12.0915 17.3316 12.8224 17.0289C13.5533 16.7261 14.178 16.2134 14.6175 15.5556C15.0571 14.8978 15.2917 14.1245 15.2917 13.3333C15.2917 12.2725 14.8702 11.2551 14.1201 10.5049C13.3699 9.75476 12.3525 9.33333 11.2917 9.33333Z" stroke="black" stroke-width="2" stroke-linecap="round" stroke-linejoin="round"/>
</svg>
