<svg width="25" height="24" viewBox="0 0 25 24" fill="none" xmlns="http://www.w3.org/2000/svg">
<g clip-path="url(#clip0_10_367)">
<path d="M24.125 12.0735C24.125 5.4045 18.752 -0.00149536 12.125 -0.00149536C5.495 4.63874e-06 0.122002 5.40451 0.122002 12.075C0.122002 18.1005 4.511 23.0955 10.247 24.0015V15.564H7.202V12.075H10.25V9.4125C10.25 6.387 12.0425 4.716 14.783 4.716C16.097 4.716 17.4695 4.9515 17.4695 4.9515V7.9215H15.956C14.4665 7.9215 14.0015 8.853 14.0015 9.8085V12.0735H17.3285L16.7975 15.5625H14V24C19.736 23.094 24.125 18.099 24.125 12.0735Z" fill="#099CBC"/>
</g>
<defs>
<clipPath id="clip0_10_367">
<rect width="24" height="24" fill="white" transform="translate(0.125)"/>
</clipPath>
</defs>
</svg>
