<svg width="33" height="32" viewBox="0 0 33 32" fill="none" xmlns="http://www.w3.org/2000/svg">
<path d="M25.8333 4H7.16668C6.81305 4 6.47392 4.14048 6.22387 4.39052C5.97382 4.64057 5.83334 4.97971 5.83334 5.33333V12H15.1667C15.5203 12 15.8594 12.1405 16.1095 12.3905C16.3595 12.6406 16.5 12.9797 16.5 13.3333V20H27.1667V5.33333C27.1667 4.97971 27.0262 4.64057 26.7762 4.39052C26.5261 4.14048 26.187 4 25.8333 4V4ZM16.5 20V22.6667H27.1667C27.5203 22.6667 27.8594 22.5262 28.1095 22.2761C28.3595 22.0261 28.5 21.687 28.5 21.3333V20H16.5Z" fill="#299E58" fill-opacity="0.1" stroke="#299E58" stroke-width="2" stroke-linecap="round" stroke-linejoin="round"/>
<path d="M4.5 26.6667V13.3333C4.5 12.9797 4.64048 12.6406 4.89052 12.3905C5.14057 12.1405 5.47971 12 5.83333 12H15.1667C15.5203 12 15.8594 12.1405 16.1095 12.3905C16.3595 12.6406 16.5 12.9797 16.5 13.3333V26.6667C16.5 27.0203 16.3595 27.3594 16.1095 27.6095C15.8594 27.8595 15.5203 28 15.1667 28H5.83333C5.47971 28 5.14057 27.8595 4.89052 27.6095C4.64048 27.3594 4.5 27.0203 4.5 26.6667ZM9.16667 14.6667H11.8333L12.5 12H8.5L9.16667 14.6667Z" fill="#299E58" fill-opacity="0.1" stroke="#299E58" stroke-width="2" stroke-linecap="round" stroke-linejoin="round"/>
</svg>
