<svg width="25" height="24" viewBox="0 0 25 24" fill="none" xmlns="http://www.w3.org/2000/svg">
<g clip-path="url(#clip0_10_365)">
<path d="M8.164 22.5C17.221 22.5 22.1755 14.9955 22.1755 8.499C22.1755 8.289 22.1755 8.076 22.1665 7.866C23.1311 7.16773 23.9636 6.30323 24.625 5.313C23.724 5.71028 22.7691 5.97211 21.7915 6.09C22.8213 5.47446 23.5926 4.50595 23.962 3.3645C22.9945 3.93769 21.9355 4.34006 20.8315 4.554C20.0893 3.76354 19.1071 3.23988 18.0371 3.06414C16.9672 2.8884 15.8691 3.07038 14.913 3.58191C13.9569 4.09343 13.1962 4.90595 12.7487 5.89359C12.3011 6.88124 12.1918 7.9889 12.4375 9.045C10.4796 8.94683 8.56422 8.4382 6.81556 7.55212C5.0669 6.66603 3.52403 5.42227 2.287 3.9015C1.65901 4.98613 1.46736 6.2691 1.75097 7.4899C2.03458 8.7107 2.77218 9.7778 3.814 10.4745C3.03331 10.448 2.26978 10.2383 1.585 9.8625V9.93C1.58635 11.0662 1.97996 12.1671 2.69931 13.0466C3.41866 13.9262 4.41962 14.5303 5.533 14.757C5.11039 14.8734 4.67384 14.9315 4.2355 14.9295C3.92648 14.9304 3.61807 14.9018 3.3145 14.844C3.62918 15.8221 4.24191 16.6773 5.06687 17.2897C5.89183 17.9022 6.8877 18.2413 7.915 18.2595C6.16983 19.6302 4.0141 20.3736 1.795 20.37C1.40398 20.3717 1.01323 20.3491 0.625 20.3025C2.87727 21.7384 5.49295 22.5008 8.164 22.5V22.5Z" fill="#099CBC"/>
</g>
<defs>
<clipPath id="clip0_10_365">
<rect width="24" height="24" fill="white" transform="translate(0.625)"/>
</clipPath>
</defs>
</svg>
