<svg width="24" height="24" viewBox="0 0 24 24" fill="none" xmlns="http://www.w3.org/2000/svg">
<path d="M13.22 17.5C12.9816 17.5 12.7511 17.4149 12.57 17.26C12.3699 17.0862 12.2469 16.8401 12.2282 16.5757C12.2094 16.3113 12.2964 16.0503 12.47 15.85L20.24 6.84999C20.3253 6.75018 20.4295 6.66817 20.5466 6.60863C20.6636 6.54909 20.7913 6.51318 20.9222 6.50297C21.0531 6.49275 21.1848 6.50843 21.3097 6.5491C21.4345 6.58976 21.5502 6.65463 21.65 6.73999C21.7498 6.82535 21.8318 6.92953 21.8913 7.04658C21.9509 7.16364 21.9868 7.29128 21.997 7.42221C22.0072 7.55314 21.9915 7.6848 21.9509 7.80967C21.9102 7.93454 21.8453 8.05018 21.76 8.14999L13.98 17.15C13.8861 17.2598 13.7695 17.3479 13.6383 17.4083C13.5071 17.4687 13.3644 17.5 13.22 17.5Z" fill="white" fill-opacity="0.5"/>
<path d="M7.00001 17.5C6.85635 17.5012 6.71409 17.4715 6.58295 17.4129C6.4518 17.3542 6.33483 17.2679 6.24001 17.16L2.24001 12.54C2.0663 12.3384 1.97977 12.0761 1.99946 11.8108C2.01915 11.5454 2.14345 11.2987 2.34501 11.125C2.54658 10.9513 2.8089 10.8648 3.07426 10.8844C3.33962 10.9041 3.5863 11.0284 3.76001 11.23L7.00001 15L14 6.88C14.081 6.76753 14.1845 6.67313 14.304 6.60279C14.4234 6.53246 14.5562 6.48772 14.6938 6.47142C14.8315 6.45512 14.971 6.46761 15.1036 6.5081C15.2361 6.5486 15.3588 6.61621 15.4639 6.70664C15.5689 6.79707 15.654 6.90836 15.7138 7.03343C15.7735 7.1585 15.8066 7.29463 15.8109 7.43317C15.8153 7.57171 15.7908 7.70964 15.739 7.83821C15.6872 7.96677 15.6092 8.08317 15.51 8.18L7.74001 17.18C7.64563 17.2818 7.53109 17.3628 7.40369 17.4179C7.27629 17.473 7.13881 17.5009 7.00001 17.5Z" fill="white"/>
</svg>
