<svg width="20" height="21" viewBox="0 0 20 21" fill="none" xmlns="http://www.w3.org/2000/svg">
<path d="M17.8333 10.5C17.8333 14.8262 14.3262 18.3333 9.99999 18.3333C5.67376 18.3333 2.16666 14.8262 2.16666 10.5C2.16666 6.17376 5.67376 2.66666 9.99999 2.66666C14.3262 2.66666 17.8333 6.17376 17.8333 10.5Z" fill="#099CBC" stroke="#099CBC"/>
<path d="M11.175 10.5L13.0917 8.59168C13.2486 8.43476 13.3367 8.22193 13.3367 8.00001C13.3367 7.77809 13.2486 7.56527 13.0917 7.40835C12.9347 7.25143 12.7219 7.16327 12.5 7.16327C12.2781 7.16327 12.0653 7.25143 11.9083 7.40835L10 9.32501L8.09167 7.40835C7.93475 7.25143 7.72192 7.16327 7.5 7.16327C7.27808 7.16327 7.06525 7.25143 6.90833 7.40835C6.75141 7.56527 6.66326 7.77809 6.66326 8.00001C6.66326 8.22193 6.75141 8.43476 6.90833 8.59168L8.825 10.5L6.90833 12.4083C6.83023 12.4858 6.76823 12.578 6.72592 12.6795C6.68362 12.7811 6.66183 12.89 6.66183 13C6.66183 13.11 6.68362 13.2189 6.72592 13.3205C6.76823 13.422 6.83023 13.5142 6.90833 13.5917C6.9858 13.6698 7.07797 13.7318 7.17952 13.7741C7.28107 13.8164 7.38999 13.8382 7.5 13.8382C7.61001 13.8382 7.71893 13.8164 7.82048 13.7741C7.92203 13.7318 8.0142 13.6698 8.09167 13.5917L10 11.675L11.9083 13.5917C11.9858 13.6698 12.078 13.7318 12.1795 13.7741C12.2811 13.8164 12.39 13.8382 12.5 13.8382C12.61 13.8382 12.7189 13.8164 12.8205 13.7741C12.922 13.7318 13.0142 13.6698 13.0917 13.5917C13.1698 13.5142 13.2318 13.422 13.2741 13.3205C13.3164 13.2189 13.3382 13.11 13.3382 13C13.3382 12.89 13.3164 12.7811 13.2741 12.6795C13.2318 12.578 13.1698 12.4858 13.0917 12.4083L11.175 10.5Z" fill="white"/>
</svg>
