<svg width="32" height="32" viewBox="0 0 32 32" fill="none" xmlns="http://www.w3.org/2000/svg">
<path d="M21.3337 12V9.33333C21.3337 7.91885 20.7718 6.56229 19.7716 5.5621C18.7714 4.5619 17.4148 4 16.0003 4C14.5858 4 13.2293 4.5619 12.2291 5.5621C11.2289 6.56229 10.667 7.91885 10.667 9.33333V12M24.0003 28H8.00033C7.6467 28 7.30757 27.8595 7.05752 27.6095C6.80747 27.3594 6.66699 27.0203 6.66699 26.6667V13.3333C6.66699 12.9797 6.80747 12.6406 7.05752 12.3905C7.30757 12.1405 7.6467 12 8.00033 12H24.0003C24.3539 12 24.6931 12.1405 24.9431 12.3905C25.1932 12.6406 25.3337 12.9797 25.3337 13.3333V26.6667C25.3337 27.0203 25.1932 27.3594 24.9431 27.6095C24.6931 27.8595 24.3539 28 24.0003 28Z" stroke="#E0990C" stroke-width="2" stroke-linecap="round" stroke-linejoin="round"/>
</svg>
