<svg width="32" height="32" viewBox="0 0 32 32" fill="none" xmlns="http://www.w3.org/2000/svg">
<path d="M21.3333 12H24.44C24.7596 11.9959 25.07 12.1067 25.3147 12.3123C25.5595 12.5178 25.7222 12.8045 25.7733 13.12L28 26.4533C28.0312 26.6454 28.0199 26.842 27.967 27.0293C27.9141 27.2165 27.8208 27.39 27.6937 27.5374C27.5667 27.6847 27.4089 27.8025 27.2315 27.8825C27.054 27.9624 26.8613 28.0025 26.6667 28H5.33333C5.13875 28.0025 4.94597 27.9624 4.76854 27.8825C4.59111 27.8025 4.43332 27.6847 4.30626 27.5374C4.17919 27.39 4.08593 27.2165 4.03303 27.0293C3.98012 26.842 3.96885 26.6454 4 26.4533L6.22667 13.12C6.27778 12.8045 6.44052 12.5178 6.68525 12.3123C6.92998 12.1067 7.24041 11.9959 7.56 12H10.6667" stroke="#E0990C" stroke-width="2" stroke-linecap="round" stroke-linejoin="round"/>
<path d="M21.3333 9.33333C21.3333 7.91885 20.7714 6.56229 19.7712 5.5621C18.771 4.5619 17.4145 4 16 4C14.5855 4 13.229 4.5619 12.2288 5.5621C11.2286 6.56229 10.6667 7.91885 10.6667 9.33333C10.6667 14.6667 16 20 16 20C16 20 21.3333 14.6667 21.3333 9.33333Z" stroke="#E0990C" stroke-width="2" stroke-linecap="round" stroke-linejoin="round"/>
</svg>
