<svg width="20" height="20" viewBox="0 0 20 20" fill="none" xmlns="http://www.w3.org/2000/svg">
<path d="M14.4167 7.66669C14.1969 7.66356 13.9872 7.5737 13.8333 7.41669C13.6781 7.26055 13.591 7.04934 13.591 6.82919C13.591 6.60903 13.6781 6.39782 13.8333 6.24169L15.075 5.00002C15.1527 4.92232 15.2449 4.86069 15.3465 4.81864C15.448 4.77659 15.5568 4.75494 15.6667 4.75494C15.7765 4.75494 15.8854 4.77659 15.9869 4.81864C16.0884 4.86069 16.1806 4.92232 16.2583 5.00002C16.336 5.07772 16.3977 5.16996 16.4397 5.27148C16.4818 5.373 16.5034 5.4818 16.5034 5.59169C16.5034 5.70157 16.4818 5.81038 16.4397 5.91189C16.3977 6.01341 16.336 6.10566 16.2583 6.18335L15 7.41669C14.8461 7.5737 14.6365 7.66356 14.4167 7.66669ZM6.16667 7.41669C6.32188 7.26055 6.40899 7.04934 6.40899 6.82919C6.40899 6.60903 6.32188 6.39782 6.16667 6.24169L4.925 5.00002C4.76918 4.8431 4.55742 4.75451 4.33628 4.75372C4.11514 4.75294 3.90275 4.84004 3.74583 4.99585C3.58891 5.15167 3.50032 5.36344 3.49954 5.58457C3.49875 5.80571 3.58585 6.0181 3.74167 6.17502L5 7.41669C5.07718 7.49543 5.16922 7.55807 5.27078 7.60098C5.37234 7.6439 5.48141 7.66623 5.59167 7.66669C5.80857 7.66139 6.01485 7.5717 6.16667 7.41669ZM10.8333 5.00002V3.33335H12.5C12.721 3.33335 12.933 3.24556 13.0893 3.08928C13.2455 2.933 13.3333 2.72103 13.3333 2.50002C13.3333 2.27901 13.2455 2.06704 13.0893 1.91076C12.933 1.75448 12.721 1.66669 12.5 1.66669H7.5C7.27899 1.66669 7.06702 1.75448 6.91074 1.91076C6.75446 2.06704 6.66667 2.27901 6.66667 2.50002C6.66667 2.72103 6.75446 2.933 6.91074 3.08928C7.06702 3.24556 7.27899 3.33335 7.5 3.33335H9.16667V5.00002C9.16667 5.22103 9.25446 5.433 9.41074 5.58928C9.56702 5.74556 9.77899 5.83335 10 5.83335C10.221 5.83335 10.433 5.74556 10.5893 5.58928C10.7455 5.433 10.8333 5.22103 10.8333 5.00002Z" fill="#E0990C"/>
<path d="M16.5833 11.25C16.5833 14.8859 13.6359 17.8334 10 17.8334C6.36413 17.8334 3.41667 14.8859 3.41667 11.25C3.41667 7.61415 6.36413 4.66669 10 4.66669C13.6359 4.66669 16.5833 7.61415 16.5833 11.25Z" fill="white" stroke="#E0990C"/>
<path d="M10 12.9166C9.75277 12.9166 9.5111 12.99 9.30554 13.1273C9.09998 13.2647 8.93976 13.4599 8.84515 13.6883C8.75054 13.9167 8.72579 14.168 8.77402 14.4105C8.82225 14.653 8.9413 14.8757 9.11612 15.0505C9.29093 15.2253 9.51366 15.3444 9.75614 15.3926C9.99861 15.4409 10.2499 15.4161 10.4784 15.3215C10.7068 15.2269 10.902 15.0667 11.0393 14.8611C11.1767 14.6555 11.25 14.4139 11.25 14.1666C11.25 13.8351 11.1183 13.5172 10.8839 13.2828C10.6495 13.0483 10.3315 12.9166 10 12.9166ZM10.8333 10.4166V7.91665C10.8333 7.69563 10.7455 7.48367 10.5893 7.32739C10.433 7.17111 10.221 7.08331 10 7.08331C9.77899 7.08331 9.56703 7.17111 9.41075 7.32739C9.25446 7.48367 9.16667 7.69563 9.16667 7.91665V10.4166C9.16667 10.6377 9.25446 10.8496 9.41075 11.0059C9.56703 11.1622 9.77899 11.25 10 11.25C10.221 11.25 10.433 11.1622 10.5893 11.0059C10.7455 10.8496 10.8333 10.6377 10.8333 10.4166Z" fill="#E0990C"/>
</svg>
