<svg width="20" height="20" viewBox="0 0 20 20" fill="none" xmlns="http://www.w3.org/2000/svg">
<path d="M14.4167 7.66666C14.1969 7.66353 13.9872 7.57367 13.8333 7.41666C13.6781 7.26052 13.591 7.04931 13.591 6.82916C13.591 6.609 13.6781 6.39779 13.8333 6.24166L15.075 4.99999C15.1527 4.92229 15.2449 4.86066 15.3465 4.81861C15.448 4.77656 15.5568 4.75491 15.6667 4.75491C15.7765 4.75491 15.8854 4.77656 15.9869 4.81861C16.0884 4.86066 16.1806 4.92229 16.2583 4.99999C16.336 5.07769 16.3977 5.16993 16.4397 5.27145C16.4818 5.37297 16.5034 5.48177 16.5034 5.59166C16.5034 5.70154 16.4818 5.81035 16.4397 5.91186C16.3977 6.01338 16.336 6.10562 16.2583 6.18332L15 7.41666C14.8461 7.57367 14.6365 7.66353 14.4167 7.66666ZM6.16667 7.41666C6.32188 7.26052 6.40899 7.04931 6.40899 6.82916C6.40899 6.609 6.32188 6.39779 6.16667 6.24166L4.925 4.99999C4.76918 4.84307 4.55742 4.75447 4.33628 4.75369C4.11514 4.75291 3.90275 4.84001 3.74583 4.99582C3.58891 5.15164 3.50032 5.36341 3.49954 5.58454C3.49875 5.80568 3.58585 6.01807 3.74167 6.17499L5 7.41666C5.07718 7.4954 5.16922 7.55804 5.27078 7.60095C5.37234 7.64387 5.48141 7.6662 5.59167 7.66666C5.80857 7.66136 6.01485 7.57167 6.16667 7.41666ZM10.8333 4.99999V3.33332H12.5C12.721 3.33332 12.933 3.24553 13.0893 3.08925C13.2455 2.93297 13.3333 2.721 13.3333 2.49999C13.3333 2.27898 13.2455 2.06701 13.0893 1.91073C12.933 1.75445 12.721 1.66666 12.5 1.66666H7.5C7.27899 1.66666 7.06702 1.75445 6.91074 1.91073C6.75446 2.06701 6.66667 2.27898 6.66667 2.49999C6.66667 2.721 6.75446 2.93297 6.91074 3.08925C7.06702 3.24553 7.27899 3.33332 7.5 3.33332H9.16667V4.99999C9.16667 5.221 9.25446 5.43297 9.41074 5.58925C9.56702 5.74553 9.77899 5.83332 10 5.83332C10.221 5.83332 10.433 5.74553 10.5893 5.58925C10.7455 5.43297 10.8333 5.221 10.8333 4.99999Z" fill="#E0990C"/>
<path d="M16.5833 11.25C16.5833 14.8859 13.6359 17.8333 10 17.8333C6.36413 17.8333 3.41667 14.8859 3.41667 11.25C3.41667 7.61412 6.36413 4.66666 10 4.66666C13.6359 4.66666 16.5833 7.61412 16.5833 11.25Z" fill="white" stroke="#E0990C"/>
<path d="M10 12.9167C9.75277 12.9167 9.5111 12.99 9.30554 13.1273C9.09998 13.2647 8.93976 13.4599 8.84515 13.6883C8.75054 13.9167 8.72579 14.1681 8.77402 14.4105C8.82225 14.653 8.9413 14.8757 9.11612 15.0506C9.29093 15.2254 9.51366 15.3444 9.75614 15.3927C9.99861 15.4409 10.2499 15.4161 10.4784 15.3215C10.7068 15.2269 10.902 15.0667 11.0393 14.8611C11.1767 14.6556 11.25 14.4139 11.25 14.1667C11.25 13.8352 11.1183 13.5172 10.8839 13.2828C10.6495 13.0484 10.3315 12.9167 10 12.9167ZM10.8333 10.4167V7.91668C10.8333 7.69566 10.7455 7.4837 10.5893 7.32742C10.433 7.17114 10.221 7.08334 10 7.08334C9.77899 7.08334 9.56703 7.17114 9.41075 7.32742C9.25446 7.4837 9.16667 7.69566 9.16667 7.91668V10.4167C9.16667 10.6377 9.25446 10.8497 9.41075 11.0059C9.56703 11.1622 9.77899 11.25 10 11.25C10.221 11.25 10.433 11.1622 10.5893 11.0059C10.7455 10.8497 10.8333 10.6377 10.8333 10.4167Z" fill="#E0990C"/>
</svg>
