<svg width="24" height="25" viewBox="0 0 24 25" fill="none" xmlns="http://www.w3.org/2000/svg">
<path d="M11 13.4667H13C14.8565 13.4667 16.637 14.2042 17.9497 15.5169C19.2625 16.8297 20 18.6102 20 20.4667C20 20.7319 19.8946 20.9862 19.7071 21.1738C19.5196 21.3613 19.2652 21.4667 19 21.4667H5C4.73478 21.4667 4.48043 21.3613 4.29289 21.1738C4.10536 20.9862 4 20.7319 4 20.4667C4 18.6102 4.7375 16.8297 6.05025 15.5169C7.36301 14.2042 9.14348 13.4667 11 13.4667V13.4667Z" stroke="white" stroke-opacity="0.5" stroke-width="2" stroke-linecap="round" stroke-linejoin="round"/>
<path d="M12 13.4667C14.7614 13.4667 17 11.2281 17 8.46667C17 5.70525 14.7614 3.46667 12 3.46667C9.23858 3.46667 7 5.70525 7 8.46667C7 11.2281 9.23858 13.4667 12 13.4667Z" stroke="white" stroke-width="2" stroke-linecap="round" stroke-linejoin="round"/>
</svg>
