<svg width="16" height="17" viewBox="0 0 16 17" fill="none" xmlns="http://www.w3.org/2000/svg">
<path fill-rule="evenodd" clip-rule="evenodd" d="M12 8.50063C12 8.36802 11.9473 8.24085 11.8536 8.14708C11.7598 8.05331 11.6326 8.00063 11.5 8.00063H5.707L7.854 5.85463C7.94789 5.76075 8.00063 5.63341 8.00063 5.50063C8.00063 5.36786 7.94789 5.24052 7.854 5.14663C7.76011 5.05275 7.63278 5 7.5 5C7.36722 5 7.23989 5.05275 7.146 5.14663L4.146 8.14663C4.09944 8.19308 4.06249 8.24825 4.03729 8.309C4.01208 8.36974 3.99911 8.43486 3.99911 8.50063C3.99911 8.5664 4.01208 8.63152 4.03729 8.69227C4.06249 8.75301 4.09944 8.80819 4.146 8.85463L7.146 11.8546C7.23989 11.9485 7.36722 12.0013 7.5 12.0013C7.63278 12.0013 7.76011 11.9485 7.854 11.8546C7.94789 11.7607 8.00063 11.6334 8.00063 11.5006C8.00063 11.3679 7.94789 11.2405 7.854 11.1466L5.707 9.00063H11.5C11.6326 9.00063 11.7598 8.94795 11.8536 8.85419C11.9473 8.76042 12 8.63324 12 8.50063Z" fill="#09212F"/>
</svg>
