<svg width="20" height="20" viewBox="0 0 20 20" fill="none" xmlns="http://www.w3.org/2000/svg">
<path d="M10.0003 18.3327C14.6027 18.3327 18.3337 14.6017 18.3337 9.99935C18.3337 5.39698 14.6027 1.66602 10.0003 1.66602C5.39795 1.66602 1.66699 5.39698 1.66699 9.99935C1.66699 14.6017 5.39795 18.3327 10.0003 18.3327Z" fill="#E0990C"/>
<path d="M9.16682 13.3328C9.05715 13.3335 8.94843 13.3124 8.8469 13.271C8.74537 13.2295 8.65302 13.1684 8.57515 13.0912L6.07515 10.5912C5.99746 10.5135 5.93582 10.4212 5.89377 10.3197C5.85172 10.2182 5.83008 10.1094 5.83008 9.9995C5.83008 9.77759 5.91823 9.56476 6.07515 9.40784C6.23207 9.25092 6.4449 9.16276 6.66682 9.16276C6.88874 9.16276 7.10157 9.25092 7.25849 9.40784L9.16682 11.3245L12.7418 7.74117C12.8987 7.58425 13.1116 7.49609 13.3335 7.49609C13.5554 7.49609 13.7682 7.58425 13.9252 7.74117C14.0821 7.89809 14.1702 8.11092 14.1702 8.33284C14.1702 8.55475 14.0821 8.76758 13.9252 8.9245L9.75849 13.0912C9.68062 13.1684 9.58827 13.2295 9.48674 13.271C9.38521 13.3124 9.27649 13.3335 9.16682 13.3328Z" fill="white"/>
</svg>
