<svg width="25" height="24" viewBox="0 0 25 24" fill="none" xmlns="http://www.w3.org/2000/svg">
<g clip-path="url(#clip0_10_358)">
<path d="M23.6925 9.837C23.8324 10.6424 23.9022 11.4585 23.901 12.276C23.901 15.927 22.596 19.014 20.325 21.1035H20.328C18.342 22.938 15.612 24 12.375 24C9.1924 24 6.14016 22.7357 3.88972 20.4853C1.63928 18.2348 0.375 15.1826 0.375 12C0.375 8.8174 1.63928 5.76515 3.88972 3.51472C6.14016 1.26428 9.1924 -1.62711e-06 12.375 -1.62711e-06C15.3539 -0.0348892 18.2308 1.08425 20.403 3.123L16.977 6.549C15.7386 5.36846 14.0857 4.72199 12.375 4.749C9.2445 4.749 6.585 6.861 5.637 9.705C5.13436 11.1953 5.13436 12.8092 5.637 14.2995H5.6415C6.594 17.139 9.249 19.251 12.3795 19.251C13.9965 19.251 15.3855 18.837 16.4625 18.105H16.458C17.0834 17.6907 17.6183 17.154 18.0305 16.5273C18.4428 15.9006 18.7237 15.1968 18.8565 14.4585H12.375V9.8385H23.6925V9.837Z" fill="#099CBC"/>
</g>
<defs>
<clipPath id="clip0_10_358">
<rect width="24" height="24" fill="white" transform="translate(0.375)"/>
</clipPath>
</defs>
</svg>
