<svg width="32" height="32" viewBox="0 0 32 32" fill="none" xmlns="http://www.w3.org/2000/svg">
<path d="M25.333 4H6.66634C6.31272 4 5.97358 4.14048 5.72353 4.39052C5.47348 4.64057 5.33301 4.97971 5.33301 5.33333V12H14.6663C15.02 12 15.3591 12.1405 15.6091 12.3905C15.8592 12.6406 15.9997 12.9797 15.9997 13.3333V20H26.6663V5.33333C26.6663 4.97971 26.5259 4.64057 26.2758 4.39052C26.0258 4.14048 25.6866 4 25.333 4ZM15.9997 20V22.6667H26.6663C27.02 22.6667 27.3591 22.5262 27.6091 22.2761C27.8592 22.0261 27.9997 21.687 27.9997 21.3333V20H15.9997Z" fill="#099CBC" fill-opacity="0.1" stroke="#099CBC" stroke-width="2" stroke-linecap="round" stroke-linejoin="round"/>
<path d="M4 26.6667V13.3333C4 12.9797 4.14048 12.6406 4.39052 12.3905C4.64057 12.1405 4.97971 12 5.33333 12H14.6667C15.0203 12 15.3594 12.1405 15.6095 12.3905C15.8595 12.6406 16 12.9797 16 13.3333V26.6667C16 27.0203 15.8595 27.3594 15.6095 27.6095C15.3594 27.8595 15.0203 28 14.6667 28H5.33333C4.97971 28 4.64057 27.8595 4.39052 27.6095C4.14048 27.3594 4 27.0203 4 26.6667ZM8.66667 14.6667H11.3333L12 12H8L8.66667 14.6667Z" fill="#099CBC" fill-opacity="0.1" stroke="#099CBC" stroke-width="2" stroke-linecap="round" stroke-linejoin="round"/>
</svg>
