<svg width="25" height="24" viewBox="0 0 25 24" fill="none" xmlns="http://www.w3.org/2000/svg">
<path d="M15.5 11V13M16.5 7H8.5V4C8.5 3.73478 8.60536 3.48043 8.79289 3.29289C8.98043 3.10536 9.23478 3 9.5 3H15.5C15.7652 3 16.0196 3.10536 16.2071 3.29289C16.3946 3.48043 16.5 3.73478 16.5 4V7ZM21.5 20V8C21.5 7.73478 21.3946 7.48043 21.2071 7.29289C21.0196 7.10536 20.7652 7 20.5 7H4.5C4.23478 7 3.98043 7.10536 3.79289 7.29289C3.60536 7.48043 3.5 7.73478 3.5 8V20C3.5 20.2652 3.60536 20.5196 3.79289 20.7071C3.98043 20.8946 4.23478 21 4.5 21H20.5C20.7652 21 21.0196 20.8946 21.2071 20.7071C21.3946 20.5196 21.5 20.2652 21.5 20ZM17.5 11H7.5H17.5Z" stroke="#09212F" stroke-width="2" stroke-linecap="round" stroke-linejoin="round"/>
</svg>
