<svg width="20" height="21" viewBox="0 0 20 21" fill="none" xmlns="http://www.w3.org/2000/svg">
<path d="M17.5 13V16.275C17.5025 16.5158 17.4529 16.7542 17.3544 16.974C17.256 17.1937 17.1111 17.3895 16.9298 17.5479C16.7484 17.7063 16.5349 17.8235 16.3039 17.8915C16.0729 17.9595 15.8299 17.9766 15.5917 17.9417C12.2891 17.5174 9.22162 16.0064 6.87247 13.6467C4.52332 11.287 3.02608 8.21273 2.61666 4.90833C2.58185 4.67079 2.59876 4.42853 2.66625 4.19813C2.73374 3.96773 2.8502 3.75463 3.00768 3.57341C3.16516 3.3922 3.35993 3.24714 3.57866 3.14817C3.79739 3.0492 4.03492 2.99866 4.275 3H7.5C7.70601 2.99875 7.90518 3.07385 8.05907 3.21082C8.21297 3.34778 8.31067 3.5369 8.33333 3.74166C8.41602 4.83381 8.69848 5.9015 9.16666 6.89166C9.24694 7.07918 9.25566 7.28964 9.19115 7.48316C9.12665 7.67668 8.9934 7.83981 8.81666 7.94166L8.1 8.35C7.9967 8.40681 7.90663 8.4849 7.83574 8.5791C7.76485 8.6733 7.71475 8.78146 7.68876 8.89646C7.66277 9.01145 7.66147 9.13065 7.68496 9.24618C7.70844 9.36171 7.75617 9.47094 7.825 9.56666C8.64944 10.7743 9.69234 11.8172 10.9 12.6417C10.9957 12.7105 11.1049 12.7582 11.2205 12.7817C11.336 12.8052 11.4552 12.8039 11.5702 12.7779C11.6852 12.7519 11.7934 12.7018 11.8876 12.6309C11.9818 12.56 12.0598 12.47 12.1167 12.3667L12.525 11.65C12.6329 11.4709 12.8042 11.339 13.0049 11.2803C13.2056 11.2217 13.421 11.2406 13.6083 11.3333C14.5985 11.8015 15.6662 12.084 16.7583 12.1667C16.9631 12.1893 17.1522 12.287 17.2892 12.4409C17.4261 12.5948 17.5012 12.794 17.5 13Z" stroke="#8F9096" stroke-linecap="round" stroke-linejoin="round"/>
</svg>
