<svg width="20" height="21" viewBox="0 0 20 21" fill="none" xmlns="http://www.w3.org/2000/svg">
<path d="M14.1667 7.16667C14.1667 7.99076 13.9223 8.79634 13.4645 9.48154C13.0066 10.1667 12.3559 10.7008 11.5945 11.0162C10.8331 11.3315 9.99537 11.414 9.18712 11.2533C8.37886 11.0925 7.63644 10.6957 7.05372 10.1129C6.471 9.53023 6.07416 8.7878 5.91339 7.97954C5.75262 7.17129 5.83513 6.33351 6.1505 5.57215C6.46586 4.81079 6.99991 4.16005 7.68512 3.70221C8.37032 3.24437 9.17591 3 9.99999 3C11.1051 3 12.1649 3.43899 12.9463 4.22039C13.7277 5.00179 14.1667 6.0616 14.1667 7.16667ZM10.8333 11.3333H9.16666C7.61957 11.3333 6.13583 11.9479 5.04187 13.0419C3.94791 14.1358 3.33333 15.6196 3.33333 17.1667V17.1667C3.33333 17.3877 3.42113 17.5996 3.57741 17.7559C3.73369 17.9122 3.94565 18 4.16666 18H15.8333C16.0543 18 16.2663 17.9122 16.4226 17.7559C16.5789 17.5996 16.6667 17.3877 16.6667 17.1667C16.6667 15.6196 16.0521 14.1358 14.9581 13.0419C13.8642 11.9479 12.3804 11.3333 10.8333 11.3333V11.3333Z" stroke="#8F9096" stroke-linecap="round" stroke-linejoin="round"/>
</svg>
