<svg width="5" height="10" viewBox="0 0 5 10" fill="none" xmlns="http://www.w3.org/2000/svg">
<path fill-rule="evenodd" clip-rule="evenodd" d="M0.617473 0.163188C0.580236 0.214785 0.550692 0.276081 0.530534 0.343564C0.510376 0.411047 0.5 0.483392 0.5 0.556454C0.5 0.629517 0.510376 0.701862 0.530534 0.769345C0.550692 0.836828 0.580236 0.898124 0.617473 0.949721L3.53403 5.00015L0.617472 9.05057C0.54239 9.15487 0.500209 9.29633 0.500209 9.44384C0.500209 9.59134 0.54239 9.7328 0.617472 9.8371C0.692555 9.94141 0.794389 10 0.900571 10C1.00675 10 1.10859 9.94141 1.18367 9.8371L4.38253 5.39341C4.41976 5.34182 4.44931 5.28052 4.46947 5.21304C4.48962 5.14555 4.5 5.07321 4.5 5.00015C4.5 4.92708 4.48962 4.85474 4.46947 4.78726C4.44931 4.71977 4.41976 4.65848 4.38253 4.60688L1.18367 0.163188C1.14653 0.111459 1.1024 0.0704189 1.05382 0.0424165C1.00524 0.0144141 0.953167 1.98085e-08 0.900572 1.75095e-08C0.847977 1.52105e-08 0.795899 0.0144141 0.74732 0.0424165C0.698741 0.0704189 0.654616 0.111459 0.617473 0.163188Z" fill="#8F9096"/>
</svg>
