<svg width="20" height="20" viewBox="0 0 20 20" fill="none" xmlns="http://www.w3.org/2000/svg">
<path d="M2.5 6.66668V13.3333M13.3333 16.6667H6.66667C6.44565 16.6667 6.23369 16.5789 6.07741 16.4226C5.92113 16.2663 5.83333 16.0544 5.83333 15.8333V4.16668C5.83333 3.94566 5.92113 3.7337 6.07741 3.57742C6.23369 3.42114 6.44565 3.33334 6.66667 3.33334H13.3333C13.5543 3.33334 13.7663 3.42114 13.9226 3.57742C14.0789 3.7337 14.1667 3.94566 14.1667 4.16668V15.8333C14.1667 16.0544 14.0789 16.2663 13.9226 16.4226C13.7663 16.5789 13.5543 16.6667 13.3333 16.6667ZM11.6667 3.33334H8.33333L8.75 5.00001H11.25L11.6667 3.33334ZM17.5 6.66668V13.3333V6.66668Z" stroke="#8F9096" stroke-linecap="round" stroke-linejoin="round"/>
</svg>
