<svg width="20" height="21" viewBox="0 0 20 21" fill="none" xmlns="http://www.w3.org/2000/svg">
<path d="M10.8333 13H9.16667V11.3333H10.8333V13ZM13.3333 3.83333C13.3333 3.61232 13.2455 3.40036 13.0893 3.24408C12.933 3.0878 12.721 3 12.5 3H7.5C7.27899 3 7.06702 3.0878 6.91074 3.24408C6.75446 3.40036 6.66667 3.61232 6.66667 3.83333V6.33333H13.3333V3.83333ZM17.5 17.1667V7.16667C17.5 6.94565 17.4122 6.73369 17.2559 6.57741C17.0996 6.42113 16.8877 6.33333 16.6667 6.33333H3.33333C3.11232 6.33333 2.90036 6.42113 2.74408 6.57741C2.5878 6.73369 2.5 6.94565 2.5 7.16667V17.1667C2.5 17.3877 2.5878 17.5996 2.74408 17.7559C2.90036 17.9122 3.11232 18 3.33333 18H16.6667C16.8877 18 17.0996 17.9122 17.2559 17.7559C17.4122 17.5996 17.5 17.3877 17.5 17.1667Z" stroke="#8F9096" stroke-linecap="round" stroke-linejoin="round"/>
<path d="M9.16666 12.1667H7.19999C6.55325 12.1611 5.92211 11.9674 5.38351 11.6093C4.8449 11.2512 4.42211 10.7442 4.16666 10.15L2.64999 6.69168" stroke="#8F9096" stroke-linecap="round" stroke-linejoin="round"/>
<path d="M17.35 6.69168L15.8333 10.15C15.5779 10.7442 15.1551 11.2512 14.6165 11.6093C14.0779 11.9674 13.4467 12.1611 12.8 12.1667H10.8333" stroke="#8F9096" stroke-linecap="round" stroke-linejoin="round"/>
</svg>
