<svg width="33" height="32" viewBox="0 0 33 32" fill="none" xmlns="http://www.w3.org/2000/svg">
<path d="M27.1667 28H7.16667C6.81304 28 6.47391 27.8595 6.22386 27.6095C5.97381 27.3594 5.83333 27.0203 5.83333 26.6667V5.33333C5.83333 4.97971 5.97381 4.64057 6.22386 4.39052C6.47391 4.14048 6.81304 4 7.16667 4H27.1667C27.5203 4 27.8594 4.14048 28.1095 4.39052C28.3595 4.64057 28.5 4.97971 28.5 5.33333V26.6667C28.5 27.0203 28.3595 27.3594 28.1095 27.6095C27.8594 27.8595 27.5203 28 27.1667 28ZM7.16667 10.6667H4.5H7.16667ZM7.16667 16H4.5H7.16667ZM7.16667 21.3333H4.5H7.16667ZM23.1667 9.33333H12.5V14.6667H23.1667V9.33333Z" stroke="#099CBC" stroke-width="2" stroke-linecap="round" stroke-linejoin="round"/>
</svg>
