<svg width="32" height="32" viewBox="0 0 32 32" fill="none" xmlns="http://www.w3.org/2000/svg">
<path d="M26.6667 28H6.66667C6.31304 28 5.97391 27.8595 5.72386 27.6095C5.47381 27.3594 5.33333 27.0203 5.33333 26.6667V5.33333C5.33333 4.97971 5.47381 4.64057 5.72386 4.39052C5.97391 4.14048 6.31304 4 6.66667 4H26.6667C27.0203 4 27.3594 4.14048 27.6095 4.39052C27.8595 4.64057 28 4.97971 28 5.33333V26.6667C28 27.0203 27.8595 27.3594 27.6095 27.6095C27.3594 27.8595 27.0203 28 26.6667 28ZM6.66667 10.6667H4H6.66667ZM6.66667 16H4H6.66667ZM6.66667 21.3333H4H6.66667ZM22.6667 9.33333H12V14.6667H22.6667V9.33333Z" stroke="#09212F" stroke-width="2" stroke-linecap="round" stroke-linejoin="round"/>
</svg>
