<svg width="33" height="32" viewBox="0 0 33 32" fill="none" xmlns="http://www.w3.org/2000/svg">
<path d="M13.9967 18.6667L19.3301 13.3333M6.66341 26C5.78081 25.1152 5.28516 23.9164 5.28516 22.6667C5.28516 21.4169 5.78081 20.2182 6.66341 19.3333L9.99674 16C10.8816 15.1174 12.0803 14.6217 13.3301 14.6217C14.5798 14.6217 15.7786 15.1174 16.6634 16C17.546 16.8848 18.0417 18.0836 18.0417 19.3333C18.0417 20.5831 17.546 21.7818 16.6634 22.6667L13.3301 26C12.4452 26.8826 11.2465 27.3782 9.99674 27.3782C8.74698 27.3782 7.54823 26.8826 6.66341 26ZM23.9967 15.3333L27.3301 12C28.2127 11.1152 28.7083 9.91642 28.7083 8.66666C28.7083 7.4169 28.2127 6.21816 27.3301 5.33333V5.33333C26.4452 4.45073 25.2465 3.95508 23.9967 3.95508C22.747 3.95508 21.5482 4.45073 20.6634 5.33333L17.3301 8.66666C16.4475 9.55149 15.9518 10.7502 15.9518 12C15.9518 13.2498 16.4475 14.4485 17.3301 15.3333V15.3333C18.2149 16.2159 19.4136 16.7116 20.6634 16.7116C21.9132 16.7116 23.1119 16.2159 23.9967 15.3333Z" stroke="#09212F" stroke-width="2" stroke-linecap="round" stroke-linejoin="round"/>
</svg>
