<svg width="33" height="32" viewBox="0 0 33 32" fill="none" xmlns="http://www.w3.org/2000/svg">
<path d="M4.33203 24V5.33333C4.33203 4.97971 4.47251 4.64057 4.72256 4.39052C4.9726 4.14048 5.31174 4 5.66536 4H10.9987C11.3523 4 11.6915 4.14048 11.9415 4.39052C12.1916 4.64057 12.332 4.97971 12.332 5.33333V14.3467" stroke="#099CBC" stroke-width="2" stroke-linecap="round" stroke-linejoin="round"/>
<path d="M6.67969 19.9991L18.6797 7.99905C18.9295 7.75072 19.2674 7.61133 19.6197 7.61133C19.9719 7.61133 20.3099 7.75072 20.5597 7.99905L24.333 11.7457C24.5814 11.9955 24.7207 12.3335 24.7207 12.6857C24.7207 13.038 24.5814 13.3759 24.333 13.6257L17.9864 19.9991" stroke="#099CBC" stroke-width="2" stroke-linecap="round" stroke-linejoin="round"/>
<path d="M28.332 21.3333V26.6667C28.332 27.0203 28.1916 27.3594 27.9415 27.6095C27.6915 27.8595 27.3523 28 26.9987 28H8.33203C7.27116 28 6.25375 27.5786 5.5036 26.8284C4.75346 26.0783 4.33203 25.0609 4.33203 24C4.33203 22.9391 4.75346 21.9217 5.5036 21.1716C6.25375 20.4214 7.27116 20 8.33203 20H26.9987C27.3523 20 27.6915 20.1405 27.9415 20.3905C28.1916 20.6406 28.332 20.9797 28.332 21.3333V21.3333Z" stroke="#099CBC" stroke-width="2" stroke-linecap="round" stroke-linejoin="round"/>
</svg>
