<svg width="32" height="32" viewBox="0 0 32 32" fill="none" xmlns="http://www.w3.org/2000/svg">
<path d="M13.3333 28H5.33333C4.97971 28 4.64057 27.8595 4.39052 27.6095C4.14048 27.3594 4 27.0203 4 26.6667V9.33333L9.33333 4H21.3333C21.687 4 22.0261 4.14048 22.2761 4.39052C22.5262 4.64057 22.6667 4.97971 22.6667 5.33333V13.3333" stroke="#E0990C" stroke-width="2" stroke-linecap="round" stroke-linejoin="round"/>
<path d="M9.3335 12H17.3335M22.6668 18.6667L21.0135 21.7333L17.3335 22.2267L20.0002 24.6267L19.3735 28L22.6668 26.4L25.9602 28L25.3335 24.6267L28.0002 22.2267L24.3202 21.7333L22.6668 18.6667ZM9.3335 17.3333H17.3335H9.3335Z" stroke="#E0990C" stroke-width="2" stroke-linecap="round" stroke-linejoin="round"/>
</svg>
