<svg width="32" height="32" viewBox="0 0 32 32" fill="none" xmlns="http://www.w3.org/2000/svg">
<path d="M24 21.3333V26.6667C24 27.0203 23.8595 27.3594 23.6095 27.6095C23.3594 27.8595 23.0203 28 22.6667 28H5.33333C4.97971 28 4.64057 27.8595 4.39052 27.6095C4.14048 27.3594 4 27.0203 4 26.6667V5.33333C4 4.97971 4.14048 4.64057 4.39052 4.39052C4.64057 4.14048 4.97971 4 5.33333 4H14.6667" stroke="#E0990C" stroke-width="2" stroke-linecap="round" stroke-linejoin="round"/>
<path d="M28.0002 8L20.0002 16M18.6668 22.6667H9.3335H18.6668ZM14.6668 17.3333H9.3335H14.6668Z" stroke="#E0990C" stroke-width="2" stroke-linecap="round" stroke-linejoin="round"/>
<path d="M20.6001 8.66602H20.7334" stroke="#E0990C" stroke-width="3" stroke-linecap="round" stroke-linejoin="round"/>
<path d="M27.2666 15.334H27.3999" stroke="#E0990C" stroke-width="3" stroke-linecap="round" stroke-linejoin="round"/>
</svg>
