<svg width="36" height="36" viewBox="0 0 36 36" fill="none" xmlns="http://www.w3.org/2000/svg">
<path d="M4.5 16.5H13.5M6 10.5H13.5V25.5H6C5.60218 25.5 5.22064 25.342 4.93934 25.0607C4.65804 24.7794 4.5 24.3978 4.5 24V12C4.5 11.6022 4.65804 11.2206 4.93934 10.9393C5.22064 10.658 5.60218 10.5 6 10.5V10.5Z" stroke="#E0990C" stroke-width="2" stroke-linecap="round" stroke-linejoin="round"/>
<path d="M19.5 18L21.135 19.875L24 16.125" stroke="#E0990C" stroke-width="2" stroke-linecap="round" stroke-linejoin="round"/>
<path d="M31.5 30V6C31.5 5.60218 31.342 5.22064 31.0607 4.93934C30.7794 4.65804 30.3978 4.5 30 4.5H15C14.6022 4.5 14.2206 4.65804 13.9393 4.93934C13.658 5.22064 13.5 5.60218 13.5 6V30C13.5 30.3978 13.658 30.7794 13.9393 31.0607C14.2206 31.342 14.6022 31.5 15 31.5H30C30.3978 31.5 30.7794 31.342 31.0607 31.0607C31.342 30.7794 31.5 30.3978 31.5 30ZM20.25 7.5H24.75L25.5 4.5H19.5L20.25 7.5Z" stroke="#E0990C" stroke-width="2" stroke-linecap="round" stroke-linejoin="round"/>
</svg>
