<svg width="32" height="32" viewBox="0 0 32 32" fill="none" xmlns="http://www.w3.org/2000/svg">
<path d="M24.0664 27.332H23.9331" stroke="#E0990C" stroke-width="3" stroke-linecap="round" stroke-linejoin="round"/>
<path d="M17.3332 28.0004H7.99984C7.64622 28.0004 7.30708 27.86 7.05703 27.6099C6.80698 27.3599 6.6665 27.0207 6.6665 26.6671C6.66995 25.1497 7.04332 23.656 7.75426 22.3154C8.4652 20.9749 9.49227 19.8279 10.7465 18.9738L10.8532 18.9071C10.9932 18.8021 11.1113 18.6704 11.2005 18.5198C11.2897 18.3691 11.3483 18.2023 11.3731 18.029C11.3979 17.8557 11.3882 17.6792 11.3448 17.5095C11.3013 17.3399 11.2249 17.1805 11.1198 17.0404C9.95702 15.6189 9.32532 13.837 9.33317 12.0004C9.32521 9.98904 10.0752 8.04844 11.4338 6.5652C12.7924 5.08195 14.6599 4.16492 16.6643 3.99677C18.6687 3.82862 20.6629 4.42168 22.2496 5.65783C23.8364 6.89398 24.8992 8.68249 25.2265 10.6671C25.3039 11.1072 25.3396 11.5536 25.3332 12.0004" stroke="#E0990C" stroke-width="2" stroke-linecap="round" stroke-linejoin="round"/>
<path d="M24 17.332V21.332" stroke="#E0990C" stroke-width="2" stroke-linecap="round" stroke-linejoin="round"/>
</svg>
