<svg width="32" height="32" viewBox="0 0 32 32" fill="none" xmlns="http://www.w3.org/2000/svg">
<path d="M22.6667 21.3333V26.6667C22.6667 27.0203 22.5262 27.3594 22.2761 27.6095C22.0261 27.8595 21.687 28 21.3333 28H5.33333C4.97971 28 4.64057 27.8595 4.39052 27.6095C4.14048 27.3594 4 27.0203 4 26.6667V9.33333C4 8.97971 4.14048 8.64057 4.39052 8.39052C4.64057 8.14048 4.97971 8 5.33333 8H9.33333" stroke="#E0990C" stroke-width="2" stroke-linecap="round" stroke-linejoin="round"/>
<path d="M17.3335 8H21.3335C21.6871 8 22.0263 8.14048 22.2763 8.39052C22.5264 8.64057 22.6668 8.97971 22.6668 9.33333V13.3333" stroke="#E0990C" stroke-width="2" stroke-linecap="round" stroke-linejoin="round"/>
<path d="M16.0002 6.66667C16.0002 5.95942 15.7192 5.28115 15.2191 4.78105C14.719 4.28095 14.0407 4 13.3335 4C12.6263 4 11.948 4.28095 11.4479 4.78105C10.9478 5.28115 10.6668 5.95942 10.6668 6.66667C10.3132 6.66667 9.97407 6.80714 9.72402 7.05719C9.47397 7.30724 9.3335 7.64638 9.3335 8V10.6667H17.3335V8C17.3335 7.64638 17.193 7.30724 16.943 7.05719C16.6929 6.80714 16.3538 6.66667 16.0002 6.66667ZM27.6135 14.2533L25.7468 12.3867C25.4976 12.1424 25.1625 12.0055 24.8135 12.0055C24.4645 12.0055 24.1294 12.1424 23.8802 12.3867L17.3335 18.9333V22.6667H21.0668L27.6135 16.12C27.8578 15.8708 27.9946 15.5357 27.9946 15.1867C27.9946 14.8377 27.8578 14.5026 27.6135 14.2533Z" stroke="#E0990C" stroke-width="2" stroke-linecap="round" stroke-linejoin="round"/>
</svg>
