<svg width="32" height="32" viewBox="0 0 32 32" fill="none" xmlns="http://www.w3.org/2000/svg">
<path d="M7.99984 6.66667H23.9998C24.3535 6.66667 24.6926 6.80714 24.9426 7.05719C25.1927 7.30724 25.3332 7.64638 25.3332 8V26.6667C25.3332 27.0203 25.1927 27.3594 24.9426 27.6095C24.6926 27.8595 24.3535 28 23.9998 28H7.99984C7.64622 28 7.30708 27.8595 7.05703 27.6095C6.80698 27.3594 6.6665 27.0203 6.6665 26.6667V8C6.6665 7.64638 6.80698 7.30724 7.05703 7.05719C7.30708 6.80714 7.64622 6.66667 7.99984 6.66667V6.66667ZM15.9998 12C15.4724 12 14.9568 12.1564 14.5183 12.4494C14.0798 12.7424 13.738 13.1589 13.5362 13.6462C13.3343 14.1334 13.2815 14.6696 13.3844 15.1869C13.4873 15.7042 13.7413 16.1793 14.1142 16.5523C14.4872 16.9252 14.9623 17.1792 15.4796 17.2821C15.9969 17.385 16.5331 17.3322 17.0203 17.1303C17.5076 16.9285 17.9241 16.5867 18.2171 16.1482C18.5101 15.7097 18.6665 15.1941 18.6665 14.6667C18.6665 13.9594 18.3856 13.2811 17.8855 12.781C17.3854 12.281 16.7071 12 15.9998 12ZM19.9998 21.3333C19.9998 20.2725 19.5784 19.2551 18.8283 18.5049C18.0781 17.7548 17.0607 17.3333 15.9998 17.3333C14.939 17.3333 13.9216 17.7548 13.1714 18.5049C12.4213 19.2551 11.9998 20.2725 11.9998 21.3333V22.6667H19.9998V21.3333ZM20.6665 4H17.9998L16.6665 6.66667H19.3332L20.6665 4ZM12.6665 6.66667H15.3332L13.9998 4H11.3332L12.6665 6.66667Z" stroke="#299E58" stroke-width="2" stroke-linecap="round" stroke-linejoin="round"/>
</svg>
