<svg width="25" height="24" viewBox="0 0 25 24" fill="none" xmlns="http://www.w3.org/2000/svg">
<path d="M16.6641 8V8.5H17.1641H18.1641C18.5619 8.5 18.9434 8.65804 19.2247 8.93934C19.506 9.22065 19.6641 9.60218 19.6641 10V20C19.6641 20.3978 19.506 20.7794 19.2247 21.0607C18.9434 21.342 18.5619 21.5 18.1641 21.5H6.16406C5.76624 21.5 5.38471 21.342 5.1034 21.0607C4.8221 20.7794 4.66406 20.3978 4.66406 20V10C4.66406 9.60218 4.8221 9.22064 5.1034 8.93934C5.38471 8.65804 5.76624 8.5 6.16406 8.5H7.16406H7.66406V8V7C7.66406 5.80653 8.13817 4.66193 8.98208 3.81802C9.826 2.97411 10.9706 2.5 12.1641 2.5C13.3575 2.5 14.5021 2.97411 15.346 3.81802C16.19 4.66193 16.6641 5.80653 16.6641 7V8ZM15.1641 8.5H15.6641V8V7C15.6641 6.07174 15.2953 5.1815 14.6389 4.52513C13.9826 3.86875 13.0923 3.5 12.1641 3.5C11.2358 3.5 10.3456 3.86875 9.68919 4.52513C9.03281 5.1815 8.66406 6.07174 8.66406 7V8V8.5H9.16406H15.1641Z" fill="#E0990C" fill-opacity="0.1" stroke="#E0990C"/>
<path d="M12.165 12C11.5912 12.0007 11.0351 12.1987 10.59 12.5609C10.1449 12.9231 9.838 13.4274 9.72073 13.9891C9.60347 14.5508 9.683 15.1358 9.94599 15.6458C10.209 16.1558 10.6394 16.5598 11.165 16.79V18C11.165 18.2652 11.2704 18.5196 11.4579 18.7071C11.6455 18.8946 11.8998 19 12.165 19C12.4302 19 12.6846 18.8946 12.8721 18.7071C13.0597 18.5196 13.165 18.2652 13.165 18V16.79C13.6907 16.5598 14.1211 16.1558 14.3841 15.6458C14.6471 15.1358 14.7266 14.5508 14.6093 13.9891C14.4921 13.4274 14.1851 12.9231 13.7401 12.5609C13.295 12.1987 12.7389 12.0007 12.165 12Z" fill="#E0990C"/>
</svg>
