<svg width="24" height="25" viewBox="0 0 24 25" fill="none" xmlns="http://www.w3.org/2000/svg">
<path d="M21.0005 8.1968C20.9693 8.06512 20.9116 7.94115 20.831 7.8324C20.7505 7.72365 20.6487 7.63239 20.5318 7.56414C20.415 7.49589 20.2854 7.45207 20.1511 7.43534C20.0168 7.41861 19.8805 7.42931 19.7505 7.4668C19.1236 7.60371 18.4683 7.50398 17.9105 7.1868C16.8488 6.65386 15.6669 6.40576 14.4805 6.4668L14.7705 4.8468C14.8218 4.56018 14.8099 4.26582 14.7356 3.98428C14.6614 3.70274 14.5265 3.44081 14.3405 3.2168C14.1554 2.98554 13.9212 2.79829 13.6549 2.66859C13.3885 2.53888 13.0967 2.46996 12.8005 2.4668H9.2005C8.90668 2.46632 8.61636 2.53059 8.3502 2.65503C8.08403 2.77947 7.84855 2.96103 7.6605 3.1868C7.4745 3.41081 7.33965 3.67274 7.26538 3.95428C7.19111 4.23582 7.1792 4.53018 7.2305 4.8168L7.7305 7.6468C7.7731 7.87976 7.89699 8.09004 8.08012 8.2402C8.26324 8.39036 8.49371 8.47066 8.7305 8.4668H13.3705C14.5367 8.32462 15.7201 8.46525 16.8205 8.8768C17.5226 9.3227 18.3389 9.55543 19.1705 9.5468C19.5357 9.56225 19.9015 9.53541 20.2605 9.4668C20.3953 9.43698 20.5225 9.37957 20.6341 9.29817C20.7456 9.21677 20.8391 9.11315 20.9086 8.99384C20.9781 8.87453 21.0222 8.74212 21.038 8.60494C21.0538 8.46776 21.041 8.3288 21.0005 8.1968Z" fill="white" fill-opacity="0.5"/>
<path d="M14.2745 8.0218L14.2756 8.02401L17.2755 14.0238C17.2755 14.0239 17.2755 14.0239 17.2756 14.024C17.7495 14.9725 17.9974 16.0177 18 17.078C18.0006 17.9325 17.7276 18.7647 17.2209 19.4527C16.7158 20.1387 16.0048 20.6454 15.1918 20.8992C13.8345 21.2938 12.4263 21.4851 11.0129 21.4669L11 21.4667L10.9871 21.4669C9.57375 21.4851 8.1655 21.2938 6.80823 20.8992C5.99516 20.6454 5.28425 20.1387 4.7791 19.4527C4.27248 18.7648 3.99946 17.9327 4 17.0783C4.00253 16.018 4.25047 14.9726 4.72443 14.024C4.72446 14.0239 4.7245 14.0239 4.72454 14.0238L7.72443 8.02401L7.72553 8.0218C7.80832 7.85519 7.93595 7.71498 8.09405 7.61694C8.25211 7.51892 8.43437 7.46693 8.62034 7.4668H13.3797C13.5656 7.46693 13.7479 7.51892 13.9059 7.61694C14.0641 7.71498 14.1917 7.85519 14.2745 8.0218Z" stroke="white" stroke-width="2"/>
</svg>
