<svg width="24" height="25" viewBox="0 0 24 25" fill="none" xmlns="http://www.w3.org/2000/svg">
<path d="M12 15.4668C13.6569 15.4668 15 14.1237 15 12.4668C15 10.8099 13.6569 9.4668 12 9.4668C10.3431 9.4668 9 10.8099 9 12.4668C9 14.1237 10.3431 15.4668 12 15.4668Z" stroke="white" stroke-opacity="0.5" stroke-width="2" stroke-linecap="round" stroke-linejoin="round"/>
<path d="M20 10.4668H19.41C19.2033 10.466 19.0019 10.4011 18.8336 10.2811C18.6652 10.1611 18.5382 9.99194 18.47 9.7968C18.381 9.60949 18.3525 9.39916 18.3883 9.19492C18.4241 8.99068 18.5226 8.80263 18.67 8.6568L19.08 8.2468C19.1737 8.15383 19.2481 8.04323 19.2989 7.92137C19.3497 7.79951 19.3758 7.66881 19.3758 7.5368C19.3758 7.40479 19.3497 7.27408 19.2989 7.15222C19.2481 7.03036 19.1737 6.91976 19.08 6.8268L17.66 5.3968C17.567 5.30307 17.4564 5.22867 17.3346 5.17791C17.2127 5.12714 17.082 5.101 16.95 5.101C16.818 5.101 16.6873 5.12714 16.5654 5.17791C16.4436 5.22867 16.333 5.30307 16.24 5.3968L15.83 5.8068C15.6842 5.95422 15.4961 6.05265 15.2919 6.08849C15.0876 6.12432 14.8773 6.09577 14.69 6.0068C14.4895 5.94143 14.3148 5.81435 14.1909 5.64373C14.067 5.4731 14.0002 5.26767 14 5.0568V4.4668C14 4.20158 13.8946 3.94723 13.7071 3.75969C13.5196 3.57215 13.2652 3.4668 13 3.4668H11C10.7348 3.4668 10.4804 3.57215 10.2929 3.75969C10.1054 3.94723 10 4.20158 10 4.4668V5.0568C9.99918 5.26351 9.93431 5.4649 9.81433 5.63323C9.69434 5.80157 9.52514 5.92858 9.33 5.9968V5.9968C9.1427 6.08577 8.93237 6.11432 8.72812 6.07849C8.52388 6.04265 8.33583 5.94422 8.19 5.7968L7.78 5.3868C7.68704 5.29307 7.57644 5.21867 7.45458 5.16791C7.33272 5.11714 7.20201 5.091 7.07 5.091C6.93799 5.091 6.80728 5.11714 6.68542 5.16791C6.56356 5.21867 6.45296 5.29307 6.36 5.3868L4.93 6.8068C4.83627 6.89976 4.76188 7.01036 4.71111 7.13222C4.66034 7.25408 4.6342 7.38479 4.6342 7.5168C4.6342 7.64881 4.66034 7.77951 4.71111 7.90137C4.76188 8.02323 4.83627 8.13383 4.93 8.2268L5.34 8.6368C5.48742 8.78263 5.58586 8.97068 5.62169 9.17492C5.65752 9.37916 5.62897 9.58949 5.54 9.7768C5.47178 9.97194 5.34477 10.1411 5.17643 10.2611C5.0081 10.3811 4.80672 10.446 4.6 10.4468H4C3.73478 10.4468 3.48043 10.5522 3.29289 10.7397C3.10536 10.9272 3 11.1816 3 11.4468V13.4468C3 13.712 3.10536 13.9664 3.29289 14.1539C3.48043 14.3414 3.73478 14.4468 4 14.4468H4.59C4.79672 14.4476 4.9981 14.5125 5.16643 14.6325C5.33477 14.7525 5.46178 14.9217 5.53 15.1168V15.1168C5.61897 15.3041 5.64752 15.5144 5.61169 15.7187C5.57586 15.9229 5.47742 16.111 5.33 16.2568L4.92 16.6668C4.82627 16.7598 4.75188 16.8704 4.70111 16.9922C4.65034 17.1141 4.6242 17.2448 4.6242 17.3768C4.6242 17.5088 4.65034 17.6395 4.70111 17.7614C4.75188 17.8832 4.82627 17.9938 4.92 18.0868L6.33 19.4968C6.42296 19.5905 6.53356 19.6649 6.65542 19.7157C6.77728 19.7665 6.90799 19.7926 7.04 19.7926C7.17201 19.7926 7.30272 19.7665 7.42458 19.7157C7.54644 19.6649 7.65704 19.5905 7.75 19.4968L8.16 19.0868C8.30583 18.9394 8.49388 18.8409 8.69812 18.8051C8.90237 18.7693 9.1127 18.7978 9.3 18.8868C9.49514 18.955 9.66434 19.082 9.78433 19.2504C9.90431 19.4187 9.96918 19.6201 9.97 19.8268V20.4668C9.97 20.732 10.0754 20.9864 10.2629 21.1739C10.4504 21.3614 10.7048 21.4668 10.97 21.4668H12.97C13.2352 21.4668 13.4896 21.3614 13.6771 21.1739C13.8646 20.9864 13.97 20.732 13.97 20.4668V19.8768C13.9708 19.6701 14.0357 19.4687 14.1557 19.3004C14.2757 19.132 14.4449 19.005 14.64 18.9368C14.8273 18.8478 15.0376 18.8193 15.2419 18.8551C15.4461 18.8909 15.6342 18.9894 15.78 19.1368L16.19 19.5468C16.283 19.6405 16.3936 19.7149 16.5154 19.7657C16.6373 19.8165 16.768 19.8426 16.9 19.8426C17.032 19.8426 17.1627 19.8165 17.2846 19.7657C17.4064 19.7149 17.517 19.6405 17.61 19.5468L19.02 18.1368C19.1137 18.0438 19.1881 17.9332 19.2389 17.8114C19.2897 17.6895 19.3158 17.5588 19.3158 17.4268C19.3158 17.2948 19.2897 17.1641 19.2389 17.0422C19.1881 16.9204 19.1137 16.8098 19.02 16.7168L18.61 16.3068C18.4626 16.161 18.3641 15.9729 18.3283 15.7687C18.2925 15.5644 18.321 15.3541 18.41 15.1668V15.1668C18.4782 14.9717 18.6052 14.8025 18.7736 14.6825C18.9419 14.5625 19.1433 14.4976 19.35 14.4968H20C20.2652 14.4968 20.5196 14.3914 20.7071 14.2039C20.8946 14.0164 21 13.762 21 13.4968V11.4668C21 11.2016 20.8946 10.9472 20.7071 10.7597C20.5196 10.5722 20.2652 10.4668 20 10.4668Z" stroke="white" stroke-width="2" stroke-linecap="round" stroke-linejoin="round"/>
</svg>
