<svg width="24" height="25" viewBox="0 0 24 25" fill="none" xmlns="http://www.w3.org/2000/svg">
<path d="M21 8.19668C20.9688 8.065 20.9111 7.94103 20.8306 7.83228C20.75 7.72353 20.6482 7.63227 20.5313 7.56402C20.4145 7.49576 20.285 7.45195 20.1507 7.43521C20.0164 7.41848 19.8801 7.42919 19.75 7.46668C19.1231 7.60359 18.4678 7.50386 17.91 7.18668C16.8483 6.65374 15.6664 6.40564 14.48 6.46668L14.77 4.84668C14.8213 4.56006 14.8094 4.2657 14.7351 3.98416C14.6609 3.70262 14.526 3.44069 14.34 3.21668C14.1549 2.98542 13.9207 2.79817 13.6544 2.66847C13.388 2.53876 13.0962 2.46984 12.8 2.46668H9.20002C8.90619 2.4662 8.61588 2.53047 8.34971 2.65491C8.08354 2.77935 7.84806 2.96091 7.66002 3.18668C7.47401 3.41069 7.33916 3.67262 7.26489 3.95416C7.19062 4.2357 7.17872 4.53006 7.23002 4.81668L7.73002 7.64668C7.77261 7.87964 7.8965 8.08992 8.07963 8.24008C8.26275 8.39024 8.49323 8.47054 8.73001 8.46668H13.37C14.5363 8.3245 15.7196 8.46513 16.82 8.87668C17.5221 9.32258 18.3384 9.55531 19.17 9.54668C19.5352 9.56213 19.901 9.53528 20.26 9.46668C20.3948 9.43686 20.522 9.37944 20.6336 9.29804C20.7451 9.21664 20.8386 9.11303 20.9081 8.99372C20.9776 8.87441 21.0217 8.74199 21.0375 8.60482C21.0533 8.46764 21.0406 8.32868 21 8.19668Z" fill="white" fill-opacity="0.5"/>
<path d="M14.2745 8.02168L14.2756 8.02389L17.2755 14.0237C17.2755 14.0237 17.2755 14.0238 17.2756 14.0239C17.7495 14.9723 17.9974 16.0176 18 17.0779C18.0006 17.9323 17.7276 18.7646 17.2209 19.4526C16.7158 20.1386 16.0048 20.6453 15.1918 20.8991C13.8345 21.2936 12.4263 21.485 11.0129 21.4668L11 21.4666L10.9871 21.4668C9.57375 21.485 8.1655 21.2936 6.80823 20.8991C5.99516 20.6453 5.28425 20.1386 4.7791 19.4526C4.27248 18.7646 3.99946 17.9326 4 17.0782C4.00253 16.0178 4.25047 14.9724 4.72443 14.0239C4.72446 14.0238 4.7245 14.0237 4.72454 14.0237L7.72443 8.02389L7.72553 8.02167C7.80832 7.85507 7.93595 7.71486 8.09405 7.61681C8.25211 7.5188 8.43437 7.46681 8.62034 7.46667H13.3797C13.5656 7.46681 13.7479 7.5188 13.9059 7.61681C14.0641 7.71486 14.1917 7.85507 14.2745 8.02168Z" stroke="white" stroke-width="2"/>
</svg>
