<svg width="32" height="32" viewBox="0 0 32 32" fill="none" xmlns="http://www.w3.org/2000/svg">
<path d="M12.0013 12H20.0013M25.3346 6.66667V26.6667C25.3346 27.0203 25.1942 27.3594 24.9441 27.6095C24.6941 27.8595 24.3549 28 24.0013 28H8.0013C7.64768 28 7.30854 27.8595 7.05849 27.6095C6.80844 27.3594 6.66797 27.0203 6.66797 26.6667V5.33333C6.66797 4.97971 6.80844 4.64057 7.05849 4.39052C7.30854 4.14048 7.64768 4 8.0013 4H22.668L25.3346 6.66667ZM22.668 4V6.66667H25.3346L22.668 4ZM20.0013 22.6667H12.0013H20.0013ZM12.0013 17.3333H20.0013H12.0013Z" stroke="#3B656B" stroke-linecap="round" stroke-linejoin="round"/>
</svg>
