<svg width="36" height="36" viewBox="0 0 36 36" fill="none" xmlns="http://www.w3.org/2000/svg">
<path d="M29.07 21.57C29.3652 21.8656 29.5993 22.2164 29.7589 22.6025C29.9184 22.9885 30.0004 23.4023 30 23.82V23.82C30 24.6634 29.665 25.4722 29.0686 26.0686C28.4722 26.665 27.6634 27 26.82 27H9.18C8.33661 27 7.52777 26.665 6.9314 26.0686C6.33504 25.4722 6 24.6634 6 23.82V23.82C5.99963 23.4023 6.08158 22.9885 6.24115 22.6025C6.40072 22.2164 6.6348 21.8656 6.93 21.57L9 19.5V13.5C9 11.1131 9.94821 8.82387 11.636 7.13604C13.3239 5.44821 15.6131 4.5 18 4.5V4.5C20.3869 4.5 22.6761 5.44821 24.364 7.13604C26.0518 8.82387 27 11.1131 27 13.5V19.5L29.07 21.57ZM22.5 27H13.5C13.5 28.1935 13.9741 29.3381 14.818 30.182C15.6619 31.0259 16.8065 31.5 18 31.5C19.1935 31.5 20.3381 31.0259 21.182 30.182C22.0259 29.3381 22.5 28.1935 22.5 27Z" stroke="#299E58" stroke-width="2" stroke-linecap="round" stroke-linejoin="round"/>
</svg>
