<svg width="32" height="32" viewBox="0 0 32 32" fill="none" xmlns="http://www.w3.org/2000/svg">
<path d="M25.332 26.6673L27.9987 24.0007L25.332 21.334" stroke="#3B656B" stroke-linecap="round" stroke-linejoin="round"/>
<path d="M6.66667 5.33398L4 8.00065L6.66667 10.6673" stroke="#3B656B" stroke-width="2" stroke-linecap="round" stroke-linejoin="round"/>
<path d="M28 24H12C10.9391 24 9.92172 23.5786 9.17157 22.8284C8.42143 22.0783 8 21.0609 8 20V20C8 18.9391 8.42143 17.9217 9.17157 17.1716C9.92172 16.4214 10.9391 16 12 16H20C21.0609 16 22.0783 15.5786 22.8284 14.8284C23.5786 14.0783 24 13.0609 24 12C24 10.9391 23.5786 9.92172 22.8284 9.17157C22.0783 8.42143 21.0609 8 20 8H4" stroke="#3B656B" stroke-width="2" stroke-linecap="round" stroke-linejoin="round"/>
</svg>
