<svg width="20" height="20" viewBox="0 0 20 20" fill="none" xmlns="http://www.w3.org/2000/svg">
<path d="M14.1654 6.66667C14.1654 7.49076 13.921 8.29634 13.4632 8.98154C13.0053 9.66675 12.3546 10.2008 11.5932 10.5162C10.8319 10.8315 9.99408 10.914 9.18582 10.7533C8.37757 10.5925 7.63514 10.1957 7.05242 9.61294C6.4697 9.03023 6.07286 8.2878 5.91209 7.47954C5.75132 6.67129 5.83383 5.83351 6.1492 5.07215C6.46456 4.31079 6.99862 3.66005 7.68382 3.20221C8.36903 2.74437 9.17461 2.5 9.9987 2.5C11.1038 2.5 12.1636 2.93899 12.945 3.72039C13.7264 4.50179 14.1654 5.5616 14.1654 6.66667ZM10.832 10.8333H9.16536C7.61827 10.8333 6.13454 11.4479 5.04057 12.5419C3.94661 13.6358 3.33203 15.1196 3.33203 16.6667V16.6667C3.33203 16.8877 3.41983 17.0996 3.57611 17.2559C3.73239 17.4122 3.94435 17.5 4.16536 17.5H15.832C16.053 17.5 16.265 17.4122 16.4213 17.2559C16.5776 17.0996 16.6654 16.8877 16.6654 16.6667C16.6654 15.1196 16.0508 13.6358 14.9568 12.5419C13.8629 11.4479 12.3791 10.8333 10.832 10.8333V10.8333Z" stroke="#8F9096" stroke-linecap="round" stroke-linejoin="round"/>
</svg>
