<svg width="16" height="17" viewBox="0 0 16 17" fill="none" xmlns="http://www.w3.org/2000/svg">
<path d="M10.668 9.63355H12.3346C12.5999 9.63355 12.8542 9.52819 13.0417 9.34065C13.2293 9.15312 13.3346 8.89876 13.3346 8.63355C13.3346 8.36833 13.2293 8.11397 13.0417 7.92644C12.8542 7.7389 12.5999 7.63355 12.3346 7.63355H11.668C11.4028 7.63355 11.1484 7.52819 10.9609 7.34065C10.7733 7.15312 10.668 6.89876 10.668 6.63355C10.668 6.36833 10.7733 6.11397 10.9609 5.92644C11.1484 5.7389 11.4028 5.63354 11.668 5.63354H13.3346" stroke="white" stroke-linecap="round" stroke-linejoin="round"/>
<path d="M7.9987 8.30013H5.33203M11.9987 5.63346V4.9668V5.63346ZM11.9987 10.3001V9.63346V10.3001ZM7.9987 10.9668H5.33203H7.9987Z" stroke="white" stroke-linecap="round" stroke-linejoin="round"/>
<path d="M9.33464 2.9668H3.33464C3.15782 2.9668 2.98826 3.03703 2.86323 3.16206C2.73821 3.28708 2.66797 3.45665 2.66797 3.63346V14.9668L4.22797 14.3001L5.7813 14.9668L7.33464 14.3001L8.88797 14.9668L10.4413 14.3001L12.0013 14.9668V12.9668" stroke="white" stroke-opacity="0.5" stroke-linecap="round" stroke-linejoin="round"/>
</svg>
