<svg width="16" height="17" viewBox="0 0 16 17" fill="none" xmlns="http://www.w3.org/2000/svg">
<path d="M10.668 7.96667L9.39464 9.63334L8.66797 8.80001" stroke="white" stroke-linecap="round" stroke-linejoin="round"/>
<path d="M5.33464 5.6333H3.66797C3.40275 5.6333 3.1484 5.73866 2.96086 5.92619C2.77333 6.11373 2.66797 6.36808 2.66797 6.6333C2.66797 6.89852 2.77333 7.15287 2.96086 7.34041C3.1484 7.52794 3.40275 7.6333 3.66797 7.6333H4.33464C4.59985 7.6333 4.85421 7.73866 5.04174 7.92619C5.22928 8.11373 5.33464 8.36808 5.33464 8.6333C5.33464 8.89852 5.22928 9.15287 5.04174 9.34041C4.85421 9.52794 4.59985 9.6333 4.33464 9.6333H2.66797" stroke="white" stroke-linecap="round" stroke-linejoin="round"/>
<path d="M4 10.3V9.63334M6.66667 12.3H10.6667H6.66667ZM4 5.63334V4.96667V5.63334Z" stroke="white" stroke-linecap="round" stroke-linejoin="round"/>
<path d="M4 12.9667V14.3C4 14.4768 4.07024 14.6464 4.19526 14.7714C4.32029 14.8964 4.48986 14.9667 4.66667 14.9667H12.6667C12.8435 14.9667 13.013 14.8964 13.1381 14.7714C13.2631 14.6464 13.3333 14.4768 13.3333 14.3V3.63334C13.3333 3.45653 13.2631 3.28696 13.1381 3.16194C13.013 3.03691 12.8435 2.96667 12.6667 2.96667H6" stroke="white" stroke-opacity="0.5" stroke-linecap="round" stroke-linejoin="round"/>
</svg>
