<svg width="24" height="24" viewBox="0 0 24 24" fill="none" xmlns="http://www.w3.org/2000/svg">
<path d="M17.0001 4H20.0001C20.2653 4 20.5196 4.10536 20.7072 4.29289C20.8947 4.48043 21.0001 4.73478 21.0001 5V19C21.0001 19.2652 20.8947 19.5196 20.7072 19.7071C20.5196 19.8946 20.2653 20 20.0001 20H17.0001M9.44007 5.65L11.0001 7C11.0999 7.08536 11.1819 7.18954 11.2414 7.30659C11.301 7.42365 11.3369 7.55128 11.3471 7.68222C11.3573 7.81315 11.3416 7.94481 11.301 8.06968C11.2603 8.19456 11.1954 8.3102 11.1101 8.41L9.66007 10H17.0001V14H9.66007L11.0701 15.64C11.2473 15.8365 11.3395 16.0952 11.3264 16.3595C11.3132 16.6237 11.1959 16.8721 11.0001 17.05L9.48007 18.35C9.37887 18.4465 9.25856 18.5208 9.12688 18.5679C8.99521 18.6151 8.85511 18.6341 8.71563 18.6237C8.57616 18.6134 8.4404 18.5739 8.31715 18.5078C8.19389 18.4417 8.08587 18.3504 8.00007 18.24L3.24007 12.65C3.08514 12.4689 3 12.2384 3 12C3 11.7616 3.08514 11.5311 3.24007 11.35L8.00007 5.76C8.08572 5.65574 8.19158 5.56989 8.31128 5.50763C8.43099 5.44536 8.56205 5.40796 8.69659 5.39769C8.83113 5.38741 8.96635 5.40447 9.09413 5.44783C9.2219 5.49119 9.33957 5.55996 9.44007 5.65V5.65Z" stroke="#09212F" stroke-linecap="round" stroke-linejoin="round"/>
</svg>
