<svg width="24" height="24" viewBox="0 0 24 24" fill="none" xmlns="http://www.w3.org/2000/svg">
<path d="M12 3V9L10 8L8 9V3H12ZM19 20V4C19 3.73478 18.8946 3.48043 18.7071 3.29289C18.5196 3.10536 18.2652 3 18 3H5C4.73478 3 4.48043 3.10536 4.29289 3.29289C4.10536 3.48043 4 3.73478 4 4V20C4 20.2652 4.10536 20.5196 4.29289 20.7071C4.48043 20.8946 4.73478 21 5 21H18C18.2652 21 18.5196 20.8946 18.7071 20.7071C18.8946 20.5196 19 20.2652 19 20ZM21 7H19V9H21V7ZM21 13H19V15H21V13Z" stroke="#09212F" stroke-linecap="round" stroke-linejoin="round"/>
</svg>
