<svg width="16" height="17" viewBox="0 0 16 17" fill="none" xmlns="http://www.w3.org/2000/svg">
<path d="M6.66797 9.63338V8.30005M6.66797 4.30005V5.63338V4.30005ZM6.66797 12.3V13.6334V12.3Z" stroke="white" stroke-opacity="0.5" stroke-width="2" stroke-linecap="round" stroke-linejoin="round"/>
<path d="M12 8.96672C12 9.49715 12.2107 10.0059 12.5858 10.3809C12.9609 10.756 13.4696 10.9667 14 10.9667V12.9667C14 13.1435 13.9298 13.3131 13.8047 13.4381C13.6797 13.5631 13.5101 13.6334 13.3333 13.6334H2.66667C2.48986 13.6334 2.32029 13.5631 2.19526 13.4381C2.07024 13.3131 2 13.1435 2 12.9667V10.9667C2.53043 10.9667 3.03914 10.756 3.41421 10.3809C3.78929 10.0059 4 9.49715 4 8.96672C4 8.43628 3.78929 7.92757 3.41421 7.5525C3.03914 7.17743 2.53043 6.96672 2 6.96672V4.96672C2 4.7899 2.07024 4.62034 2.19526 4.49531C2.32029 4.37029 2.48986 4.30005 2.66667 4.30005H13.3333C13.5101 4.30005 13.6797 4.37029 13.8047 4.49531C13.9298 4.62034 14 4.7899 14 4.96672V6.96672C13.4696 6.96672 12.9609 7.17743 12.5858 7.5525C12.2107 7.92757 12 8.43628 12 8.96672V8.96672Z" stroke="white" stroke-linecap="round" stroke-linejoin="round"/>
</svg>
