<svg width="40" height="40" viewBox="0 0 40 40" fill="none" xmlns="http://www.w3.org/2000/svg">
<path d="M26.6654 15V11.6667C26.6654 9.89856 25.963 8.20286 24.7127 6.95262C23.4625 5.70238 21.7668 5 19.9987 5C18.2306 5 16.5349 5.70238 15.2847 6.95262C14.0344 8.20286 13.332 9.89856 13.332 11.6667V15M29.9987 35H9.9987C9.55667 35 9.13275 34.8244 8.82019 34.5118C8.50763 34.1993 8.33203 33.7754 8.33203 33.3333V16.6667C8.33203 16.2246 8.50763 15.8007 8.82019 15.4882C9.13275 15.1756 9.55667 15 9.9987 15H29.9987C30.4407 15 30.8646 15.1756 31.1772 15.4882C31.4898 15.8007 31.6654 16.2246 31.6654 16.6667V33.3333C31.6654 33.7754 31.4898 34.1993 31.1772 34.5118C30.8646 34.8244 30.4407 35 29.9987 35Z" stroke="#3B656B" stroke-width="2" stroke-linecap="round" stroke-linejoin="round"/>
</svg>
