<svg width="41" height="40" viewBox="0 0 41 40" fill="none" xmlns="http://www.w3.org/2000/svg">
<path d="M20.6693 5V15L17.3359 13.3333L14.0026 15V5H20.6693ZM32.3359 33.3333V6.66667C32.3359 6.22464 32.1603 5.80072 31.8478 5.48816C31.5352 5.17559 31.1113 5 30.6693 5H9.0026C8.56058 5 8.13665 5.17559 7.82409 5.48816C7.51153 5.80072 7.33594 6.22464 7.33594 6.66667V33.3333C7.33594 33.7754 7.51153 34.1993 7.82409 34.5118C8.13665 34.8244 8.56058 35 9.0026 35H30.6693C31.1113 35 31.5352 34.8244 31.8478 34.5118C32.1603 34.1993 32.3359 33.7754 32.3359 33.3333ZM35.6693 11.6667H32.3359V15H35.6693V11.6667ZM35.6693 21.6667H32.3359V25H35.6693V21.6667Z" stroke="#299e58" stroke-width="2" stroke-linecap="round" stroke-linejoin="round"/>
</svg>
