<svg width="40" height="40" viewBox="0 0 40 40" fill="none" xmlns="http://www.w3.org/2000/svg">
<path d="M30 16.6673V15.0007C30 14.5586 29.8244 14.1347 29.5118 13.8221C29.1993 13.5096 28.7754 13.334 28.3333 13.334H23.3333L20 16.6673H6.66667C6.22464 16.6673 5.80072 16.8429 5.48816 17.1555C5.17559 17.468 5 17.892 5 18.334V30.0006C5 30.4427 5.17559 30.8666 5.48816 31.1792C5.80072 31.4917 6.22464 31.6673 6.66667 31.6673H18.3333" stroke="#099CBC" stroke-width="2" stroke-linecap="round" stroke-linejoin="round"/>
<path d="M23.332 13.3333L19.9987 16.6667H8.33203V6.66667C8.33203 6.22464 8.50763 5.80072 8.82019 5.48816C9.13275 5.17559 9.55667 5 9.9987 5H24.9987C25.4407 5 25.8646 5.17559 26.1772 5.48816C26.4898 5.80072 26.6654 6.22464 26.6654 6.66667V13.3333H23.332ZM29.9987 23.3333L34.9987 25C34.9987 31.6667 33.9654 33.5 29.9987 35C26.032 33.5 24.9987 31.6667 24.9987 25L29.9987 23.3333Z" stroke="#099CBC" stroke-width="2" stroke-linecap="round" stroke-linejoin="round"/>
</svg>
