<svg width="20" height="20" viewBox="0 0 20 20" fill="none" xmlns="http://www.w3.org/2000/svg">
<path d="M14.1667 5.83333V16.6667C14.1667 16.8877 14.0789 17.0996 13.9226 17.2559C13.7663 17.4122 13.5543 17.5 13.3333 17.5H7.5L2.5 12.5V5.83333C2.5 5.61232 2.5878 5.40036 2.74408 5.24408C2.90036 5.0878 3.11232 5 3.33333 5H13.3333" stroke="#8F9096" stroke-linecap="round" stroke-linejoin="round"/>
<path d="M13.825 5.34167L11.6667 7.5M2.5 12.5L7.5 17.5V12.5H2.5ZM16.6667 4.16667C16.6667 3.72464 16.4911 3.30072 16.1785 2.98816C15.866 2.67559 15.442 2.5 15 2.5C14.558 2.5 14.134 2.67559 13.8215 2.98816C13.5089 3.30072 13.3333 3.72464 13.3333 4.16667V4.16667C13.3333 4.60869 13.5089 5.03262 13.8215 5.34518C14.134 5.65774 14.558 5.83333 15 5.83333C15.442 5.83333 15.866 5.65774 16.1785 5.34518C16.4911 5.03262 16.6667 4.60869 16.6667 4.16667Z" stroke="#8F9096" stroke-linecap="round" stroke-linejoin="round"/>
</svg>
