<svg width="25" height="24" viewBox="0 0 25 24" fill="none" xmlns="http://www.w3.org/2000/svg">
<g id="helicopter">
<path id="primary" d="M12.5 7V12C12.5 12.2652 12.6054 12.5196 12.7929 12.7071C12.9804 12.8946 13.2348 13 13.5 13H21.43" stroke="#3B656B" stroke-linecap="round" stroke-linejoin="round"/>
<path id="primary_2" d="M6.5 3H18.5H6.5ZM7.5 21H21.5H7.5ZM12.5 3V7V3ZM3.5 8V10C3.5 10.2652 3.60536 10.5196 3.79289 10.7071C3.98043 10.8946 4.23478 11 4.5 11H6.78C6.99807 10.9886 7.21386 11.0489 7.39443 11.1717C7.575 11.2945 7.71042 11.473 7.78 11.68L8.64 14.26C8.90163 15.0486 9.40232 15.7361 10.0725 16.2271C10.7428 16.7181 11.5492 16.9883 12.38 17H20.5C20.7652 17 21.0196 16.8946 21.2071 16.7071C21.3946 16.5196 21.5 16.2652 21.5 16V13L19.61 9.21C19.2775 8.54544 18.7664 7.98666 18.134 7.59631C17.5017 7.20595 16.7731 6.99947 16.03 7H4.5C4.23478 7 3.98043 7.10536 3.79289 7.29289C3.60536 7.48043 3.5 7.73478 3.5 8V8ZM16.5 17H12.5V21H16.5V17Z" stroke="#3B656B" stroke-linecap="round" stroke-linejoin="round"/>
</g>
</svg>
