<svg width="20" height="20" viewBox="0 0 16 17" fill="none" xmlns="http://www.w3.org/2000/svg">
<path d="M8 16C6.01088 16 4.10322 15.2098 2.6967 13.8033C1.29018 12.3968 0.5 10.4891 0.5 8.5V8.5C0.5 6.51088 1.29018 4.60322 2.6967 3.1967C4.10322 1.79018 6.01088 1 8 1V1C9.98912 1 11.8968 1.79018 13.3033 3.1967C14.7098 4.60322 15.5 6.51088 15.5 8.5V8.5C15.5 10.4891 14.7098 12.3968 13.3033 13.8033C11.8968 15.2098 9.98912 16 8 16V16ZM8 4.33333C7.34073 4.33333 6.69626 4.52883 6.1481 4.8951C5.59994 5.26137 5.17269 5.78197 4.9204 6.39105C4.66811 7.00014 4.6021 7.67036 4.73072 8.31697C4.85933 8.96357 5.1768 9.55751 5.64298 10.0237C6.10915 10.4899 6.7031 10.8073 7.3497 10.936C7.9963 11.0646 8.66652 10.9986 9.27561 10.7463C9.8847 10.494 10.4053 10.0667 10.7716 9.51857C11.1378 8.9704 11.3333 8.32594 11.3333 7.66667C11.3333 6.78261 10.9821 5.93477 10.357 5.30964C9.7319 4.68452 8.88405 4.33333 8 4.33333ZM9.80833 10.4583C9.27132 10.8114 8.64269 10.9995 8 10.9995C7.35731 10.9995 6.72868 10.8114 6.19167 10.4583C5.39813 10.7161 4.66911 11.1411 4.05383 11.7046C3.43854 12.2681 2.9513 12.9571 2.625 13.725C3.31768 14.4367 4.1448 15.0037 5.05836 15.3931C5.97192 15.7826 6.95374 15.9867 7.94682 15.9937C8.93991 16.0007 9.9245 15.8104 10.8434 15.4338C11.7624 15.0572 12.5974 14.5019 13.3 13.8L13.375 13.725C13.0487 12.9571 12.5615 12.2681 11.9462 11.7046C11.3309 11.1411 10.6019 10.7161 9.80833 10.4583V10.4583Z" stroke="#8F9096" stroke-linecap="round" stroke-linejoin="round"/>
</svg>
