<svg width="20" height="20" viewBox="0 0 13 17" fill="none" xmlns="http://www.w3.org/2000/svg">
<path d="M3.99935 7.66667H5.66602M12.3327 2.66667V15.1667C12.3327 15.3877 12.2449 15.5996 12.0886 15.7559C11.9323 15.9122 11.7204 16 11.4993 16H1.49935C1.27834 16 1.06637 15.9122 0.910093 15.7559C0.753813 15.5996 0.666016 15.3877 0.666016 15.1667V1.83333C0.666016 1.61232 0.753813 1.40036 0.910093 1.24408C1.06637 1.0878 1.27834 1 1.49935 1H10.666L12.3327 2.66667ZM10.666 1V2.66667H12.3327L10.666 1ZM4.83268 1V9.33333V1ZM3.99935 4.33333H5.66602H3.99935Z" stroke="#8F9096" stroke-linecap="round" stroke-linejoin="round"/>
</svg>
