<svg width="24" height="24" viewBox="0 0 24 24" fill="none" xmlns="http://www.w3.org/2000/svg">
<path d="M18 8H17V7C17 5.67392 16.4732 4.40215 15.5355 3.46447C14.5979 2.52678 13.3261 2 12 2C10.6739 2 9.40215 2.52678 8.46447 3.46447C7.52678 4.40215 7 5.67392 7 7V8H6C5.46957 8 4.96086 8.21071 4.58579 8.58579C4.21071 8.96086 4 9.46957 4 10V20C4 20.5304 4.21071 21.0391 4.58579 21.4142C4.96086 21.7893 5.46957 22 6 22H18C18.5304 22 19.0391 21.7893 19.4142 21.4142C19.7893 21.0391 20 20.5304 20 20V10C20 9.46957 19.7893 8.96086 19.4142 8.58579C19.0391 8.21071 18.5304 8 18 8ZM9 7C9 6.20435 9.31607 5.44129 9.87868 4.87868C10.4413 4.31607 11.2044 4 12 4C12.7956 4 13.5587 4.31607 14.1213 4.87868C14.6839 5.44129 15 6.20435 15 7V8H9V7Z" fill="white"/>
<path d="M12.001 12C11.4271 12.0007 10.871 12.1987 10.4259 12.5609C9.98087 12.9231 9.67394 13.4274 9.55667 13.9891C9.4394 14.5508 9.51894 15.1358 9.78193 15.6458C10.0449 16.1558 10.4753 16.5598 11.001 16.79V18C11.001 18.2652 11.1063 18.5196 11.2939 18.7071C11.4814 18.8946 11.7358 19 12.001 19C12.2662 19 12.5205 18.8946 12.7081 18.7071C12.8956 18.5196 13.001 18.2652 13.001 18V16.79C13.5266 16.5598 13.957 16.1558 14.22 15.6458C14.483 15.1358 14.5625 14.5508 14.4453 13.9891C14.328 13.4274 14.0211 12.9231 13.576 12.5609C13.1309 12.1987 12.5748 12.0007 12.001 12Z" fill="#099CBC"/>
</svg>
