<svg width="24" height="24" viewBox="0 0 24 24" fill="none" xmlns="http://www.w3.org/2000/svg">
<path d="M18 22C17.7348 22 17.4804 21.8946 17.2929 21.7071C17.1054 21.5196 17 21.2652 17 21V9C17 8.73478 17.1054 8.48043 17.2929 8.29289C17.4804 8.10536 17.7348 8 18 8C18.2652 8 18.5196 8.10536 18.7071 8.29289C18.8946 8.48043 19 8.73478 19 9V21C19 21.2652 18.8946 21.5196 18.7071 21.7071C18.5196 21.8946 18.2652 22 18 22ZM12 22C11.7348 22 11.4804 21.8946 11.2929 21.7071C11.1054 21.5196 11 21.2652 11 21V9C11 8.73478 11.1054 8.48043 11.2929 8.29289C11.4804 8.10536 11.7348 8 12 8C12.2652 8 12.5196 8.10536 12.7071 8.29289C12.8946 8.48043 13 8.73478 13 9V21C13 21.2652 12.8946 21.5196 12.7071 21.7071C12.5196 21.8946 12.2652 22 12 22ZM6 22C5.73478 22 5.48043 21.8946 5.29289 21.7071C5.10536 21.5196 5 21.2652 5 21V9C5 8.73478 5.10536 8.48043 5.29289 8.29289C5.48043 8.10536 5.73478 8 6 8C6.26522 8 6.51957 8.10536 6.70711 8.29289C6.89464 8.48043 7 8.73478 7 9V21C7 21.2652 6.89464 21.5196 6.70711 21.7071C6.51957 21.8946 6.26522 22 6 22Z" fill="#09212F"/>
<path d="M21.5 21.0007C21.5 21.1333 21.4473 21.2605 21.3536 21.3542C21.2598 21.448 21.1326 21.5007 21 21.5007H3C2.86739 21.5007 2.74021 21.448 2.64645 21.3542C2.55268 21.2605 2.5 21.1333 2.5 21.0007C2.5 20.8681 2.55268 20.7409 2.64645 20.6471C2.74021 20.5534 2.86739 20.5007 3 20.5007H21C21.1326 20.5007 21.2598 20.5534 21.3536 20.6471C21.4473 20.7409 21.5 20.8681 21.5 21.0007ZM21.2922 9.40079C21.2071 9.46455 21.104 9.49954 20.9977 9.50069H3.00227C2.89601 9.49954 2.79286 9.46455 2.70781 9.40079C2.62233 9.33671 2.55963 9.24695 2.52888 9.14464C2.49813 9.04233 2.50096 8.93287 2.53695 8.83228C2.57285 8.73194 2.63988 8.64569 2.72824 8.58613C2.72845 8.58599 2.72865 8.58585 2.72886 8.58571L11.725 2.58828C11.7253 2.58805 11.7257 2.58783 11.726 2.58761C11.8074 2.53427 11.9027 2.50586 12 2.50586C12.0973 2.50586 12.1926 2.53427 12.274 2.58761C12.2743 2.58783 12.2747 2.58805 12.275 2.58828L21.2711 8.58571C21.2713 8.58583 21.2715 8.58595 21.2717 8.58607C21.3601 8.64564 21.4271 8.73191 21.4631 8.83228C21.499 8.93287 21.5019 9.04233 21.4711 9.14464C21.4404 9.24695 21.3777 9.33671 21.2922 9.40079Z" fill="#09212F" stroke="#09212F"/>
</svg>
