<svg width="20" height="20" viewBox="0 0 20 20" fill="none" xmlns="http://www.w3.org/2000/svg">
<path d="M3.33398 5.83333L16.6673 5.83333L3.33398 5.83333ZM13.334 5.83333V3.33333C13.334 3.11232 13.2462 2.90036 13.0899 2.74408C12.9336 2.5878 12.7217 2.5 12.5007 2.5L7.50065 2.5C7.27964 2.5 7.06768 2.5878 6.9114 2.74408C6.75512 2.90036 6.66732 3.11232 6.66732 3.33333V5.83333L13.334 5.83333ZM15.0007 16.6667L15.0007 5.83333L5.00065 5.83333L5.00065 16.6667C5.00065 16.8877 5.08845 17.0996 5.24473 17.2559C5.40101 17.4122 5.61297 17.5 5.83398 17.5H14.1673C14.3883 17.5 14.6003 17.4122 14.7566 17.2559C14.9129 17.0996 15.0007 16.8877 15.0007 16.6667Z" stroke="#099CBC" stroke-linecap="round" stroke-linejoin="round"/>
</svg>
