<svg width="25" height="24" viewBox="0 0 25 24" fill="none" xmlns="http://www.w3.org/2000/svg">
<path d="M17.332 8V8.5H17.832H18.832C19.2299 8.5 19.6114 8.65804 19.8927 8.93934C20.174 9.22065 20.332 9.60218 20.332 10V20C20.332 20.3978 20.174 20.7794 19.8927 21.0607C19.6114 21.342 19.2299 21.5 18.832 21.5H6.83203C6.43421 21.5 6.05268 21.342 5.77137 21.0607C5.49007 20.7794 5.33203 20.3978 5.33203 20V10C5.33203 9.60218 5.49007 9.22064 5.77137 8.93934C6.05268 8.65804 6.43421 8.5 6.83203 8.5H7.83203H8.33203V8V7C8.33203 5.80653 8.80614 4.66193 9.65005 3.81802C10.494 2.97411 11.6386 2.5 12.832 2.5C14.0255 2.5 15.1701 2.97411 16.014 3.81802C16.8579 4.66193 17.332 5.80653 17.332 7V8ZM15.832 8.5H16.332V8V7C16.332 6.07174 15.9633 5.1815 15.3069 4.52513C14.6505 3.86875 13.7603 3.5 12.832 3.5C11.9038 3.5 11.0135 3.86875 10.3572 4.52513C9.70078 5.1815 9.33203 6.07174 9.33203 7V8V8.5H9.83203H15.832Z" fill="#E0990C" fill-opacity="0.1" stroke="#E0990C"/>
<path d="M12.833 12C12.2592 12.0007 11.7031 12.1987 11.258 12.5609C10.8129 12.9231 10.506 13.4274 10.3887 13.9891C10.2714 14.5508 10.351 15.1358 10.614 15.6458C10.8769 16.1558 11.3074 16.5598 11.833 16.79V18C11.833 18.2652 11.9384 18.5196 12.1259 18.7071C12.3134 18.8946 12.5678 19 12.833 19C13.0982 19 13.3526 18.8946 13.5401 18.7071C13.7276 18.5196 13.833 18.2652 13.833 18V16.79C14.3586 16.5598 14.7891 16.1558 15.052 15.6458C15.315 15.1358 15.3946 14.5508 15.2773 13.9891C15.16 13.4274 14.8531 12.9231 14.408 12.5609C13.9629 12.1987 13.4068 12.0007 12.833 12Z" fill="#E0990C"/>
</svg>
