<svg width="32" height="32" viewBox="0 0 32 32" fill="none" xmlns="http://www.w3.org/2000/svg">
<path d="M21.3346 12V9.33333C21.3346 7.91885 20.7727 6.56229 19.7725 5.5621C18.7723 4.5619 17.4158 4 16.0013 4C14.5868 4 13.2303 4.5619 12.2301 5.5621C11.2299 6.56229 10.668 7.91885 10.668 9.33333V12M24.0013 28H8.0013C7.64768 28 7.30854 27.8595 7.05849 27.6095C6.80844 27.3594 6.66797 27.0203 6.66797 26.6667V13.3333C6.66797 12.9797 6.80844 12.6406 7.05849 12.3905C7.30854 12.1405 7.64768 12 8.0013 12H24.0013C24.3549 12 24.6941 12.1405 24.9441 12.3905C25.1942 12.6406 25.3346 12.9797 25.3346 13.3333V26.6667C25.3346 27.0203 25.1942 27.3594 24.9441 27.6095C24.6941 27.8595 24.3549 28 24.0013 28Z" stroke="#E0990C" stroke-width="2" stroke-linecap="round" stroke-linejoin="round"/>
</svg>
