<svg width="20" height="20" viewBox="0 0 20 20" fill="none" xmlns="http://www.w3.org/2000/svg">
<path d="M2.5 5.83333V3.33333C2.5 3.11232 2.5878 2.90036 2.74408 2.74408C2.90036 2.5878 3.11232 2.5 3.33333 2.5H5.83333" fill="#09212F"/>
<path d="M2.5 5.83333V3.33333C2.5 3.11232 2.5878 2.90036 2.74408 2.74408C2.90036 2.5878 3.11232 2.5 3.33333 2.5H5.83333" stroke="#09212F" stroke-width="2" stroke-linecap="round" stroke-linejoin="round"/>
<path d="M17.5013 5.83333V3.33333C17.5013 3.11232 17.4135 2.90036 17.2572 2.74408C17.1009 2.5878 16.889 2.5 16.668 2.5H14.168" stroke="#09212F" stroke-width="2" stroke-linecap="round" stroke-linejoin="round"/>
<path d="M2.5 14.166V16.666C2.5 16.887 2.5878 17.099 2.74408 17.2553C2.90036 17.4116 3.11232 17.4993 3.33333 17.4993H5.83333" stroke="#09212F" stroke-width="2" stroke-linecap="round" stroke-linejoin="round"/>
<path d="M17.5013 14.166V16.666C17.5013 16.887 17.4135 17.099 17.2572 17.2553C17.1009 17.4116 16.889 17.4993 16.668 17.4993H14.168" stroke="#09212F" stroke-width="2" stroke-linecap="round" stroke-linejoin="round"/>
<path d="M15.8346 9.99935C15.8346 9.99935 13.2263 13.3327 10.0013 13.3327C6.7763 13.3327 4.16797 9.99935 4.16797 9.99935C4.16797 9.99935 6.7763 6.66602 10.0013 6.66602C13.2263 6.66602 15.8346 9.99935 15.8346 9.99935ZM10.0013 8.33268C9.67167 8.33268 9.34943 8.43043 9.07535 8.61357C8.80127 8.7967 8.58765 9.057 8.4615 9.36154C8.33536 9.66609 8.30235 10.0012 8.36666 10.3245C8.43097 10.6478 8.5897 10.9448 8.82279 11.1779C9.05588 11.4109 9.35285 11.5697 9.67615 11.634C9.99945 11.6983 10.3346 11.6653 10.6391 11.5391C10.9437 11.413 11.2039 11.1994 11.3871 10.9253C11.5702 10.6512 11.668 10.329 11.668 9.99935C11.668 9.55732 11.4924 9.1334 11.1798 8.82084C10.8673 8.50828 10.4433 8.33268 10.0013 8.33268Z" stroke="#09212F" stroke-width="2" stroke-linecap="round" stroke-linejoin="round"/>
</svg>
