<svg width="14" height="14" viewBox="0 0 14 14" fill="none" xmlns="http://www.w3.org/2000/svg">
<path d="M6.66732 7.83398V7.33398H6.16732H1.16732C1.07891 7.33398 0.994128 7.29887 0.931616 7.23635C0.869103 7.17384 0.833984 7.08906 0.833984 7.00065C0.833984 6.91225 0.869103 6.82746 0.931615 6.76495C0.994128 6.70244 1.07891 6.66732 1.16732 6.66732H6.16732H6.66732V6.16732V1.16732C6.66732 1.07891 6.70244 0.994128 6.76495 0.931616C6.82746 0.869103 6.91225 0.833984 7.00065 0.833984C7.08906 0.833984 7.17384 0.869103 7.23635 0.931615C7.29887 0.994128 7.33398 1.07891 7.33398 1.16732V6.16732V6.66732H7.83398H12.834C12.9224 6.66732 13.0072 6.70244 13.0697 6.76495C13.1322 6.82746 13.1673 6.91224 13.1673 7.00065C13.1673 7.08906 13.1322 7.17384 13.0697 7.23635C13.0072 7.29887 12.9224 7.33398 12.834 7.33398H7.83398H7.33398V7.83398V12.834C7.33398 12.9224 7.29887 13.0072 7.23635 13.0697C7.17384 13.1322 7.08906 13.1673 7.00065 13.1673C6.91224 13.1673 6.82746 13.1322 6.76495 13.0697C6.70244 13.0072 6.66732 12.9224 6.66732 12.834V7.83398Z" stroke="#299E58"/>
</svg>
