<svg width="25" height="24" viewBox="0 0 25 24" fill="none" xmlns="http://www.w3.org/2000/svg">
<g opacity="0.5">
<path d="M12.832 20C12.5668 20 12.3125 19.8946 12.1249 19.7071C11.9374 19.5196 11.832 19.2652 11.832 19V13H5.83203C5.56681 13 5.31246 12.8946 5.12492 12.7071C4.93739 12.5196 4.83203 12.2652 4.83203 12C4.83203 11.7348 4.93739 11.4804 5.12492 11.2929C5.31246 11.1054 5.56681 11 5.83203 11H11.832V5C11.832 4.73478 11.9374 4.48043 12.1249 4.29289C12.3125 4.10536 12.5668 4 12.832 4C13.0972 4 13.3516 4.10536 13.5391 4.29289C13.7267 4.48043 13.832 4.73478 13.832 5V11H19.832C20.0972 11 20.3516 11.1054 20.5391 11.2929C20.7267 11.4804 20.832 11.7348 20.832 12C20.832 12.2652 20.7267 12.5196 20.5391 12.7071C20.3516 12.8946 20.0972 13 19.832 13H13.832V19C13.832 19.2652 13.7267 19.5196 13.5391 19.7071C13.3516 19.8946 13.0972 20 12.832 20Z" fill="#099CBC"/>
</g>
</svg>
