<svg width="16" height="16" viewBox="0 0 16 16" fill="none" xmlns="http://www.w3.org/2000/svg">
<path d="M14.1673 8.00065C14.1673 11.4064 11.4064 14.1673 8.00065 14.1673C4.5949 14.1673 1.83398 11.4064 1.83398 8.00065C1.83398 4.5949 4.5949 1.83398 8.00065 1.83398C11.4064 1.83398 14.1673 4.5949 14.1673 8.00065Z" stroke="#8F9096"/>
<path d="M10.6673 6.00065C10.6915 6.49179 10.5558 6.97754 10.2805 7.38502C10.0053 7.7925 9.60531 8.09974 9.14065 8.26065C8.66732 8.48732 8.66732 8.52065 8.66732 8.66732C8.66732 8.84413 8.59708 9.0137 8.47206 9.13872C8.34703 9.26375 8.17746 9.33398 8.00065 9.33398C7.82384 9.33398 7.65427 9.26375 7.52925 9.13872C7.40422 9.0137 7.33398 8.84413 7.33398 8.66732C7.34332 8.3037 7.4668 7.95223 7.68695 7.66269C7.9071 7.37314 8.21276 7.16019 8.56065 7.05398C9.07398 6.80732 9.33398 6.66732 9.33398 6.00065C9.33396 5.88496 9.30384 5.77126 9.24656 5.67073C9.18929 5.57021 9.10684 5.48632 9.00732 5.42732C8.70288 5.24774 8.35398 5.15763 8.00065 5.16732C7.54065 5.16732 6.66732 5.34065 6.66732 6.00065C6.66732 6.17746 6.59708 6.34703 6.47206 6.47206C6.34703 6.59708 6.17746 6.66732 6.00065 6.66732C5.82384 6.66732 5.65427 6.59708 5.52925 6.47206C5.40422 6.34703 5.33398 6.17746 5.33398 6.00065C5.33398 4.74732 6.45398 3.83398 8.00065 3.83398C9.54732 3.83398 10.6673 4.74732 10.6673 6.00065ZM8.00065 10.334C7.80287 10.334 7.60953 10.3926 7.44508 10.5025C7.28063 10.6124 7.15246 10.7686 7.07677 10.9513C7.00108 11.134 6.98128 11.3351 7.01987 11.5291C7.05845 11.7231 7.15369 11.9012 7.29354 12.0411C7.4334 12.1809 7.61158 12.2762 7.80556 12.3148C7.99954 12.3534 8.20061 12.3336 8.38333 12.2579C8.56606 12.1822 8.72224 12.054 8.83212 11.8896C8.942 11.7251 9.00065 11.5318 9.00065 11.334C9.00065 11.0688 8.89529 10.8144 8.70776 10.6269C8.52022 10.4393 8.26587 10.334 8.00065 10.334Z" fill="#8F9096"/>
</svg>
