<svg width="20" height="20" viewBox="0 0 20 20" fill="none" xmlns="http://www.w3.org/2000/svg">
<path d="M10 13.334L11.6667 15.0007L10 16.6673" stroke="#09212F" stroke-width="2" stroke-linecap="round" stroke-linejoin="round"/>
<path d="M5 5H3.33333C3.11232 5 2.90036 5.0878 2.74408 5.24408C2.5878 5.40036 2.5 5.61232 2.5 5.83333V14.1667C2.5 14.3877 2.5878 14.5996 2.74408 14.7559C2.90036 14.9122 3.11232 15 3.33333 15H11.6667" stroke="#09212F" stroke-width="2" stroke-linecap="round" stroke-linejoin="round"/>
<path d="M9.9987 6.66732L8.33203 5.00065L9.9987 3.33398" stroke="#09212F" stroke-width="2" stroke-linecap="round" stroke-linejoin="round"/>
<path d="M14.9987 15H16.6654C16.8864 15 17.0983 14.9122 17.2546 14.7559C17.4109 14.5996 17.4987 14.3877 17.4987 14.1667V5.83333C17.4987 5.61232 17.4109 5.40036 17.2546 5.24408C17.0983 5.0878 16.8864 5 16.6654 5H8.33203" stroke="#09212F" stroke-width="2" stroke-linecap="round" stroke-linejoin="round"/>
</svg>
