<svg id="Layer_1" data-name="Layer 1" xmlns="http://www.w3.org/2000/svg" viewBox="0 0 800 301.72"><defs><style>.cls-1{fill:#3d509e;}.cls-2{fill:#6ea7da;}</style></defs><title>logo_zoqq_final</title><path class="cls-1" d="M327.17,196a61.72,61.72,0,1,1,0-114.26,154.72,154.72,0,0,1,46.45-62.93,138.86,138.86,0,1,0-69.76,258.93,138.16,138.16,0,0,0,69.76-18.81A154.79,154.79,0,0,1,327.17,196Z"/><path class="cls-1" d="M493.83,196a61.73,61.73,0,1,1,0-114.31,154.65,154.65,0,0,1,46.43-62.9A138.86,138.86,0,1,0,470.5,277.74a138.16,138.16,0,0,0,69.76-18.81A154.62,154.62,0,0,1,493.83,196Z"/><path class="cls-2" d="M493.82,196a61.65,61.65,0,0,1-67-13.49h0L546.07,301.72h87.29l-9.14-9.13A154.34,154.34,0,0,1,493.82,196Z"/><path class="cls-1" d="M593.5,182.51a61.72,61.72,0,0,1,87.29-87.28l88,88a138.88,138.88,0,1,0-33.41,53.87l-54.55-54.55A61.73,61.73,0,0,1,593.5,182.51Z"/><path class="cls-2" d="M680.79,182.51a61.72,61.72,0,0,1-87.29,0h0L712.72,301.72H800Z"/><path class="cls-2" d="M152.45,168.57a171,171,0,0,0-30.32-2.75A169.18,169.18,0,0,0,0,217.71l60,60a84.8,84.8,0,0,1,124.21,0l20.58-20.58A154.12,154.12,0,0,1,152.45,168.57Z"/><path class="cls-1" d="M149.56,138.87A153.94,153.94,0,0,1,204.82,20.58L184.24,0,0,217.71l60,60,92.41-109.21A155,155,0,0,1,149.56,138.87Z"/><path class="cls-2" d="M204.82,20.58,184.24,0a84.63,84.63,0,0,1-62.11,27.06A84.59,84.59,0,0,1,60,0L0,60a169.18,169.18,0,0,0,122.13,51.89,170.11,170.11,0,0,0,30.32-2.76A154.13,154.13,0,0,1,204.82,20.58Z"/></svg>