<svg width="16" height="17" viewBox="0 0 16 17" fill="none" xmlns="http://www.w3.org/2000/svg">
<path d="M14 3.63334V13.3C14 13.742 13.8244 14.166 13.5118 14.4785C13.1993 14.7911 12.7754 14.9667 12.3333 14.9667C11.8913 14.9667 11.4674 14.7911 11.1548 14.4785C10.8423 14.166 10.6667 13.742 10.6667 13.3V11.6333H3.33333V3.63334C3.33333 3.45653 3.40357 3.28696 3.5286 3.16194C3.65362 3.03691 3.82319 2.96667 4 2.96667H13.3333C13.5101 2.96667 13.6797 3.03691 13.8047 3.16194C13.9298 3.28696 14 3.45653 14 3.63334ZM10.6667 13.3V11.6333H2V13.3C2 13.742 2.17559 14.166 2.48816 14.4785C2.80072 14.7911 3.22464 14.9667 3.66667 14.9667H12.3333C11.8913 14.9667 11.4674 14.7911 11.1548 14.4785C10.8423 14.166 10.6667 13.742 10.6667 13.3Z" stroke="white" stroke-linecap="round" stroke-linejoin="round"/>
<path d="M6.66797 7.63338L8.0013 8.96672L10.668 6.30005" stroke="white" stroke-opacity="0.5" stroke-linecap="round" stroke-linejoin="round"/>
</svg>
