<svg width="16" height="17" viewBox="0 0 16 17" fill="none" xmlns="http://www.w3.org/2000/svg">
<path d="M12.0315 14.6333H11.9648" stroke="white" stroke-opacity="0.5" stroke-width="2" stroke-linecap="round" stroke-linejoin="round"/>
<path d="M12 9.6333V11.6333" stroke="white" stroke-opacity="0.5" stroke-linecap="round" stroke-linejoin="round"/>
<path d="M8.66536 14.9667H3.9987C3.82189 14.9667 3.65232 14.8964 3.52729 14.7714C3.40227 14.6464 3.33203 14.4768 3.33203 14.3C3.33375 13.5413 3.52044 12.7944 3.87591 12.1242C4.23138 11.4539 4.74492 10.8804 5.37203 10.4533L5.42536 10.42C5.4954 10.3675 5.55441 10.3016 5.59901 10.2263C5.64362 10.151 5.67295 10.0676 5.68533 9.98093C5.69771 9.89427 5.6929 9.80601 5.67117 9.7212C5.64945 9.63639 5.61123 9.55669 5.5587 9.48665C4.97729 8.7759 4.66144 7.88491 4.66536 6.96665C4.66138 5.96095 5.03639 4.99065 5.7157 4.24903C6.395 3.50741 7.32875 3.04889 8.33094 2.96482C9.33313 2.88074 10.3302 3.17727 11.1236 3.79535C11.917 4.41342 12.4484 5.30768 12.612 6.29999C12.6507 6.52004 12.6686 6.74325 12.6654 6.96665" stroke="white" stroke-linecap="round" stroke-linejoin="round"/>
</svg>
