<svg width="33" height="32" viewBox="0 0 33 32" fill="none" xmlns="http://www.w3.org/2000/svg">
<path d="M16.5013 28L17.6746 27.4933C20.1345 26.4379 22.2586 24.7295 23.8169 22.5531C25.3751 20.3767 26.3081 17.8154 26.5146 15.1467L27.088 7.78667C27.0968 7.48209 27.0011 7.18366 26.8167 6.94106C26.6324 6.69846 26.3705 6.52633 26.0746 6.45333L16.5013 4L6.92796 6.4C6.63213 6.473 6.37022 6.64513 6.18585 6.88773C6.00147 7.13032 5.90575 7.42875 5.91463 7.73333L6.48796 15.0933C6.69452 17.7621 7.62746 20.3234 9.18572 22.4998C10.744 24.6761 12.8681 26.3846 15.328 27.44L16.5013 28Z" stroke="#099CBC" stroke-width="2" stroke-linecap="round" stroke-linejoin="round"/>
<path d="M12.5 14.6667L15.1667 17.3333L20.5 12" stroke="#099CBC" stroke-width="2" stroke-linecap="round" stroke-linejoin="round"/>
</svg>
