<svg width="33" height="32" viewBox="0 0 33 32" fill="none" xmlns="http://www.w3.org/2000/svg">
<path d="M26.8307 28H17.4974C17.1438 28 16.8046 27.8595 16.5546 27.6095C16.3045 27.3594 16.1641 27.0203 16.1641 26.6667V13.3333C16.1641 12.9797 16.3045 12.6406 16.5546 12.3905C16.8046 12.1405 17.1438 12 17.4974 12H26.8307C27.1844 12 27.5235 12.1405 27.7735 12.3905C28.0236 12.6406 28.1641 12.9797 28.1641 13.3333V26.6667C28.1641 27.0203 28.0236 27.3594 27.7735 27.6095C27.5235 27.8595 27.1844 28 26.8307 28ZM16.1641 26.6667V13.3333C16.1641 12.9797 16.3045 12.6406 16.5546 12.3905C16.8046 12.1405 17.1438 12 17.4974 12H25.4974V5.33333C25.4974 4.97971 25.3569 4.64057 25.1069 4.39052C24.8568 4.14048 24.5177 4 24.1641 4H5.4974C5.14377 4 4.80464 4.14048 4.55459 4.39052C4.30454 4.64057 4.16406 4.97971 4.16406 5.33333V26.6667C4.16406 27.0203 4.30454 27.3594 4.55459 27.6095C4.80464 27.8595 5.14377 28 5.4974 28H17.4974C17.1438 28 16.8046 27.8595 16.5546 27.6095C16.3045 27.3594 16.1641 27.0203 16.1641 26.6667ZM24.1641 12H20.1641L20.8307 14.6667H23.4974L24.1641 12Z" stroke="#09212F" stroke-width="2" stroke-linecap="round" stroke-linejoin="round"/>
</svg>
