<svg width="33" height="32" viewBox="0 0 33 32" fill="none" xmlns="http://www.w3.org/2000/svg">
<path d="M27.4987 25.3333H6.16536C5.81174 25.3333 5.4726 25.1929 5.22256 24.9428C4.97251 24.6928 4.83203 24.3536 4.83203 24V5.33333C4.83203 4.97971 4.97251 4.64057 5.22256 4.39052C5.4726 4.14048 5.81174 4 6.16536 4H27.4987C27.8523 4 28.1915 4.14048 28.4415 4.39052C28.6916 4.64057 28.832 4.97971 28.832 5.33333V24C28.832 24.3536 28.6916 24.6928 28.4415 24.9428C28.1915 25.1929 27.8523 25.3333 27.4987 25.3333ZM15.4987 14.6667C15.4987 14.1393 15.3423 13.6237 15.0493 13.1851C14.7563 12.7466 14.3398 12.4048 13.8525 12.203C13.3653 12.0012 12.8291 11.9483 12.3118 12.0512C11.7945 12.1541 11.3194 12.4081 10.9464 12.781C10.5735 13.154 10.3195 13.6291 10.2166 14.1464C10.1137 14.6637 10.1665 15.1999 10.3684 15.6872C10.5702 16.1744 10.912 16.5909 11.3505 16.8839C11.789 17.1769 12.3046 17.3333 12.832 17.3333C13.5393 17.3333 14.2176 17.0524 14.7176 16.5523C15.2177 16.0522 15.4987 15.3739 15.4987 14.6667ZM15.4987 14.6667H18.1654H15.4987ZM11.4987 25.3333H8.83203V28H11.4987V25.3333ZM22.1654 28H24.832V25.3333H22.1654V28Z" stroke="#099CBC" stroke-width="2" stroke-linecap="round" stroke-linejoin="round"/>
</svg>
