<svg width="33" height="32" viewBox="0 0 33 32" fill="none" xmlns="http://www.w3.org/2000/svg">
<path d="M26.9987 25.3333H5.66536C5.31174 25.3333 4.9726 25.1929 4.72256 24.9428C4.47251 24.6928 4.33203 24.3536 4.33203 24V5.33333C4.33203 4.97971 4.47251 4.64057 4.72256 4.39052C4.9726 4.14048 5.31174 4 5.66536 4H26.9987C27.3523 4 27.6915 4.14048 27.9415 4.39052C28.1916 4.64057 28.332 4.97971 28.332 5.33333V24C28.332 24.3536 28.1916 24.6928 27.9415 24.9428C27.6915 25.1929 27.3523 25.3333 26.9987 25.3333ZM14.9987 14.6667C14.9987 14.1393 14.8423 13.6237 14.5493 13.1851C14.2563 12.7466 13.8398 12.4048 13.3525 12.203C12.8653 12.0012 12.3291 11.9483 11.8118 12.0512C11.2945 12.1541 10.8194 12.4081 10.4464 12.781C10.0735 13.154 9.8195 13.6291 9.7166 14.1464C9.61371 14.6637 9.66652 15.1999 9.86835 15.6872C10.0702 16.1744 10.412 16.5909 10.8505 16.8839C11.289 17.1769 11.8046 17.3333 12.332 17.3333C13.0393 17.3333 13.7176 17.0524 14.2176 16.5523C14.7177 16.0522 14.9987 15.3739 14.9987 14.6667ZM14.9987 14.6667H17.6654H14.9987ZM10.9987 25.3333H8.33203V28H10.9987V25.3333ZM21.6654 28H24.332V25.3333H21.6654V28Z" stroke="#09212F" stroke-width="2" stroke-linecap="round" stroke-linejoin="round"/>
</svg>
