<svg width="41" height="40" viewBox="0 0 41 40" fill="none" xmlns="http://www.w3.org/2000/svg">
<path d="M35.666 6.66667V30.8333C35.666 31.9384 35.227 32.9982 34.4456 33.7796C33.6642 34.561 32.6044 35 31.4993 35C30.3943 35 29.3345 34.561 28.5531 33.7796C27.7717 32.9982 27.3327 31.9384 27.3327 30.8333V26.6667H8.99935V6.66667C8.99935 6.22464 9.17494 5.80072 9.4875 5.48816C9.80007 5.17559 10.224 5 10.666 5H33.9993C34.4414 5 34.8653 5.17559 35.1779 5.48816C35.4904 5.80072 35.666 6.22464 35.666 6.66667ZM27.3327 30.8333V26.6667H5.66602V30.8333C5.66602 31.9384 6.105 32.9982 6.8864 33.7796C7.66781 34.561 8.72761 35 9.83268 35H31.4993C30.3943 35 29.3345 34.561 28.5531 33.7796C27.7717 32.9982 27.3327 31.9384 27.3327 30.8333Z" stroke="#E0990C" stroke-width="2" stroke-linecap="round" stroke-linejoin="round"/>
<path d="M17.332 16.6673L20.6654 20.0007L27.332 13.334" stroke="#E0990C" stroke-width="2" stroke-linecap="round" stroke-linejoin="round"/>
</svg>
