<svg width="20" height="20" viewBox="0 0 20 20" fill="none" xmlns="http://www.w3.org/2000/svg">
<path d="M14 8.09091V7.45455C14 6.45545 13.398 4.64182 11.2 4.33V3H9.8V4.33636C8.568 4.55273 7 5.36727 7 7.45455C7 8.98182 8.414 9.75182 9.8 10.3882V14.3521C9.177 14.1866 8.4 13.7412 8.4 12.5448V11.9085H7V12.5448C7 14.6321 8.568 15.4466 9.8 15.663V17H11.2V15.6636C12.432 15.4466 14 14.6327 14 12.5455C14 11.0182 12.586 10.2482 11.2 9.61182V5.62818C12.495 5.95273 12.593 7.16818 12.6 7.45455V8.09091H14ZM9.8 8.95C8.911 8.49182 8.4 8.07182 8.4 7.45455C8.4 6.25818 9.177 5.81273 9.8 5.64727V8.95ZM12.6 12.5455C12.6 13.7418 11.823 14.1873 11.2 14.3527V11.05C12.089 11.5082 12.6 11.9282 12.6 12.5455Z" fill="#8F9096"/>
</svg>
