<svg width="20" height="20" viewBox="0 0 20 20" fill="none" xmlns="http://www.w3.org/2000/svg">
<path d="M7.49935 7.5H12.4993M15.8327 4.16667V16.6667C15.8327 16.8877 15.7449 17.0996 15.5886 17.2559C15.4323 17.4122 15.2204 17.5 14.9993 17.5H4.99935C4.77834 17.5 4.56637 17.4122 4.41009 17.2559C4.25381 17.0996 4.16602 16.8877 4.16602 16.6667V3.33333C4.16602 3.11232 4.25381 2.90036 4.41009 2.74408C4.56637 2.5878 4.77834 2.5 4.99935 2.5H14.166L15.8327 4.16667ZM14.166 2.5V4.16667H15.8327L14.166 2.5ZM12.4993 14.1667H7.49935H12.4993ZM7.49935 10.8333H12.4993H7.49935Z" stroke="#8F9096" stroke-width="1.4" stroke-linecap="round" stroke-linejoin="round"/>
</svg>
