<svg width="40" height="40" viewBox="0 0 40 40" fill="none" xmlns="http://www.w3.org/2000/svg">
<path d="M30.0007 36.6673C29.5586 36.6673 29.1347 36.4917 28.8221 36.1792C28.5096 35.8666 28.334 35.4427 28.334 35.0007V15.0007C28.334 14.5586 28.5096 14.1347 28.8221 13.8221C29.1347 13.5096 29.5586 13.334 30.0007 13.334C30.4427 13.334 30.8666 13.5096 31.1792 13.8221C31.4917 14.1347 31.6673 14.5586 31.6673 15.0007V35.0007C31.6673 35.4427 31.4917 35.8666 31.1792 36.1792C30.8666 36.4917 30.4427 36.6673 30.0007 36.6673ZM20.0007 36.6673C19.5586 36.6673 19.1347 36.4917 18.8221 36.1792C18.5096 35.8666 18.334 35.4427 18.334 35.0007V15.0007C18.334 14.5586 18.5096 14.1347 18.8221 13.8221C19.1347 13.5096 19.5586 13.334 20.0007 13.334C20.4427 13.334 20.8666 13.5096 21.1792 13.8221C21.4917 14.1347 21.6673 14.5586 21.6673 15.0007V35.0007C21.6673 35.4427 21.4917 35.8666 21.1792 36.1792C20.8666 36.4917 20.4427 36.6673 20.0007 36.6673ZM10.0007 36.6673C9.55862 36.6673 9.1347 36.4917 8.82214 36.1792C8.50958 35.8666 8.33398 35.4427 8.33398 35.0007V15.0007C8.33398 14.5586 8.50958 14.1347 8.82214 13.8221C9.1347 13.5096 9.55862 13.334 10.0007 13.334C10.4427 13.334 10.8666 13.5096 11.1792 13.8221C11.4917 14.1347 11.6673 14.5586 11.6673 15.0007V35.0007C11.6673 35.4427 11.4917 35.8666 11.1792 36.1792C10.8666 36.4917 10.4427 36.6673 10.0007 36.6673Z" fill="#099CBC"/>
<path d="M36.1673 34.9999C36.1673 35.3093 36.0444 35.606 35.8256 35.8248C35.6068 36.0436 35.3101 36.1665 35.0007 36.1665H5.00065C4.69123 36.1665 4.39449 36.0436 4.17569 35.8248C3.9569 35.606 3.83398 35.3093 3.83398 34.9999C3.83398 34.6904 3.9569 34.3937 4.17569 34.1749C4.39448 33.9561 4.69123 33.8332 5.00065 33.8332H35.0007C35.3101 33.8332 35.6068 33.9561 35.8256 34.1749C36.0444 34.3937 36.1673 34.6904 36.1673 34.9999ZM35.6876 15.9334C35.4886 16.0825 35.2472 16.1642 34.9986 16.1665H5.00271C4.75409 16.1642 4.51269 16.0825 4.31372 15.9334C4.11428 15.7839 3.96797 15.5744 3.89622 15.3357C3.82448 15.097 3.83107 14.8416 3.91504 14.6069C3.99892 14.3724 4.1556 14.171 4.36216 14.032C4.36238 14.0318 4.36261 14.0317 4.36284 14.0315L19.359 4.0341C19.3593 4.03387 19.3597 4.03364 19.36 4.03341C19.5503 3.90841 19.773 3.8418 20.0007 3.8418C20.2283 3.8418 20.451 3.90841 20.6413 4.03341C20.6416 4.03364 20.642 4.03387 20.6423 4.0341L35.6385 14.0315C35.6388 14.0317 35.6391 14.0319 35.6394 14.0321C35.8458 14.1711 36.0024 14.3725 36.0863 14.6069C36.1702 14.8416 36.1768 15.097 36.1051 15.3357C36.0333 15.5744 35.887 15.7839 35.6876 15.9334Z" fill="#099CBC" stroke="#099CBC"/>
</svg>
