<svg width="25" height="24" viewBox="0 0 25 24" fill="none" xmlns="http://www.w3.org/2000/svg">
<path d="M17 8V8.5H17.5H18.5C18.8978 8.5 19.2794 8.65804 19.5607 8.93934C19.842 9.22065 20 9.60218 20 10V20C20 20.3978 19.842 20.7794 19.5607 21.0607C19.2794 21.342 18.8978 21.5 18.5 21.5H6.5C6.10218 21.5 5.72064 21.342 5.43934 21.0607C5.15804 20.7794 5 20.3978 5 20V10C5 9.60218 5.15804 9.22064 5.43934 8.93934C5.72064 8.65804 6.10218 8.5 6.5 8.5H7.5H8V8V7C8 5.80653 8.47411 4.66193 9.31802 3.81802C10.1619 2.97411 11.3065 2.5 12.5 2.5C13.6935 2.5 14.8381 2.97411 15.682 3.81802C16.5259 4.66193 17 5.80653 17 7V8ZM15.5 8.5H16V8V7C16 6.07174 15.6313 5.1815 14.9749 4.52513C14.3185 3.86875 13.4283 3.5 12.5 3.5C11.5717 3.5 10.6815 3.86875 10.0251 4.52513C9.36875 5.1815 9 6.07174 9 7V8V8.5H9.5H15.5Z" fill="#E0990C" fill-opacity="0.1" stroke="#E0990C"/>
<path d="M12.501 12C11.9271 12.0007 11.371 12.1987 10.9259 12.5609C10.4809 12.9231 10.1739 13.4274 10.0567 13.9891C9.9394 14.5508 10.0189 15.1358 10.2819 15.6458C10.5449 16.1558 10.9753 16.5598 11.501 16.79V18C11.501 18.2652 11.6063 18.5196 11.7939 18.7071C11.9814 18.8946 12.2358 19 12.501 19C12.7662 19 13.0205 18.8946 13.2081 18.7071C13.3956 18.5196 13.501 18.2652 13.501 18V16.79C14.0266 16.5598 14.457 16.1558 14.72 15.6458C14.983 15.1358 15.0625 14.5508 14.9453 13.9891C14.828 13.4274 14.5211 12.9231 14.076 12.5609C13.6309 12.1987 13.0748 12.0007 12.501 12Z" fill="#E0990C"/>
</svg>
