<svg width="41" height="40" viewBox="0 0 41 40" fill="none" xmlns="http://www.w3.org/2000/svg">
<path d="M27.1654 15V11.6667C27.1654 9.89856 26.463 8.20286 25.2127 6.95262C23.9625 5.70238 22.2668 5 20.4987 5C18.7306 5 17.0349 5.70238 15.7847 6.95262C14.5344 8.20286 13.832 9.89856 13.832 11.6667V15M30.4987 35H10.4987C10.0567 35 9.63275 34.8244 9.32019 34.5118C9.00763 34.1993 8.83203 33.7754 8.83203 33.3333V16.6667C8.83203 16.2246 9.00763 15.8007 9.32019 15.4882C9.63275 15.1756 10.0567 15 10.4987 15H30.4987C30.9407 15 31.3646 15.1756 31.6772 15.4882C31.9898 15.8007 32.1654 16.2246 32.1654 16.6667V33.3333C32.1654 33.7754 31.9898 34.1993 31.6772 34.5118C31.3646 34.8244 30.9407 35 30.4987 35Z" stroke="#3B656B" stroke-width="2" stroke-linecap="round" stroke-linejoin="round"/>
</svg>
