<svg width="25" height="24" viewBox="0 0 25 24" fill="none" xmlns="http://www.w3.org/2000/svg">
<g opacity="0.5">
<path d="M12.1641 20C11.8988 20 11.6445 19.8946 11.457 19.7071C11.2694 19.5196 11.1641 19.2652 11.1641 19V13H5.16406C4.89885 13 4.64449 12.8946 4.45696 12.7071C4.26942 12.5196 4.16406 12.2652 4.16406 12C4.16406 11.7348 4.26942 11.4804 4.45696 11.2929C4.64449 11.1054 4.89885 11 5.16406 11H11.1641V5C11.1641 4.73478 11.2694 4.48043 11.457 4.29289C11.6445 4.10536 11.8988 4 12.1641 4C12.4293 4 12.6836 4.10536 12.8712 4.29289C13.0587 4.48043 13.1641 4.73478 13.1641 5V11H19.1641C19.4293 11 19.6836 11.1054 19.8712 11.2929C20.0587 11.4804 20.1641 11.7348 20.1641 12C20.1641 12.2652 20.0587 12.5196 19.8712 12.7071C19.6836 12.8946 19.4293 13 19.1641 13H13.1641V19C13.1641 19.2652 13.0587 19.5196 12.8712 19.7071C12.6836 19.8946 12.4293 20 12.1641 20Z" fill="#099CBC"/>
</g>
</svg>
