<svg width="16" height="17" viewBox="0 0 16 17" fill="none" xmlns="http://www.w3.org/2000/svg">
<path d="M9.80536 12.4934L8.47203 11.16C8.40987 11.0979 8.33608 11.0486 8.25486 11.0149C8.17365 10.9813 8.0866 10.964 7.9987 10.964C7.91079 10.964 7.82375 10.9813 7.74253 11.0149C7.66132 11.0486 7.58752 11.0979 7.52536 11.16C7.46321 11.2222 7.4139 11.296 7.38026 11.3772C7.34662 11.4584 7.3293 11.5455 7.3293 11.6334C7.3293 11.7213 7.34662 11.8083 7.38026 11.8895C7.4139 11.9708 7.46321 12.0446 7.52536 12.1067L7.72536 12.3H2.66536V5.63338H3.9987C4.17551 5.63338 4.34508 5.56314 4.4701 5.43812C4.59513 5.3131 4.66536 5.14353 4.66536 4.96672C4.66536 4.7899 4.59513 4.62034 4.4701 4.49531C4.34508 4.37029 4.17551 4.30005 3.9987 4.30005H2.66536C2.31174 4.30005 1.9726 4.44052 1.72256 4.69057C1.47251 4.94062 1.33203 5.27976 1.33203 5.63338V12.3C1.33203 12.6537 1.47251 12.9928 1.72256 13.2429C1.9726 13.4929 2.31174 13.6334 2.66536 13.6334H7.72536L7.52536 13.8267C7.46288 13.8887 7.41328 13.9624 7.37944 14.0437C7.34559 14.1249 7.32817 14.212 7.32817 14.3C7.32817 14.3881 7.34559 14.4752 7.37944 14.5564C7.41328 14.6377 7.46288 14.7114 7.52536 14.7734C7.58734 14.8359 7.66107 14.8855 7.74231 14.9193C7.82355 14.9532 7.91069 14.9706 7.9987 14.9706C8.08671 14.9706 8.17384 14.9532 8.25508 14.9193C8.33632 14.8855 8.41006 14.8359 8.47203 14.7734L9.80536 13.44C9.86785 13.3781 9.91745 13.3043 9.95129 13.2231C9.98514 13.1419 10.0026 13.0547 10.0026 12.9667C10.0026 12.8787 9.98514 12.7916 9.95129 12.7103C9.91745 12.6291 9.86785 12.5554 9.80536 12.4934Z" fill="white" fill-opacity="0.5"/>
<path d="M7.92578 3.94068L7.03665 4.80017H8.27329H13.3333C13.5543 4.80017 13.7663 4.88797 13.9225 5.04425C14.0788 5.20053 14.1666 5.41249 14.1666 5.63351V12.3002C14.1666 12.5212 14.0788 12.7331 13.9225 12.8894C13.7663 13.0457 13.5543 13.1335 13.3333 13.1335H12C11.9558 13.1335 11.9134 13.1159 11.8821 13.0847C11.8509 13.0534 11.8333 13.011 11.8333 12.9668C11.8333 12.9226 11.8509 12.8802 11.8821 12.849C11.9134 12.8177 11.9558 12.8002 12 12.8002H13.3333H13.8333V12.3002V5.63351V5.13351H13.3333H8.27329H7.03665L7.92578 5.993L8.1227 6.18336C8.13761 6.19853 8.14949 6.21643 8.15767 6.23608C8.16614 6.25639 8.17049 6.27817 8.17049 6.30017C8.17049 6.32217 8.16614 6.34396 8.15767 6.36427C8.14921 6.38458 8.13681 6.40301 8.12119 6.41851L8.12118 6.41849L8.11829 6.4214C8.1028 6.43703 8.08437 6.44942 8.06406 6.45789C8.04375 6.46635 8.02196 6.4707 7.99996 6.4707C7.97796 6.4707 7.95617 6.46635 7.93586 6.45789C7.91555 6.44942 7.89712 6.43703 7.88163 6.4214L7.88018 6.41995L6.54685 5.08662L6.54685 5.08662L6.54539 5.08517C6.52977 5.06968 6.51737 5.05125 6.50891 5.03094L6.0525 5.22108L6.50891 5.03094C6.50045 5.01062 6.49609 4.98884 6.49609 4.96684C6.49609 4.94484 6.50045 4.92305 6.50891 4.90274C6.51737 4.88243 6.52977 4.864 6.54539 4.84851L6.5454 4.84851L6.54685 4.84706L7.88018 3.51373C7.91195 3.48196 7.95503 3.46411 7.99996 3.46411C8.0222 3.46411 8.04423 3.46849 8.06478 3.47701C8.08534 3.48552 8.10401 3.498 8.11974 3.51373C8.13547 3.52946 8.14795 3.54813 8.15646 3.56868C8.16497 3.58923 8.16935 3.61126 8.16935 3.63351C8.16935 3.65575 8.16497 3.67778 8.15646 3.69833C8.14831 3.71801 8.13652 3.73596 8.12173 3.75126L7.92578 3.94068Z" stroke="white"/>
</svg>
