<svg width="16" height="17" viewBox="0 0 16 17" fill="none" xmlns="http://www.w3.org/2000/svg">
<path d="M5.9987 8.30021H5.33203M9.9987 8.30021C9.9987 7.90465 9.8814 7.51797 9.66164 7.18907C9.44187 6.86017 9.12952 6.60383 8.76406 6.45245C8.39861 6.30108 7.99648 6.26147 7.60852 6.33864C7.22056 6.41581 6.86419 6.60629 6.58448 6.886C6.30478 7.1657 6.1143 7.52207 6.03713 7.91003C5.95996 8.29799 5.99956 8.70013 6.15094 9.06558C6.30231 9.43103 6.55866 9.74339 6.88756 9.96315C7.21646 10.1829 7.60314 10.3002 7.9987 10.3002C8.52913 10.3002 9.03784 10.0895 9.41291 9.71443C9.78798 9.33935 9.9987 8.83064 9.9987 8.30021ZM7.9987 6.30021V5.63354V6.30021ZM9.9987 8.30021H10.6654H9.9987ZM7.9987 10.3002V10.9669V10.3002Z" stroke="white" stroke-opacity="0.5" stroke-width="2" stroke-linecap="round" stroke-linejoin="round"/>
<path d="M13.3333 13.6335H2.66667C2.48986 13.6335 2.32029 13.5632 2.19526 13.4382C2.07024 13.3132 2 13.1436 2 12.9668V3.63346C2 3.45665 2.07024 3.28708 2.19526 3.16206C2.32029 3.03703 2.48986 2.9668 2.66667 2.9668H13.3333C13.5101 2.9668 13.6797 3.03703 13.8047 3.16206C13.9298 3.28708 14 3.45665 14 3.63346V12.9668C14 13.1436 13.9298 13.3132 13.8047 13.4382C13.6797 13.5632 13.5101 13.6335 13.3333 13.6335ZM5.33333 13.6335H4V14.9668H5.33333V13.6335ZM10.6667 14.9668H12V13.6335H10.6667V14.9668Z" stroke="white" stroke-linecap="round" stroke-linejoin="round"/>
</svg>
