<svg width="16" height="17" viewBox="0 0 16 17" fill="none" xmlns="http://www.w3.org/2000/svg">
<path d="M7.96484 8.9668H8.03151" stroke="white" stroke-linecap="round" stroke-linejoin="round"/>
<path d="M3.75863 13.2068C2.63502 12.0818 2.00391 10.5568 2.00391 8.96681C2.00391 7.3768 2.63502 5.85181 3.75863 4.72681" stroke="white" stroke-linecap="round" stroke-linejoin="round"/>
<path d="M5.63945 6.60669C5.32903 6.91633 5.08274 7.28416 4.9147 7.68913C4.74665 8.0941 4.66016 8.52824 4.66016 8.96669C4.66016 9.40514 4.74665 9.83928 4.9147 10.2442C5.08274 10.6492 5.32903 11.0171 5.63945 11.3267" stroke="white" stroke-opacity="0.5" stroke-linecap="round" stroke-linejoin="round"/>
<path d="M12.2383 13.2068C13.3619 12.0818 13.993 10.5568 13.993 8.96681C13.993 7.3768 13.3619 5.85181 12.2383 4.72681" stroke="white" stroke-linecap="round" stroke-linejoin="round"/>
<path d="M10.3594 11.3267C10.6698 11.0171 10.9161 10.6492 11.0841 10.2442C11.2522 9.83928 11.3387 9.40514 11.3387 8.96669C11.3387 8.52824 11.2522 8.0941 11.0841 7.68913C10.9161 7.28416 10.6698 6.91633 10.3594 6.60669" stroke="white" stroke-opacity="0.5" stroke-linecap="round" stroke-linejoin="round"/>
</svg>
