<svg width="16" height="17" viewBox="0 0 16 17" fill="none" xmlns="http://www.w3.org/2000/svg">
<path d="M8 11.6335H9.33333M8 6.9668V14.9668V6.9668ZM8 14.3001H9.33333H8Z" stroke="white" stroke-opacity="0.5" stroke-width="2" stroke-linecap="round" stroke-linejoin="round"/>
<path d="M7.9987 2.9668C8.26241 2.9668 8.52019 3.045 8.73946 3.1915C8.95872 3.33801 9.12962 3.54625 9.23054 3.78989C9.33145 4.03352 9.35786 4.30161 9.30641 4.56025C9.25496 4.81889 9.12798 5.05647 8.94151 5.24294C8.75504 5.42941 8.51746 5.5564 8.25882 5.60784C8.00018 5.65929 7.73209 5.63289 7.48845 5.53197C7.24482 5.43105 7.03658 5.26016 6.89007 5.04089C6.74356 4.82162 6.66536 4.56384 6.66536 4.30013C6.66536 3.94651 6.80584 3.60737 7.05589 3.35732C7.30594 3.10727 7.64508 2.9668 7.9987 2.9668ZM5.33203 6.9668C5.33203 7.23051 5.41023 7.48829 5.55674 7.70756C5.70325 7.92682 5.91149 8.09772 6.15512 8.19864C6.39876 8.29955 6.66684 8.32596 6.92549 8.27451C7.18413 8.22306 7.4217 8.09608 7.60817 7.90961C7.79464 7.72314 7.92163 7.48556 7.97308 7.22692C8.02453 6.96828 7.99812 6.70019 7.8972 6.45655C7.79629 6.21292 7.62539 6.00468 7.40612 5.85817C7.18686 5.71166 6.92907 5.63346 6.66536 5.63346C6.31174 5.63346 5.9726 5.77394 5.72256 6.02399C5.47251 6.27404 5.33203 6.61317 5.33203 6.9668V6.9668ZM9.33203 5.63346C9.06832 5.63346 8.81054 5.71166 8.59127 5.85817C8.37201 6.00468 8.20111 6.21292 8.10019 6.45655C7.99927 6.70019 7.97287 6.96828 8.02432 7.22692C8.07576 7.48556 8.20275 7.72314 8.38922 7.90961C8.57569 8.09608 8.81327 8.22306 9.07191 8.27451C9.33055 8.32596 9.59864 8.29955 9.84228 8.19864C10.0859 8.09772 10.2941 7.92682 10.4407 7.70756C10.5872 7.48829 10.6654 7.23051 10.6654 6.9668C10.6654 6.61317 10.5249 6.27404 10.2748 6.02399C10.0248 5.77394 9.68565 5.63346 9.33203 5.63346V5.63346Z" stroke="white" stroke-linecap="round" stroke-linejoin="round"/>
</svg>
