<svg width="32" height="32" viewBox="0 0 32 32" fill="none" xmlns="http://www.w3.org/2000/svg">
<path d="M7.52 7.52L8.45333 8.45333M21.3333 16C21.3333 17.0548 21.0205 18.086 20.4345 18.963C19.8485 19.8401 19.0155 20.5237 18.041 20.9274C17.0664 21.331 15.9941 21.4366 14.9595 21.2309C13.925 21.0251 12.9746 20.5171 12.2288 19.7712C11.4829 19.0254 10.9749 18.075 10.7691 17.0405C10.5634 16.0059 10.669 14.9336 11.0726 13.959C11.4763 12.9845 12.1599 12.1515 13.037 11.5655C13.914 10.9795 14.9452 10.6667 16 10.6667C17.4145 10.6667 18.771 11.2286 19.7712 12.2288C20.7714 13.229 21.3333 14.5855 21.3333 16ZM16 4V5.33333V4ZM24.48 7.52L23.5467 8.45333L24.48 7.52ZM28 16H26.6667H28ZM24.48 24.48L23.5467 23.5467L24.48 24.48ZM16 28V26.6667V28ZM7.52 24.48L8.45333 23.5467L7.52 24.48ZM4 16H5.33333H4Z" stroke="#E0990C" stroke-width="2" stroke-linecap="round" stroke-linejoin="round"/>
</svg>
