<svg width="32" height="32" viewBox="0 0 32 32" fill="none" xmlns="http://www.w3.org/2000/svg">
<path d="M22.5342 17.3335C22.2931 18.5133 21.7368 19.6059 20.9245 20.495C20.1123 21.3841 19.0744 22.0366 17.921 22.3831C16.7677 22.7296 15.542 22.7573 14.3742 22.4632C13.2064 22.169 12.1401 21.564 11.2886 20.7125C10.437 19.8609 9.83202 18.7946 9.53787 17.6268C9.24372 16.459 9.27138 15.2333 9.61792 14.08C9.96447 12.9267 10.6169 11.8887 11.5061 11.0765C12.3952 10.2642 13.4877 9.70796 14.6676 9.4668" stroke="#299E58" stroke-width="2" stroke-linecap="round" stroke-linejoin="round"/>
<path d="M16.44 4H16C13.6266 4 11.3066 4.70379 9.33316 6.02236C7.35977 7.34094 5.8217 9.21509 4.91345 11.4078C4.0052 13.6005 3.76756 16.0133 4.23058 18.3411C4.6936 20.6689 5.83649 22.8071 7.51472 24.4853C9.19295 26.1635 11.3312 27.3064 13.6589 27.7694C15.9867 28.2324 18.3995 27.9948 20.5922 27.0866C22.7849 26.1783 24.6591 24.6402 25.9776 22.6668C27.2962 20.6935 28 18.3734 28 16C28 15.8533 28 15.7067 28 15.56M20 12L16.6667 15.3333L20 12ZM20 8V12H24L28 8H24V4L20 8Z" stroke="#299E58" stroke-width="2" stroke-linecap="round" stroke-linejoin="round"/>
</svg>
