<svg width="32" height="32" viewBox="0 0 32 32" fill="none" xmlns="http://www.w3.org/2000/svg">
<path d="M15.9336 16H16.0669" stroke="#099CBC" stroke-width="3" stroke-linecap="round" stroke-linejoin="round"/>
<path d="M21.333 16C21.333 22.6667 18.9464 28 15.9997 28C13.053 28 10.6664 22.6667 10.6664 16C10.6664 9.33333 13.053 4 15.9997 4C18.9464 4 21.333 9.33333 21.333 16ZM5.66637 22.3333C7.13304 25 12.9464 24.3867 18.653 20.88C24.3597 17.3733 27.7864 12.36 26.333 9.66667C24.8797 6.97333 19.053 7.61333 13.333 11.12C7.61304 14.6267 4.21304 19.64 5.66637 22.3333ZM26.333 22.3333C27.7864 19.6667 24.3597 14.6267 18.653 11.12C12.9464 7.61333 7.13304 6.96 5.66637 9.66667C4.19971 12.3733 7.63971 17.3333 13.333 20.88C19.0264 24.4267 24.8664 25.04 26.333 22.3333Z" stroke="#099CBC" stroke-width="2" stroke-linecap="round" stroke-linejoin="round"/>
</svg>
