<svg width="32" height="32" viewBox="0 0 32 32" fill="none" xmlns="http://www.w3.org/2000/svg">
<path d="M11.9993 12H19.9993M25.3327 6.66667V26.6667C25.3327 27.0203 25.1922 27.3594 24.9422 27.6095C24.6921 27.8595 24.353 28 23.9993 28H7.99935C7.64573 28 7.30659 27.8595 7.05654 27.6095C6.80649 27.3594 6.66602 27.0203 6.66602 26.6667V5.33333C6.66602 4.97971 6.80649 4.64057 7.05654 4.39052C7.30659 4.14048 7.64573 4 7.99935 4H22.666L25.3327 6.66667ZM22.666 4V6.66667H25.3327L22.666 4ZM19.9993 22.6667H11.9993H19.9993ZM11.9993 17.3333H19.9993H11.9993Z" stroke="#099CBC" stroke-width="1.4" stroke-linecap="round" stroke-linejoin="round"/>
</svg>
