<svg width="32" height="32" viewBox="0 0 32 32" fill="none" xmlns="http://www.w3.org/2000/svg">
<path d="M10.732 22.666H10.5986" stroke="#299E58" stroke-width="3" stroke-linecap="round" stroke-linejoin="round"/>
<path d="M21.399 22.666H21.2656" stroke="#299E58" stroke-width="3" stroke-linecap="round" stroke-linejoin="round"/>
<path d="M21.332 7.99935V13.3327M14.6654 29.3327H6.66536C6.31174 29.3327 5.9726 29.1922 5.72256 28.9422C5.47251 28.6921 5.33203 28.353 5.33203 27.9993V3.99935C5.33203 3.64573 5.47251 3.30659 5.72256 3.05654C5.9726 2.80649 6.31174 2.66602 6.66536 2.66602H14.6654C15.019 2.66602 15.3581 2.80649 15.6082 3.05654C15.8582 3.30659 15.9987 3.64573 15.9987 3.99935V27.9993C15.9987 28.353 15.8582 28.6921 15.6082 28.9422C15.3581 29.1922 15.019 29.3327 14.6654 29.3327ZM10.6654 7.99935V13.3327V7.99935ZM26.6654 27.9993V3.99935C26.6654 3.64573 26.5249 3.30659 26.2748 3.05654C26.0248 2.80649 25.6857 2.66602 25.332 2.66602H17.332C16.9784 2.66602 16.6393 2.80649 16.3892 3.05654C16.1392 3.30659 15.9987 3.64573 15.9987 3.99935V27.9993C15.9987 28.353 16.1392 28.6921 16.3892 28.9422C16.6393 29.1922 16.9784 29.3327 17.332 29.3327H25.332C25.6857 29.3327 26.0248 29.1922 26.2748 28.9422C26.5249 28.6921 26.6654 28.353 26.6654 27.9993Z" stroke="#099CBC" stroke-width="2" stroke-linecap="round" stroke-linejoin="round"/>
</svg>
