<svg width="32" height="32" viewBox="0 0 32 32" fill="none" xmlns="http://www.w3.org/2000/svg">
<path d="M23.999 13.3327V11.9993C23.999 11.6457 23.8585 11.3066 23.6085 11.0565C23.3585 10.8065 23.0193 10.666 22.6657 10.666H18.6657L15.999 13.3327H5.33236C4.97873 13.3327 4.6396 13.4732 4.38955 13.7232C4.1395 13.9733 3.99902 14.3124 3.99902 14.666V23.9993C3.99902 24.353 4.1395 24.6921 4.38955 24.9422C4.6396 25.1922 4.97873 25.3327 5.33236 25.3327H14.6657" stroke="#099CBC" stroke-width="2" stroke-linecap="round" stroke-linejoin="round"/>
<path d="M18.666 10.6667L15.9993 13.3333H6.66602V5.33333C6.66602 4.97971 6.80649 4.64057 7.05654 4.39052C7.30659 4.14048 7.64573 4 7.99935 4H19.9993C20.353 4 20.6921 4.14048 20.9422 4.39052C21.1922 4.64057 21.3327 4.97971 21.3327 5.33333V10.6667H18.666ZM23.9993 18.6667L27.9993 20C27.9993 25.3333 27.1727 26.8 23.9993 28C20.826 26.8 19.9993 25.3333 19.9993 20L23.9993 18.6667Z" stroke="#099CBC" stroke-width="2" stroke-linecap="round" stroke-linejoin="round"/>
</svg>
