<svg width="32" height="32" viewBox="0 0 32 32" fill="none" xmlns="http://www.w3.org/2000/svg">
<path d="M24.0669 27.334H23.9336" stroke="#099CBC" stroke-width="3" stroke-linecap="round" stroke-linejoin="round"/>
<path d="M17.3337 28.0004H8.00033C7.6467 28.0004 7.30757 27.86 7.05752 27.6099C6.80747 27.3599 6.66699 27.0207 6.66699 26.6671C6.67044 25.1497 7.0438 23.656 7.75474 22.3154C8.46569 20.9749 9.49276 19.8279 10.747 18.9738L10.8537 18.9071C10.9937 18.8021 11.1117 18.6704 11.201 18.5198C11.2902 18.3691 11.3488 18.2023 11.3736 18.029C11.3984 17.8557 11.3887 17.6792 11.3453 17.5095C11.3018 17.3399 11.2254 17.1805 11.1203 17.0404C9.95751 15.6189 9.3258 13.837 9.33366 12.0004C9.32569 9.98904 10.0757 8.04844 11.4343 6.5652C12.7929 5.08195 14.6604 4.16492 16.6648 3.99677C18.6692 3.82862 20.6634 4.42168 22.2501 5.65783C23.8369 6.89398 24.8997 8.68249 25.227 10.6671C25.3044 11.1072 25.3401 11.5536 25.3337 12.0004" stroke="#099CBC" stroke-width="2" stroke-linecap="round" stroke-linejoin="round"/>
<path d="M24 17.334V21.334" stroke="#099CBC" stroke-width="2" stroke-linecap="round" stroke-linejoin="round"/>
</svg>
