<svg width="32" height="32" viewBox="0 0 32 32" fill="none" xmlns="http://www.w3.org/2000/svg">
<path d="M21.3329 12.0001H24.4396C24.7592 11.996 25.0696 12.1068 25.3144 12.3124C25.5591 12.518 25.7218 12.8046 25.773 13.1201L27.9996 26.4534C28.0308 26.6455 28.0195 26.8421 27.9666 27.0294C27.9137 27.2167 27.8204 27.3901 27.6934 27.5375C27.5663 27.6849 27.4085 27.8027 27.2311 27.8826C27.0536 27.9625 26.8609 28.0026 26.6663 28.0001H5.33295C5.13837 28.0026 4.94559 27.9625 4.76816 27.8826C4.59072 27.8027 4.43294 27.6849 4.30588 27.5375C4.17881 27.3901 4.08555 27.2167 4.03265 27.0294C3.97974 26.8421 3.96846 26.6455 3.99962 26.4534L6.22628 13.1201C6.2774 12.8046 6.44014 12.518 6.68487 12.3124C6.9296 12.1068 7.24003 11.996 7.55962 12.0001H10.6663" stroke="#099CBC" stroke-width="2" stroke-linecap="round" stroke-linejoin="round"/>
<path d="M21.3337 9.33333C21.3337 7.91885 20.7718 6.56229 19.7716 5.5621C18.7714 4.5619 17.4148 4 16.0003 4C14.5858 4 13.2293 4.5619 12.2291 5.5621C11.2289 6.56229 10.667 7.91885 10.667 9.33333C10.667 14.6667 16.0003 20 16.0003 20C16.0003 20 21.3337 14.6667 21.3337 9.33333Z" stroke="#099CBC" stroke-width="2" stroke-linecap="round" stroke-linejoin="round"/>
</svg>
