<svg width="32" height="32" viewBox="0 0 32 32" fill="none" xmlns="http://www.w3.org/2000/svg">
<path d="M18.6663 6.66602H25.333C25.6866 6.66602 26.0258 6.80649 26.2758 7.05654C26.5259 7.30659 26.6663 7.64573 26.6663 7.99935V19.9993L18.6663 27.9993H6.66634C6.31272 27.9993 5.97358 27.8589 5.72353 27.6088C5.47348 27.3588 5.33301 27.0196 5.33301 26.666V7.99935C5.33301 7.64573 5.47348 7.30659 5.72353 7.05654C5.97358 6.80649 6.31272 6.66602 6.66634 6.66602H13.333" stroke="#099CBC" stroke-width="2" stroke-linecap="round" stroke-linejoin="round"/>
<path d="M18.6663 20V28L26.6663 20H18.6663ZM18.6663 10.6667V5.33333C18.6663 4.97971 18.5259 4.64057 18.2758 4.39052C18.0258 4.14048 17.6866 4 17.333 4H14.6663C14.3127 4 13.9736 4.14048 13.7235 4.39052C13.4735 4.64057 13.333 4.97971 13.333 5.33333V10.6667C13.333 11.0203 13.4735 11.3594 13.7235 11.6095C13.9736 11.8595 14.3127 12 14.6663 12H17.333C17.6866 12 18.0258 11.8595 18.2758 11.6095C18.5259 11.3594 18.6663 11.0203 18.6663 10.6667V10.6667Z" stroke="#099CBC" stroke-width="2" stroke-linecap="round" stroke-linejoin="round"/>
</svg>
