<svg width="32" height="32" viewBox="0 0 32 32" fill="none" xmlns="http://www.w3.org/2000/svg">
<path d="M28 8V26.6667C28 27.0203 27.8595 27.3594 27.6095 27.6095C27.3594 27.8595 27.0203 28 26.6667 28H5.33333C4.97971 28 4.64057 27.8595 4.39052 27.6095C4.14048 27.3594 4 27.0203 4 26.6667V8C4 7.64638 4.14048 7.30724 4.39052 7.05719C4.64057 6.80714 4.97971 6.66667 5.33333 6.66667H8L10.6667 4H21.3333L24 6.66667H26.6667C27.0203 6.66667 27.3594 6.80714 27.6095 7.05719C27.8595 7.30724 28 7.64638 28 8ZM10.6667 4L16 9.72L21.3333 4H10.6667ZM21.3333 4L16 9.72L21.3333 13.3333L24 6.66667L21.3333 4ZM8 6.66667L10.6667 13.3333L16 9.72L10.6667 4L8 6.66667Z" stroke="#099CBC" stroke-width="2" stroke-linecap="round" stroke-linejoin="round"/>
</svg>
