<svg width="32" height="32" viewBox="0 0 32 32" fill="none" xmlns="http://www.w3.org/2000/svg">
<path d="M26.6667 25.3333H5.33333C4.97971 25.3333 4.64057 25.1929 4.39052 24.9428C4.14048 24.6928 4 24.3536 4 24V5.33333C4 4.97971 4.14048 4.64057 4.39052 4.39052C4.64057 4.14048 4.97971 4 5.33333 4H26.6667C27.0203 4 27.3594 4.14048 27.6095 4.39052C27.8595 4.64057 28 4.97971 28 5.33333V24C28 24.3536 27.8595 24.6928 27.6095 24.9428C27.3594 25.1929 27.0203 25.3333 26.6667 25.3333ZM14.6667 14.6667C14.6667 14.1393 14.5103 13.6237 14.2173 13.1851C13.9242 12.7466 13.5078 12.4048 13.0205 12.203C12.5332 12.0012 11.997 11.9483 11.4798 12.0512C10.9625 12.1541 10.4873 12.4081 10.1144 12.781C9.74144 13.154 9.48747 13.6291 9.38457 14.1464C9.28168 14.6637 9.33449 15.1999 9.53632 15.6872C9.73815 16.1744 10.0799 16.5909 10.5185 16.8839C10.957 17.1769 11.4726 17.3333 12 17.3333C12.7072 17.3333 13.3855 17.0524 13.8856 16.5523C14.3857 16.0522 14.6667 15.3739 14.6667 14.6667ZM14.6667 14.6667H17.3333H14.6667ZM10.6667 25.3333H8V28H10.6667V25.3333ZM21.3333 28H24V25.3333H21.3333V28Z" stroke="#099CBC" stroke-width="2" stroke-linecap="round" stroke-linejoin="round"/>
</svg>
