<svg width="32" height="32" viewBox="0 0 32 32" fill="none" xmlns="http://www.w3.org/2000/svg">
<path d="M18.6671 28H13.3338V5.33333C13.3338 4.97971 13.4742 4.64057 13.7243 4.39052C13.9743 4.14048 14.3135 4 14.6671 4H17.3338C17.6874 4 18.0265 4.14048 18.2766 4.39052C18.5266 4.64057 18.6671 4.97971 18.6671 5.33333V28ZM10.6671 28H21.3338H10.6671ZM4.33375 12.8933L5.53375 14.2267C5.65841 14.3648 5.8106 14.4753 5.98053 14.5511C6.15045 14.6269 6.33436 14.6662 6.52042 14.6667H13.3338V9.33333H6.52042C6.33436 9.33377 6.15045 9.37315 5.98053 9.44893C5.8106 9.52471 5.65841 9.63521 5.53375 9.77333L4.33375 11.1067C4.11263 11.3517 3.99023 11.67 3.99023 12C3.99023 12.33 4.11263 12.6483 4.33375 12.8933V12.8933ZM27.6671 13.7733L26.4671 12.44C26.3424 12.3019 26.1902 12.1914 26.0203 12.1156C25.8504 12.0398 25.6665 12.0004 25.4804 12H18.6671V17.3333H25.4804C25.6665 17.3329 25.8504 17.2935 26.0203 17.2177C26.1902 17.142 26.3424 17.0315 26.4671 16.8933L27.6671 15.56C27.8882 15.315 28.0106 14.9967 28.0106 14.6667C28.0106 14.3366 27.8882 14.0183 27.6671 13.7733Z" stroke="#099CBC" stroke-width="2" stroke-linecap="round" stroke-linejoin="round"/>
</svg>
