<svg width="36" height="36" viewBox="0 0 36 36" fill="none" xmlns="http://www.w3.org/2000/svg">
<path d="M31.5 15V30C31.5 30.3978 31.342 30.7794 31.0607 31.0607C30.7794 31.342 30.3978 31.5 30 31.5H6C5.60218 31.5 5.22064 31.342 4.93934 31.0607C4.65804 30.7794 4.5 30.3978 4.5 30V15C4.5 14.6022 4.65804 14.2206 4.93934 13.9393C5.22064 13.658 5.60218 13.5 6 13.5H30C30.3978 13.5 30.7794 13.658 31.0607 13.9393C31.342 14.2206 31.5 14.6022 31.5 15ZM25.815 13.5L28.5 9.66L21.135 4.5L14.82 13.5H25.815ZM13.635 6L8.37 13.5H14.82L18 9L13.635 6ZM31.5 19.5H24C23.6022 19.5 23.2206 19.658 22.9393 19.9393C22.658 20.2206 22.5 20.6022 22.5 21V24C22.5 24.3978 22.658 24.7794 22.9393 25.0607C23.2206 25.342 23.6022 25.5 24 25.5H31.5V19.5Z" stroke="#E0990C" stroke-width="2" stroke-linecap="round" stroke-linejoin="round"/>
</svg>
