<svg width="40" height="40" viewBox="0 0 40 40" fill="none" xmlns="http://www.w3.org/2000/svg">
<path d="M30.0827 34.166H29.916" stroke="#099CBC" stroke-width="3" stroke-linecap="round" stroke-linejoin="round"/>
<path d="M21.6673 35.0006H10.0007C9.55862 35.0006 9.1347 34.825 8.82214 34.5124C8.50958 34.1998 8.33398 33.7759 8.33398 33.3339C8.33829 31.4371 8.805 29.57 9.69368 27.8943C10.5824 26.2186 11.8662 24.7848 13.434 23.7172L13.5673 23.6339C13.7424 23.5026 13.8899 23.338 14.0014 23.1497C14.113 22.9614 14.1863 22.7529 14.2172 22.5363C14.2482 22.3196 14.2362 22.0989 14.1818 21.8869C14.1275 21.6749 14.032 21.4757 13.9007 21.3006C12.4471 19.5237 11.6575 17.2962 11.6673 15.0006C11.6574 12.4863 12.5949 10.0605 14.2931 8.20649C15.9914 6.35244 18.3258 5.20615 20.8313 4.99596C23.3367 4.78577 25.8294 5.5271 27.8129 7.07229C29.7963 8.61748 31.1249 10.8531 31.534 13.3339C31.6307 13.884 31.6754 14.442 31.6673 15.0006" stroke="#099CBC" stroke-width="2" stroke-linecap="round" stroke-linejoin="round"/>
<path d="M30 21.666V26.666" stroke="#099CBC" stroke-width="2" stroke-linecap="round" stroke-linejoin="round"/>
</svg>
