<svg width="41" height="41" viewBox="0 0 41 41" fill="none" xmlns="http://www.w3.org/2000/svg">
<path d="M35.016 27.3169L26.8327 35.5003H22.166V30.8336L30.3493 22.6503C30.6609 22.3449 31.0798 22.1738 31.516 22.1738C31.9523 22.1738 32.3711 22.3449 32.6827 22.6503L35.016 24.9836C35.3214 25.2951 35.4924 25.714 35.4924 26.1503C35.4924 26.5865 35.3214 27.0054 35.016 27.3169V27.3169Z" stroke="#099CBC" stroke-width="2" stroke-linecap="round" stroke-linejoin="round"/>
<path d="M28.8339 15.9504C28.8423 15.8005 28.8423 15.6503 28.8339 15.5004C28.8287 13.555 28.2561 11.6534 27.1864 10.0285C26.1166 8.40358 24.5961 7.12601 22.8112 6.35228C21.0262 5.57855 19.0544 5.34226 17.1372 5.67236C15.22 6.00246 13.4407 6.88462 12.0173 8.21075C10.5939 9.53689 9.58823 11.2494 9.1235 13.1385C8.65877 15.0276 8.75516 17.0112 9.40085 18.8464C10.0465 20.6815 11.2135 22.2885 12.7587 23.4704C14.304 24.6523 16.1604 25.3577 18.1006 25.5004" stroke="#099CBC" stroke-width="2" stroke-linecap="round" stroke-linejoin="round"/>
<path d="M15.5 35.5007C8.08333 34.884 5.5 32.1673 5.5 32.1673V30.5007C5.50584 28.735 6.07232 27.0169 7.11774 25.5941C8.16316 24.1712 9.63349 23.1172 11.3167 22.584" stroke="#099CBC" stroke-width="2" stroke-linecap="round" stroke-linejoin="round"/>
</svg>
