<svg width="20" height="20" viewBox="0 0 20 20" fill="none" xmlns="http://www.w3.org/2000/svg">
<path d="M5.83333 7.49935L9.48333 10.4077C9.63046 10.5239 9.81249 10.5872 10 10.5872C10.1875 10.5872 10.3695 10.5239 10.5167 10.4077L14.1667 7.49935M16.6667 15.8327H3.33333C3.11232 15.8327 2.90036 15.7449 2.74408 15.5886C2.5878 15.4323 2.5 15.2204 2.5 14.9993V4.99935C2.5 4.77834 2.5878 4.56637 2.74408 4.41009C2.90036 4.25381 3.11232 4.16602 3.33333 4.16602H16.6667C16.8877 4.16602 17.0996 4.25381 17.2559 4.41009C17.4122 4.56637 17.5 4.77834 17.5 4.99935V14.9993C17.5 15.2204 17.4122 15.4323 17.2559 15.5886C17.0996 15.7449 16.8877 15.8327 16.6667 15.8327Z" stroke="#8F9096" stroke-linecap="round" stroke-linejoin="round"/>
</svg>
