<svg width="20" height="20" viewBox="0 0 20 20" fill="none" xmlns="http://www.w3.org/2000/svg">
<path d="M9.16602 8.33398L10.8327 10.0007L12.4993 8.33398" stroke="#8F9096" stroke-linecap="round" stroke-linejoin="round"/>
<path d="M10.8333 10V5.83333M17.5 3.33333V15.4167C17.5 15.9692 17.2805 16.4991 16.8898 16.8898C16.4991 17.2805 15.9692 17.5 15.4167 17.5C14.8641 17.5 14.3342 17.2805 13.9435 16.8898C13.5528 16.4991 13.3333 15.9692 13.3333 15.4167V13.3333H4.16667V3.33333C4.16667 3.11232 4.25446 2.90036 4.41074 2.74408C4.56702 2.5878 4.77899 2.5 5 2.5H16.6667C16.8877 2.5 17.0996 2.5878 17.2559 2.74408C17.4122 2.90036 17.5 3.11232 17.5 3.33333ZM13.3333 15.4167V13.3333H2.5V15.4167C2.5 15.9692 2.71949 16.4991 3.11019 16.8898C3.50089 17.2805 4.0308 17.5 4.58333 17.5H15.4167C14.8641 17.5 14.3342 17.2805 13.9435 16.8898C13.5528 16.4991 13.3333 15.9692 13.3333 15.4167Z" stroke="#8F9096" stroke-linecap="round" stroke-linejoin="round"/>
</svg>
