<svg width="21" height="21" viewBox="0 0 21 21" fill="none" xmlns="http://www.w3.org/2000/svg">
<path d="M18 5.49935C18 5.27834 17.9122 5.06637 17.7559 4.91009C17.5996 4.75381 17.3877 4.66602 17.1667 4.66602H14.6667C14.6667 5.55007 15.0179 6.39792 15.643 7.02304C16.2681 7.64816 17.1159 7.99935 18 7.99935V5.49935ZM3 7.99935C3.88405 7.99935 4.7319 7.64816 5.35702 7.02304C5.98214 6.39792 6.33333 5.55007 6.33333 4.66602H3.83333C3.61232 4.66602 3.40036 4.75381 3.24408 4.91009C3.0878 5.06637 3 5.27834 3 5.49935V7.99935ZM18 12.9993C17.1159 12.9993 16.2681 13.3505 15.643 13.9757C15.0179 14.6008 14.6667 15.4486 14.6667 16.3327H17.1667C17.3877 16.3327 17.5996 16.2449 17.7559 16.0886C17.9122 15.9323 18 15.7204 18 15.4993V12.9993ZM3 15.4993C3 15.7204 3.0878 15.9323 3.24408 16.0886C3.40036 16.2449 3.61232 16.3327 3.83333 16.3327H6.33333C6.33333 15.4486 5.98214 14.6008 5.35702 13.9757C4.7319 13.3505 3.88405 12.9993 3 12.9993V12.9993V15.4993ZM10.5 8.83268C10.1704 8.83268 9.84813 8.93043 9.57405 9.11357C9.29997 9.2967 9.08635 9.557 8.9602 9.86154C8.83405 10.1661 8.80105 10.5012 8.86536 10.8245C8.92967 11.1478 9.0884 11.4448 9.32149 11.6779C9.55458 11.9109 9.85155 12.0697 10.1748 12.134C10.4982 12.1983 10.8333 12.1653 11.1378 12.0391C11.4423 11.913 11.7026 11.6994 11.8858 11.4253C12.0689 11.1512 12.1667 10.829 12.1667 10.4993C12.1667 10.0573 11.9911 9.6334 11.6785 9.32084C11.366 9.00828 10.942 8.83268 10.5 8.83268Z" stroke="#8F9096" stroke-linecap="round" stroke-linejoin="round"/>
<path d="M17.1667 4.66602H3.83333C3.3731 4.66602 3 5.03911 3 5.49935V15.4993C3 15.9596 3.3731 16.3327 3.83333 16.3327H17.1667C17.6269 16.3327 18 15.9596 18 15.4993V5.49935C18 5.03911 17.6269 4.66602 17.1667 4.66602Z" stroke="#8F9096" stroke-linecap="round" stroke-linejoin="round"/>
</svg>
