<svg width="20" height="20" viewBox="0 0 20 20" fill="none" xmlns="http://www.w3.org/2000/svg">
<path d="M13.334 5.83333C13.334 6.4926 13.1385 7.13707 12.7722 7.68523C12.4059 8.2334 11.8853 8.66064 11.2763 8.91293C10.6672 9.16522 9.99695 9.23124 9.35035 9.10262C8.70375 8.974 8.1098 8.65653 7.64363 8.19036C7.17745 7.72418 6.85998 7.13024 6.73137 6.48363C6.60275 5.83703 6.66876 5.16681 6.92105 4.55772C7.17334 3.94863 7.60059 3.42804 8.14875 3.06177C8.69691 2.6955 9.34138 2.5 10.0007 2.5C10.8847 2.5 11.7326 2.85119 12.3577 3.47631C12.9828 4.10143 13.334 4.94928 13.334 5.83333ZM12.5007 12.5H7.50065C6.39558 12.5 5.33577 12.939 4.55437 13.7204C3.77297 14.5018 3.33398 15.5616 3.33398 16.6667V16.6667C3.33398 16.8877 3.42178 17.0996 3.57806 17.2559C3.73434 17.4122 3.9463 17.5 4.16732 17.5H15.834C16.055 17.5 16.267 17.4122 16.4232 17.2559C16.5795 17.0996 16.6673 16.8877 16.6673 16.6667C16.6673 15.5616 16.2283 14.5018 15.4469 13.7204C14.6655 12.939 13.6057 12.5 12.5007 12.5Z" stroke="#8F9096" stroke-linecap="round" stroke-linejoin="round"/>
</svg>
