<svg width="25" height="24" viewBox="0 0 25 24" fill="none" xmlns="http://www.w3.org/2000/svg">
<path d="M19.88 14.38C20.0768 14.577 20.2329 14.8109 20.3392 15.0683C20.4456 15.3257 20.5002 15.6015 20.5 15.88V15.88C20.5 16.4423 20.2766 16.9815 19.8791 17.3791C19.4815 17.7766 18.9423 18 18.38 18H6.62C6.05774 18 5.51851 17.7766 5.12093 17.3791C4.72336 16.9815 4.5 16.4423 4.5 15.88V15.88C4.49976 15.6015 4.55438 15.3257 4.66077 15.0683C4.76715 14.8109 4.9232 14.577 5.12 14.38L6.5 13V9C6.5 7.4087 7.13214 5.88258 8.25736 4.75736C9.38258 3.63214 10.9087 3 12.5 3V3C14.0913 3 15.6174 3.63214 16.7426 4.75736C17.8679 5.88258 18.5 7.4087 18.5 9V13L19.88 14.38ZM15.5 18H9.5C9.5 18.7956 9.81607 19.5587 10.3787 20.1213C10.9413 20.6839 11.7044 21 12.5 21C13.2957 21 14.0587 20.6839 14.6213 20.1213C15.1839 19.5587 15.5 18.7956 15.5 18Z" stroke="#E0990C" stroke-width="2" stroke-linecap="round" stroke-linejoin="round"/>
</svg>
