<svg width="20" height="20" viewBox="0 0 20 20" fill="none" xmlns="http://www.w3.org/2000/svg">
<path d="M8.33341 11.6674L11.6667 8.33406M3.75008 16.2507C3.19845 15.6977 2.88867 14.9485 2.88867 14.1674C2.88867 13.3863 3.19845 12.6371 3.75008 12.0841L5.83341 10.0007C6.38643 9.44911 7.13565 9.13932 7.91675 9.13932C8.69785 9.13932 9.44706 9.44911 10.0001 10.0007C10.5517 10.5537 10.8615 11.303 10.8615 12.0841C10.8615 12.8652 10.5517 13.6144 10.0001 14.1674L7.91675 16.2507C7.36373 16.8024 6.61451 17.1121 5.83341 17.1121C5.05231 17.1121 4.3031 16.8024 3.75008 16.2507ZM14.5834 9.58406L16.6667 7.50073C17.2184 6.94771 17.5282 6.1985 17.5282 5.4174C17.5282 4.6363 17.2184 3.88708 16.6667 3.33406V3.33406C16.1137 2.78244 15.3645 2.47266 14.5834 2.47266C13.8023 2.47266 13.0531 2.78244 12.5001 3.33406L10.4167 5.4174C9.86512 5.97041 9.55534 6.71963 9.55534 7.50073C9.55534 8.28183 9.86512 9.03105 10.4167 9.58406V9.58406C10.9698 10.1357 11.719 10.4455 12.5001 10.4455C13.2812 10.4455 14.0304 10.1357 14.5834 9.58406Z" stroke="#8F9096" stroke-linecap="round" stroke-linejoin="round"/>
</svg>
