<svg width="20" height="20" viewBox="0 0 20 20" fill="none" xmlns="http://www.w3.org/2000/svg">
<path d="M17.5006 12.5V15.775C17.5031 16.0158 17.4535 16.2543 17.355 16.474C17.2566 16.6938 17.1117 16.8896 16.9303 17.048C16.749 17.2064 16.5354 17.3236 16.3044 17.3915C16.0735 17.4595 15.8305 17.4766 15.5922 17.4417C12.2897 17.0175 9.22218 15.5064 6.87304 13.1467C4.52389 10.787 3.02665 7.71276 2.61723 4.40836C2.58241 4.17082 2.59933 3.92856 2.66681 3.69816C2.7343 3.46776 2.85077 3.25466 3.00825 3.07344C3.16572 2.89223 3.36049 2.74717 3.57922 2.6482C3.79795 2.54923 4.03548 2.49869 4.27556 2.50003H7.50056C7.70657 2.49878 7.90575 2.57388 8.05964 2.71085C8.21353 2.84781 8.31124 3.03693 8.33389 3.24169C8.41659 4.33384 8.69905 5.40153 9.16723 6.39169C9.24751 6.57922 9.25622 6.78967 9.19172 6.98319C9.12721 7.17671 8.99397 7.33984 8.81723 7.44169L8.10056 7.85003C7.99726 7.90684 7.90719 7.98493 7.8363 8.07913C7.76541 8.17333 7.71532 8.28149 7.68932 8.39649C7.66333 8.51148 7.66204 8.63068 7.68552 8.74621C7.70901 8.86174 7.75674 8.97097 7.82556 9.06669C8.65 10.2743 9.69291 11.3173 10.9006 12.1417C10.9963 12.2105 11.1055 12.2582 11.221 12.2817C11.3366 12.3052 11.4558 12.3039 11.5708 12.2779C11.6858 12.2519 11.7939 12.2018 11.8881 12.131C11.9823 12.0601 12.0604 11.97 12.1172 11.8667L12.5256 11.15C12.6335 10.971 12.8048 10.839 13.0055 10.7804C13.2061 10.7217 13.4215 10.7406 13.6089 10.8334C14.5991 11.3015 15.6667 11.584 16.7589 11.6667C16.9637 11.6894 17.1528 11.7871 17.2897 11.9409C17.4267 12.0948 17.5018 12.294 17.5006 12.5Z" stroke="#8F9096" stroke-linecap="round" stroke-linejoin="round"/>
</svg>
