<svg width="41" height="40" viewBox="0 0 41 40" fill="none" xmlns="http://www.w3.org/2000/svg">
<path d="M30.3333 21.6667V6.66667C30.3333 6.22464 30.1577 5.80072 29.8452 5.48816C29.5326 5.17559 29.1087 5 28.6667 5H8.66667C8.22464 5 7.80072 5.17559 7.48816 5.48816C7.1756 5.80072 7 6.22464 7 6.66667V33.3333C7 33.7754 7.1756 34.1993 7.48816 34.5118C7.80072 34.8244 8.22464 35 8.66667 35H20.3333" stroke="#299E58" stroke-width="2" stroke-linecap="round" stroke-linejoin="round"/>
<path d="M30.3346 28.3333V35M13.668 5H23.668V10C23.668 10.442 23.4924 10.866 23.1798 11.1785C22.8673 11.4911 22.4433 11.6667 22.0013 11.6667H15.3346C14.8926 11.6667 14.4687 11.4911 14.1561 11.1785C13.8436 10.866 13.668 10.442 13.668 10V5ZM13.668 28.3333H20.3346H13.668ZM13.668 21.6667H23.668H13.668ZM27.0013 31.6667H33.668H27.0013Z" stroke="#299E58" stroke-width="2" stroke-linecap="round" stroke-linejoin="round"/>
</svg>
