<svg width="36" height="36" viewBox="0 0 36 36" fill="none" xmlns="http://www.w3.org/2000/svg">
<path d="M25.5 12C25.5 13.4834 25.0601 14.9334 24.236 16.1668C23.4119 17.4001 22.2406 18.3614 20.8701 18.9291C19.4997 19.4968 17.9917 19.6453 16.5368 19.3559C15.082 19.0665 13.7456 18.3522 12.6967 17.3033C11.6478 16.2544 10.9335 14.918 10.6441 13.4632C10.3547 12.0083 10.5032 10.5003 11.0709 9.12987C11.6386 7.75943 12.5999 6.58809 13.8332 5.76398C15.0666 4.93987 16.5166 4.5 18 4.5C19.9891 4.5 21.8968 5.29018 23.3033 6.6967C24.7098 8.10322 25.5 10.0109 25.5 12ZM19.5 19.5H16.5C13.7152 19.5 11.0445 20.6062 9.07538 22.5754C7.10625 24.5445 6 27.2152 6 30V30C6 30.3978 6.15804 30.7794 6.43934 31.0607C6.72064 31.342 7.10218 31.5 7.5 31.5H28.5C28.8978 31.5 29.2794 31.342 29.5607 31.0607C29.842 30.7794 30 30.3978 30 30C30 27.2152 28.8938 24.5445 26.9246 22.5754C24.9555 20.6062 22.2848 19.5 19.5 19.5V19.5Z" stroke="#E0990C" stroke-width="2" stroke-linecap="round" stroke-linejoin="round"/>
</svg>
