<svg width="20" height="21" viewBox="0 0 20 21" fill="none" xmlns="http://www.w3.org/2000/svg">
<path d="M13.334 9.25L11.7423 11.3333L10.834 10.2917" stroke="#8F9096" stroke-linecap="round" stroke-linejoin="round"/>
<path d="M5 15.5V17.1667C5 17.3877 5.0878 17.5996 5.24408 17.7559C5.40036 17.9122 5.61232 18 5.83333 18H15.8333C16.0543 18 16.2663 17.9122 16.4226 17.7559C16.5789 17.5996 16.6667 17.3877 16.6667 17.1667V3.83333C16.6667 3.61232 16.5789 3.40036 16.4226 3.24408C16.2663 3.0878 16.0543 3 15.8333 3H7.5" stroke="#8F9096" stroke-linecap="round" stroke-linejoin="round"/>
<path d="M6.66732 6.33398H4.58398C4.25246 6.33398 3.93452 6.46568 3.7001 6.7001C3.46568 6.93452 3.33398 7.25246 3.33398 7.58398C3.33398 7.9155 3.46568 8.23345 3.7001 8.46787C3.93452 8.70229 4.25246 8.83398 4.58398 8.83398H5.41732C5.74884 8.83398 6.06678 8.96568 6.3012 9.2001C6.53562 9.43452 6.66732 9.75246 6.66732 10.084C6.66732 10.4155 6.53562 10.7334 6.3012 10.9679C6.06678 11.2023 5.74884 11.334 5.41732 11.334H3.33398" stroke="#8F9096" stroke-linecap="round" stroke-linejoin="round"/>
<path d="M5 12.1667V11.3333M8.33333 14.6667H13.3333H8.33333ZM5 6.33333V5.5V6.33333Z" stroke="#8F9096" stroke-linecap="round" stroke-linejoin="round"/>
</svg>
