<svg width="41" height="40" viewBox="0 0 41 40" fill="none" xmlns="http://www.w3.org/2000/svg">
<path d="M17.168 16.6673L20.5013 20.0007L27.168 13.334" stroke="#299E58" stroke-width="2" stroke-linecap="round" stroke-linejoin="round"/>
<path d="M35.5 6.66667V30.8333C35.5 31.9384 35.061 32.9982 34.2796 33.7796C33.4982 34.561 32.4384 35 31.3333 35C30.2283 35 29.1685 34.561 28.3871 33.7796C27.6057 32.9982 27.1667 31.9384 27.1667 30.8333V26.6667H8.83333V6.66667C8.83333 6.22464 9.00893 5.80072 9.32149 5.48816C9.63405 5.17559 10.058 5 10.5 5H33.8333C34.2754 5 34.6993 5.17559 35.0118 5.48816C35.3244 5.80072 35.5 6.22464 35.5 6.66667ZM27.1667 30.8333V26.6667H5.5V30.8333C5.5 31.9384 5.93899 32.9982 6.72039 33.7796C7.50179 34.561 8.5616 35 9.66667 35H31.3333C30.2283 35 29.1685 34.561 28.3871 33.7796C27.6057 32.9982 27.1667 31.9384 27.1667 30.8333Z" stroke="#299E58" stroke-width="2" stroke-linecap="round" stroke-linejoin="round"/>
</svg>
