<svg width="36" height="36" viewBox="0 0 36 36" fill="none" xmlns="http://www.w3.org/2000/svg">
<path d="M31.5 6V27.75C31.5 28.7446 31.1049 29.6984 30.4017 30.4017C29.6984 31.1049 28.7446 31.5 27.75 31.5C26.7554 31.5 25.8016 31.1049 25.0983 30.4017C24.3951 29.6984 24 28.7446 24 27.75V24H7.5V6C7.5 5.60218 7.65804 5.22064 7.93934 4.93934C8.22064 4.65804 8.60218 4.5 9 4.5H30C30.3978 4.5 30.7794 4.65804 31.0607 4.93934C31.342 5.22064 31.5 5.60218 31.5 6ZM24 27.75V24H4.5V27.75C4.5 28.7446 4.89509 29.6984 5.59835 30.4017C6.30161 31.1049 7.25544 31.5 8.25 31.5H27.75C26.7554 31.5 25.8016 31.1049 25.0983 30.4017C24.3951 29.6984 24 28.7446 24 27.75Z" stroke="#E0990C" stroke-width="2" stroke-linecap="round" stroke-linejoin="round"/>
<path d="M15 15L18 18L24 12" stroke="#E0990C" stroke-width="2" stroke-linecap="round" stroke-linejoin="round"/>
</svg>
