<svg width="41" height="40" viewBox="0 0 41 40" fill="none" xmlns="http://www.w3.org/2000/svg">
<path d="M30.6654 25V6.66667C30.6654 6.22464 30.4898 5.80072 30.1772 5.48816C29.8647 5.17559 29.4407 5 28.9987 5H8.9987C8.55667 5 8.13275 5.17559 7.82019 5.48816C7.50763 5.80072 7.33203 6.22464 7.33203 6.66667V33.3333C7.33203 33.7754 7.50763 34.1993 7.82019 34.5118C8.13275 34.8244 8.55667 35 8.9987 35H20.6654" stroke="#fff" stroke-width="2" stroke-linecap="round" stroke-linejoin="round"/>
<path d="M27.3333 31.6667H34M14 5H24V10C24 10.442 23.8244 10.866 23.5118 11.1785C23.1993 11.4911 22.7754 11.6667 22.3333 11.6667H15.6667C15.2246 11.6667 14.8007 11.4911 14.4882 11.1785C14.1756 10.866 14 10.442 14 10V5ZM14 28.3333H20.6667H14ZM14 21.6667H24H14Z" stroke="#fff" stroke-width="2" stroke-linecap="round" stroke-linejoin="round"/>
</svg>
