<svg width="20" height="20" viewBox="0 0 20 20" fill="none" xmlns="http://www.w3.org/2000/svg">
<path d="M17.5 13.334V15.834C17.5 16.055 17.4122 16.267 17.2559 16.4232C17.0996 16.5795 16.8877 16.6673 16.6667 16.6673H3.33333C3.11232 16.6673 2.90036 16.5795 2.74408 16.4232C2.5878 16.267 2.5 16.055 2.5 15.834L2.5 4.16732C2.5 3.9463 2.5878 3.73434 2.74408 3.57806C2.90036 3.42178 3.11232 3.33398 3.33333 3.33398L10 3.33398" stroke="#099CBC" stroke-linecap="round" stroke-linejoin="round"/>
<path d="M15 10L17.5 7.5L15 5" stroke="#099CBC" stroke-width="2" stroke-linecap="round" stroke-linejoin="round"/>
<path d="M17.5007 7.5H13.9257C12.2455 7.49933 10.5985 7.9668 9.16919 8.84997C7.73993 9.73314 6.585 10.9971 5.83398 12.5" stroke="#099CBC" stroke-width="2" stroke-linecap="round" stroke-linejoin="round"/>
</svg>
