<svg width="32" height="32" viewBox="0 0 32 32" fill="none" xmlns="http://www.w3.org/2000/svg">
<path d="M28 16H4.00001M16 28C13.6266 28 11.3066 27.2962 9.33316 25.9776C7.35977 24.6591 5.8217 22.7849 4.91345 20.5922C4.0052 18.3995 3.76756 15.9867 4.23058 13.6589C4.6936 11.3312 5.83649 9.19295 7.51472 7.51472C9.19295 5.83649 11.3312 4.6936 13.6589 4.23058C15.9867 3.76756 18.3995 4.0052 20.5922 4.91345C22.7849 5.8217 24.6591 7.35977 25.9776 9.33316C27.2962 11.3066 28 13.6266 28 16C28 19.1826 26.7357 22.2348 24.4853 24.4853C22.2348 26.7357 19.1826 28 16 28V28ZM21.3333 16C21.3333 9.33334 18.9467 4.00001 16 4.00001C13.0533 4.00001 10.6667 9.33334 10.6667 16C10.6667 22.6667 13.0533 28 16 28C18.9467 28 21.3333 22.6667 21.3333 16Z" stroke="#E0990C" stroke-width="2" stroke-linecap="round" stroke-linejoin="round"/>
</svg>
