<svg width="24" height="25" viewBox="0 0 24 25" fill="none" xmlns="http://www.w3.org/2000/svg">
<path d="M2.5 7.9668V4.4668C2.5 4.06897 2.65804 3.68744 2.93934 3.40614C3.22064 3.12483 3.60218 2.9668 4 2.9668H20C20.3978 2.9668 20.7794 3.12483 21.0607 3.40614C21.342 3.68744 21.5 4.06897 21.5 4.4668V7.9668H2.5ZM20 21.9668H16.5V10.9668H21.5V20.4668C21.5 20.8646 21.342 21.2462 21.0607 21.5275C20.7794 21.8088 20.3978 21.9668 20 21.9668Z" fill="white" stroke="white"/>
<path d="M14 10.4668H2V20.4668C2 20.9972 2.21071 21.5059 2.58579 21.881C2.96086 22.2561 3.46957 22.4668 4 22.4668H14V10.4668Z" fill="white" fill-opacity="0.5"/>
</svg>
