<svg width="40" height="32" viewBox="0 0 40 32" fill="none" xmlns="http://www.w3.org/2000/svg">
<path d="M20 26.6673L12 24.0006V5.33398L20 8.00065V26.6673ZM20 8.00065L12 5.33398L4 8.00065V26.6673L12 24.0006L20 26.6673L28 24.0006V5.33398L20 8.00065Z" stroke="#E0990C" stroke-width="2" stroke-linecap="round" stroke-linejoin="round"/>
<path d="M34.4166 7.66602C34.1968 7.66288 33.9872 7.57303 33.8333 7.41602C33.6781 7.25988 33.591 7.04867 33.591 6.82852C33.591 6.60836 33.6781 6.39715 33.8333 6.24102L35.075 4.99935C35.1527 4.92165 35.2449 4.86002 35.3464 4.81797C35.448 4.77592 35.5568 4.75427 35.6666 4.75427C35.7765 4.75427 35.8853 4.77592 35.9869 4.81797C36.0884 4.86002 36.1806 4.92165 36.2583 4.99935C36.336 5.07705 36.3976 5.16929 36.4397 5.27081C36.4817 5.37233 36.5034 5.48113 36.5034 5.59102C36.5034 5.7009 36.4817 5.80971 36.4397 5.91122C36.3976 6.01274 36.336 6.10498 36.2583 6.18268L35 7.41602C34.8461 7.57303 34.6365 7.66288 34.4166 7.66602ZM26.1666 7.41602C26.3219 7.25988 26.409 7.04867 26.409 6.82852C26.409 6.60836 26.3219 6.39715 26.1666 6.24102L24.925 4.99935C24.7692 4.84243 24.5574 4.75383 24.3363 4.75305C24.1151 4.75227 23.9027 4.83937 23.7458 4.99518C23.5889 5.151 23.5003 5.36277 23.4995 5.5839C23.4987 5.80504 23.5858 6.01743 23.7416 6.17435L25 7.41602C25.0772 7.49476 25.1692 7.5574 25.2708 7.60031C25.3723 7.64323 25.4814 7.66556 25.5916 7.66602C25.8086 7.66071 26.0148 7.57103 26.1666 7.41602ZM30.8333 4.99935V3.33268H32.5C32.721 3.33268 32.933 3.24489 33.0892 3.0886C33.2455 2.93232 33.3333 2.72036 33.3333 2.49935C33.3333 2.27834 33.2455 2.06637 33.0892 1.91009C32.933 1.75381 32.721 1.66602 32.5 1.66602H27.5C27.279 1.66602 27.067 1.75381 26.9107 1.91009C26.7544 2.06637 26.6666 2.27834 26.6666 2.49935C26.6666 2.72036 26.7544 2.93232 26.9107 3.0886C27.067 3.24489 27.279 3.33268 27.5 3.33268H29.1666V4.99935C29.1666 5.22036 29.2544 5.43232 29.4107 5.5886C29.567 5.74488 29.779 5.83268 30 5.83268C30.221 5.83268 30.433 5.74488 30.5892 5.5886C30.7455 5.43232 30.8333 5.22036 30.8333 4.99935Z" fill="#E0990C"/>
<path d="M36.5832 11.2493C36.5832 14.8852 33.6357 17.8327 29.9998 17.8327C26.364 17.8327 23.4165 14.8852 23.4165 11.2493C23.4165 7.61347 26.364 4.66602 29.9998 4.66602C33.6357 4.66602 36.5832 7.61347 36.5832 11.2493Z" fill="white" stroke="#E0990C"/>
<path d="M30 12.9173C29.7528 12.9173 29.5111 12.9906 29.3055 13.128C29.1 13.2653 28.9398 13.4606 28.8452 13.689C28.7505 13.9174 28.7258 14.1687 28.774 14.4112C28.8223 14.6537 28.9413 14.8764 29.1161 15.0512C29.2909 15.226 29.5137 15.3451 29.7561 15.3933C29.9986 15.4415 30.2499 15.4168 30.4784 15.3222C30.7068 15.2276 30.902 15.0673 31.0393 14.8618C31.1767 14.6562 31.25 14.4145 31.25 14.1673C31.25 13.8358 31.1183 13.5179 30.8839 13.2834C30.6495 13.049 30.3315 12.9173 30 12.9173ZM30.8333 10.4173V7.91732C30.8333 7.6963 30.7455 7.48434 30.5893 7.32806C30.433 7.17178 30.221 7.08398 30 7.08398C29.779 7.08398 29.567 7.17178 29.4107 7.32806C29.2545 7.48434 29.1667 7.6963 29.1667 7.91732V10.4173C29.1667 10.6383 29.2545 10.8503 29.4107 11.0066C29.567 11.1629 29.779 11.2507 30 11.2507C30.221 11.2507 30.433 11.1629 30.5893 11.0066C30.7455 10.8503 30.8333 10.6383 30.8333 10.4173Z" fill="#E0990C"/>
</svg>
