<svg width="40" height="32" viewBox="0 0 40 32" fill="none" xmlns="http://www.w3.org/2000/svg">
<path d="M24.0003 28H8.00033C7.6467 28 7.30757 27.8595 7.05752 27.6095C6.80747 27.3594 6.66699 27.0203 6.66699 26.6667V5.33333C6.66699 4.97971 6.80747 4.64057 7.05752 4.39052C7.30757 4.14048 7.6467 4 8.00033 4H17.3337L25.3337 12V26.6667C25.3337 27.0203 25.1932 27.3594 24.9431 27.6095C24.6931 27.8595 24.3539 28 24.0003 28ZM25.3337 12L17.3337 4L16.0003 10.6667L25.3337 12Z" stroke="#099CBC" stroke-width="2" stroke-linecap="round" stroke-linejoin="round"/>
<path d="M37.8337 9.99935C37.8337 14.3256 34.3266 17.8327 30.0003 17.8327C25.6741 17.8327 22.167 14.3256 22.167 9.99935C22.167 5.67312 25.6741 2.16602 30.0003 2.16602C34.3266 2.16602 37.8337 5.67312 37.8337 9.99935Z" fill="#099CBC" stroke="white"/>
<path d="M29.1668 13.3328C29.0571 13.3335 28.9484 13.3124 28.8469 13.271C28.7454 13.2295 28.653 13.1684 28.5752 13.0912L26.0752 10.5912C25.9975 10.5135 25.9358 10.4212 25.8938 10.3197C25.8517 10.2182 25.8301 10.1094 25.8301 9.9995C25.8301 9.77759 25.9182 9.56476 26.0752 9.40784C26.2321 9.25092 26.4449 9.16276 26.6668 9.16276C26.8887 9.16276 27.1016 9.25092 27.2585 9.40784L29.1668 11.3245L32.7418 7.74117C32.8987 7.58425 33.1116 7.49609 33.3335 7.49609C33.5554 7.49609 33.7682 7.58425 33.9252 7.74117C34.0821 7.89809 34.1702 8.11092 34.1702 8.33284C34.1702 8.55475 34.0821 8.76758 33.9252 8.9245L29.7585 13.0912C29.6806 13.1684 29.5883 13.2295 29.4867 13.271C29.3852 13.3124 29.2765 13.3335 29.1668 13.3328Z" fill="white"/>
</svg>
