<svg width="33" height="32" viewBox="0 0 33 32" fill="none" xmlns="http://www.w3.org/2000/svg">
<path d="M8.87484 6.66667H24.8748C25.2285 6.66667 25.5676 6.80714 25.8176 7.05719C26.0677 7.30724 26.2082 7.64638 26.2082 8V26.6667C26.2082 27.0203 26.0677 27.3594 25.8176 27.6095C25.5676 27.8595 25.2285 28 24.8748 28H8.87484C8.52122 28 8.18208 27.8595 7.93203 27.6095C7.68198 27.3594 7.5415 27.0203 7.5415 26.6667V8C7.5415 7.64638 7.68198 7.30724 7.93203 7.05719C8.18208 6.80714 8.52122 6.66667 8.87484 6.66667V6.66667ZM16.8748 12C16.3474 12 15.8318 12.1564 15.3933 12.4494C14.9548 12.7424 14.613 13.1589 14.4112 13.6462C14.2093 14.1334 14.1565 14.6696 14.2594 15.1869C14.3623 15.7042 14.6163 16.1793 14.9892 16.5523C15.3622 16.9252 15.8373 17.1792 16.3546 17.2821C16.8719 17.385 17.4081 17.3322 17.8953 17.1303C18.3826 16.9285 18.7991 16.5867 19.0921 16.1482C19.3851 15.7097 19.5415 15.1941 19.5415 14.6667C19.5415 13.9594 19.2606 13.2811 18.7605 12.781C18.2604 12.281 17.5821 12 16.8748 12ZM20.8748 21.3333C20.8748 20.2725 20.4534 19.2551 19.7033 18.5049C18.9531 17.7548 17.9357 17.3333 16.8748 17.3333C15.814 17.3333 14.7966 17.7548 14.0464 18.5049C13.2963 19.2551 12.8748 20.2725 12.8748 21.3333V22.6667H20.8748V21.3333ZM21.5415 4H18.8748L17.5415 6.66667H20.2082L21.5415 4ZM13.5415 6.66667H16.2082L14.8748 4H12.2082L13.5415 6.66667Z" stroke="#09212F" stroke-width="2" stroke-linecap="round" stroke-linejoin="round"/>
</svg>
