<svg width="33" height="32" viewBox="0 0 33 32" fill="none" xmlns="http://www.w3.org/2000/svg">
<path d="M11.2918 4H27.2918C27.6455 4 27.9846 4.14048 28.2346 4.39052C28.4847 4.64057 28.6252 4.97971 28.6252 5.33333V26.6667C28.6252 27.0203 28.4847 27.3594 28.2346 27.6095C27.9846 27.8595 27.6455 28 27.2918 28H11.2918C10.9382 28 10.5991 27.8595 10.349 27.6095C10.099 27.3594 9.9585 27.0203 9.9585 26.6667V22.6667" stroke="#09212F" stroke-width="2" stroke-linecap="round" stroke-linejoin="round"/>
<path d="M23.2917 16.0007V22.6673V16.0007ZM17.9583 22.6673V20.0007V22.6673ZM4.625 20.0007L8.39833 16.2273L4.625 20.0007ZM11.2917 9.33398C10.5005 9.33398 9.72718 9.56858 9.06939 10.0081C8.41159 10.4476 7.8989 11.0723 7.59615 11.8033C7.2934 12.5342 7.21418 13.3384 7.36853 14.1143C7.52287 14.8903 7.90383 15.603 8.46324 16.1624C9.02265 16.7218 9.73538 17.1028 10.5113 17.2571C11.2872 17.4115 12.0915 17.3323 12.8224 17.0295C13.5533 16.7268 14.178 16.2141 14.6175 15.5563C15.0571 14.8985 15.2917 14.1251 15.2917 13.334C15.2917 12.2731 14.8702 11.2557 14.1201 10.5056C13.3699 9.75541 12.3525 9.33398 11.2917 9.33398Z" stroke="black" stroke-width="2" stroke-linecap="round" stroke-linejoin="round"/>
</svg>
