<svg width="33" height="32" viewBox="0 0 33 32" fill="none" xmlns="http://www.w3.org/2000/svg">
<path d="M27.0652 19.1875L26.1052 26.8275C26.0659 27.1527 25.9083 27.4521 25.6623 27.6685C25.4164 27.8849 25.0994 28.0032 24.7719 28.0008H8.46521C8.13764 28.0032 7.82066 27.8849 7.57474 27.6685C7.32882 27.4521 7.17118 27.1527 7.13188 26.8275L6.17188 19.1875" stroke="#09212F" stroke-width="2" stroke-linecap="round" stroke-linejoin="round"/>
<path d="M27.7182 18.9733L21.6782 20.9867C18.3978 22.0786 14.8519 22.0786 11.5715 20.9867L5.53153 18.9733C5.25555 18.8806 5.01753 18.7 4.85381 18.4592C4.6901 18.2185 4.60968 17.9308 4.62486 17.64V9.33333H28.6249V17.7067C28.6256 17.9862 28.5384 18.2589 28.3757 18.4862C28.213 18.7135 27.983 18.8839 27.7182 18.9733ZM15.2915 16H17.9582H15.2915ZM23.2915 8C23.2915 6.93913 22.8701 5.92172 22.12 5.17157C21.3698 4.42143 20.3524 4 19.2915 4H13.9582C12.8973 4 11.8799 4.42143 11.1298 5.17157C10.3796 5.92172 9.95819 6.93913 9.95819 8V9.33333H23.2915V8Z" stroke="#09212F" stroke-width="2" stroke-linecap="round" stroke-linejoin="round"/>
</svg>
