<svg width="33" height="32" viewBox="0 0 33 32" fill="none" xmlns="http://www.w3.org/2000/svg">
<path d="M16.375 22.6667V26.6667M27.0417 21.3333H5.70833C5.35471 21.3333 5.01557 21.1929 4.76552 20.9428C4.51548 20.6928 4.375 20.3536 4.375 20V6.66667C4.375 6.31304 4.51548 5.97391 4.76552 5.72386C5.01557 5.47381 5.35471 5.33333 5.70833 5.33333H27.0417C27.3953 5.33333 27.7344 5.47381 27.9845 5.72386C28.2345 5.97391 28.375 6.31304 28.375 6.66667V20C28.375 20.3536 28.2345 20.6928 27.9845 20.9428C27.7344 21.1929 27.3953 21.3333 27.0417 21.3333ZM24.375 28L23.4817 22.6667L23.255 21.3333L24.375 28ZM20.5883 5.33333L20.375 4L20.5883 5.33333ZM9.495 21.3333L9.26833 22.6667L8.375 28L9.495 21.3333ZM12.375 4L12.1483 5.33333L12.375 4Z" stroke="#099CBC" stroke-width="2" stroke-linecap="round" stroke-linejoin="round"/>
</svg>
