<svg width="26" height="26" viewBox="0 0 26 26" fill="none" xmlns="http://www.w3.org/2000/svg">
<path d="M25 13C25 15.3734 24.2962 17.6935 22.9776 19.6668C21.6591 21.6402 19.7849 23.1783 17.5922 24.0866C15.3995 24.9948 12.9867 25.2324 10.6589 24.7694C8.33115 24.3064 6.19295 23.1635 4.51472 21.4853C2.83649 19.8071 1.6936 17.6689 1.23058 15.3411C0.767559 13.0133 1.0052 10.6005 1.91345 8.4078C2.8217 6.21509 4.35977 4.34094 6.33316 3.02236C8.30655 1.70379 10.6266 1 13 1C16.1826 1 19.2348 2.26428 21.4853 4.51472C23.7357 6.76516 25 9.8174 25 13V13ZM13 7.66667C11.9452 7.66667 10.914 7.97946 10.037 8.5655C9.1599 9.15153 8.47632 9.98448 8.07265 10.959C7.66898 11.9336 7.56336 13.0059 7.76915 14.0405C7.97494 15.075 8.48289 16.0254 9.22877 16.7712C9.97465 17.5171 10.925 18.0251 11.9595 18.2309C12.9941 18.4366 14.0664 18.331 15.041 17.9274C16.0155 17.5237 16.8485 16.8401 17.4345 15.963C18.0205 15.086 18.3333 14.0548 18.3333 13C18.3333 11.5855 17.7714 10.229 16.7712 9.22876C15.771 8.22857 14.4145 7.66667 13 7.66667V7.66667Z" stroke="#E0990C" stroke-width="2" stroke-linecap="round" stroke-linejoin="round"/>
</svg>
